<svg viewBox="0 0 243 87" xmlns="http://www.w3.org/2000/svg" xmlns:xlink="http://www.w3.org/1999/xlink"><linearGradient id="a" x1="75.348774%" x2="19.314184%" y1="95.83573%" y2="-4.168289%"><stop offset="0" stop-color="#1e8e3e"/><stop offset="1" stop-color="#34a853"/></linearGradient><linearGradient id="b" x1="21.301678%" x2="59.783985%" y1="100.176733%" y2=".180967%"><stop offset="0" stop-color="#fcc934"/><stop offset="1" stop-color="#fbbc04"/></linearGradient><linearGradient id="c" x1=".000018%" x2="100%" y1="49.999873%" y2="49.999873%"><stop offset="0" stop-color="#d93025"/><stop offset="1" stop-color="#ea4335"/></linearGradient><g fill="none" fill-rule="evenodd"><rect fill="#1f2124" height="86" rx="20" stroke="#2b2e32" width="241.684211" x=".657895" y=".5"/><g fill-rule="nonzero"><g transform="translate(24.157895 17.376)"><path d="m26.5 39.75c7.3177857 0 13.25-5.9322143 13.25-13.25s-5.9322143-13.25-13.25-13.25-13.25 5.9322143-13.25 13.25 5.9322143 13.25 13.25 13.25z" fill="#fff"/><path d="m15.1445131 33.1249995-11.56478376-19.8749995c-2.34494838 4.0286479-3.57972934 8.5989083-3.57972934 13.2512057s1.23414496 9.2226419 3.57880502 13.2514581c2.34466855 4.0288162 5.71705348 7.3741589 9.77803968 9.6996345 4.0609862 2.3253915 8.6674059 3.5489628 13.3561663 3.5477017l11.5647668-19.8750005v-.0034497c-1.1713421 2.0155019-2.8569113 3.6893933-4.8871924 4.853309-2.0302811 1.1639158-4.3336182 1.7768795-6.6784224 1.777216-2.3448042.0003366-4.6483956-.6118698-6.6790159-1.7752807-2.0305355-1.1633268-3.7166983-2.8367134-4.888634-4.8517946z" fill="url(#a)"/><path d="m37.9767858 33.1266405-11.4719909 19.8733595c4.65118.0006728 9.2205109-1.2234707 13.2486118-3.5493433 4.0281009-2.3257884 7.3729766-5.6712758 9.6983143-9.700096 2.3252535-4.0289043 3.5490357-8.59904 3.548279-13.2509534-.0008416-4.6519135-1.2262221-9.2215443-3.5529897-13.2496073h-22.9441502l-.0028601.0017668c2.3260106-.0011779 4.611307.6103049 6.6260724 1.7727785 2.0147655 1.1625577 3.6879184 2.8351331 4.8512181 4.8497115 1.1632998 2.0144942 1.7756956 4.2998986 1.7756956 6.6261918-.0000841 2.3263774-.6126482 4.6116976-1.776032 6.6261919z" fill="url(#b)"/><path d="m26.1319016 36.8055556c5.8948723 0 10.673654-4.7787626 10.673654-10.6736112s-4.7787817-10.6736111-10.673654-10.6736111c-5.8948722 0-10.6735683 4.7787625-10.6735683 10.6736111s4.7786961 10.6736112 10.6735683 10.6736112z" fill="#1a73e8"/><path d="m26.5009454 13.2493607h22.818499c-2.3123522-4.02847866-5.6386591-7.37382025-9.6445332-9.69961723-4.0058742-2.32578856-8.5501817-3.54974347-13.17589-3.54974347-4.6257084 0-9.1697649 1.22525881-13.1753044 3.55162783-4.00562313 2.3263606-7.33143648 5.67219851-9.64316124 9.70092947l11.40921604 19.8708444.0029281.0015983c-1.1575983-2.0139028-1.767477-4.2986815-1.7682299-6.6247645-.000753-2.326083.6077035-4.6113663 1.7640469-6.6259421 1.1562598-2.0145758 2.8198316-3.6875284 4.8231451-4.8504438 2.0033972-1.1629994 4.2760111-1.7749937 6.5892836-1.7744889z" fill="url(#c)"/></g><g fill="#fff"><g transform="translate(91.452895 44.756)"><path d="m23.135 21.595c-1.2366667 1.4933333-2.695 2.6308333-4.375 3.4125s-3.5583333 1.1725-5.635 1.1725c-1.8666667 0-3.59916667-.3383333-5.1975-1.015s-2.98083333-1.5983333-4.1475-2.765-2.08833333-2.5491667-2.765-4.1475-1.015-3.3191667-1.015-5.1625.33833333-3.56416667 1.015-5.1625 1.59833333-2.98083333 2.765-4.1475 2.54916667-2.08833333 4.1475-2.765 3.3308333-1.015 5.1975-1.015c2.0066667 0 3.7741667.35 5.3025 1.05s2.8875 1.715 4.0775 3.045l-3.325 3.22c-.7466667-.86333333-1.6041667-1.55166667-2.5725-2.065s-2.1175-.77-3.4475-.77c-1.1666667 0-2.2633333.20416667-3.29.6125-1.02666667.40833333-1.91916667.98583333-2.6775 1.7325s-1.35916667 1.65083333-1.8025 2.7125c-.44333333 1.0616667-.665 2.2458333-.665 3.5525s.22166667 2.4908333.665 3.5525 1.04416667 1.9658333 1.8025 2.7125 1.65083333 1.3241667 2.6775 1.7325c1.0266667.4083333 2.1233333.6125 3.29.6125 1.4 0 2.6425-.2858333 3.7275-.8575s2.0475-1.3825 2.8875-2.4325z"/><path d="m26.005.56h4.585v7.035l-.28 3.115h.28c.49-.81666667 1.1958333-1.4875 2.1175-2.0125s1.9541667-.7875 3.0975-.7875c2.2166667 0 3.8558333.65333333 4.9175 1.96 1.0616667 1.3066667 1.5925 3.0916667 1.5925 5.355v10.395h-4.585v-9.835c0-1.19-.28-2.0941667-.84-2.7125s-1.3416667-.9275-2.345-.9275c-.63 0-1.19.1341667-1.68.4025s-.9041667.6358333-1.2425 1.1025-.595 1.0091667-.77 1.6275-.2625 1.2775-.2625 1.9775v8.365h-4.585z"/><path d="m46.095 8.47h4.305v2.38h.28c.21-.42.49-.805.84-1.155s.7408333-.65333333 1.1725-.91.8983333-.455 1.4-.595.9975-.21 1.4875-.21c.6066667 0 1.1258333.05833333 1.5575.175s.7991667.26833333 1.1025.455l-1.225 4.165c-.28-.14-.5891667-.2508333-.9275-.3325s-.7525-.1225-1.2425-.1225c-.63 0-1.2016667.1225-1.715.3675s-.9508333.5891667-1.3125 1.0325-.6416667.9625-.84 1.5575-.2975 1.2425-.2975 1.9425v8.4h-4.585z"/><path d="m67.41 7.91c1.33 0 2.5491667.2275 3.6575.6825s2.065 1.085 2.87 1.89 1.435 1.7675 1.89 2.8875.6825 2.345.6825 3.675-.2275 2.555-.6825 3.675-1.085 2.0825-1.89 2.8875-1.7616667 1.435-2.87 1.89-2.3275.6825-3.6575.6825-2.5491667-.2275-3.6575-.6825-2.065-1.085-2.87-1.89-1.435-1.7675-1.89-2.8875-.6825-2.345-.6825-3.675.2275-2.555.6825-3.675 1.085-2.0825 1.89-2.8875 1.7616667-1.435 2.87-1.89 2.3275-.6825 3.6575-.6825zm0 14.035c.5833333 0 1.1491667-.1108333 1.6975-.3325s1.0325-.5425 1.4525-.9625.7525-.9333333.9975-1.54.3675-1.295.3675-2.065-.1225-1.4583333-.3675-2.065-.5775-1.12-.9975-1.54-.9041667-.7408333-1.4525-.9625-1.1141667-.3325-1.6975-.3325c-.6066667 0-1.1783333.1108333-1.715.3325s-1.015.5425-1.435.9625-.7525.9333333-.9975 1.54-.3675 1.295-.3675 2.065.1225 1.4583333.3675 2.065.5775 1.12.9975 1.54.8983333.7408333 1.435.9625 1.1083333.3325 1.715.3325z"/><path d="m79.1 8.47h4.305v2.24h.28c.5366667-.84 1.2658333-1.51666667 2.1875-2.03s1.9425-.77 3.0625-.77c1.3066667 0 2.4033333.30333333 3.29.91s1.5166667 1.3533333 1.89 2.24c.5366667-.8633333 1.295-1.60416667 2.275-2.2225s2.17-.9275 3.57-.9275c1.05 0 1.96.16916667 2.73.5075s1.405833.81083333 1.9075 1.4175c.501667.6066667.880833 1.3358333 1.1375 2.1875s.385 1.7791667.385 2.7825v10.815h-4.585v-9.975c0-2.3333333-.956667-3.5-2.87-3.5-.6066667 0-1.1433333.1341667-1.61.4025s-.8575.63-1.1725 1.085-.56.9975-.735 1.6275-.2625 1.3066667-.2625 2.03v8.33h-4.585v-9.975c0-2.3333333-1.0033333-3.5-3.01-3.5-.5833333 0-1.0966667.1341667-1.54.4025s-.8166667.63-1.12 1.085-.5366667.9975-.7 1.6275-.245 1.3066667-.245 2.03v8.33h-4.585z"/><path d="m126.14 21.49c-.793333 1.4-1.860833 2.5316667-3.2025 3.395s-2.980833 1.295-4.9175 1.295c-1.306667 0-2.514167-.2275-3.6225-.6825s-2.070833-1.0908333-2.8875-1.9075-1.4525-1.7791667-1.9075-2.8875-.6825-2.3275-.6825-3.6575c0-1.2366667.221667-2.4091667.665-3.5175s1.061667-2.0766667 1.855-2.905c.793333-.82833333 1.7325-1.4875 2.8175-1.9775s2.280833-.735 3.5875-.735c1.376667 0 2.601667.2275 3.675.6825s1.971667 1.085 2.695 1.89 1.271667 1.7558333 1.645 2.8525.56 2.2866667.56 3.57v.42c-.023333.14-.035.2683333-.035.385-.023333.1166667-.035.245-.035.385h-12.915c.093333.7.285833 1.3008333.5775 1.8025s.653333.9216667 1.085 1.26.904167.5833333 1.4175.735 1.038333.2275 1.575.2275c1.05 0 1.919167-.2391667 2.6075-.7175s1.230833-1.0791667 1.6275-1.8025zm-4.165-6.65c-.023333-.3033333-.1225-.6416667-.2975-1.015s-.431667-.7233333-.77-1.05-.758333-.595-1.26-.805-1.1025-.315-1.8025-.315c-.98 0-1.843333.28-2.59.84s-1.271667 1.3416667-1.575 2.345z"/></g><g transform="translate(90.445895 17)"><path d="m7.68 2.904-2.808 7.752h5.712l-2.808-7.752zm-5.232 14.472h-2.448l6.48-17.184h2.496l6.48 17.184h-2.448l-1.656-4.656h-7.224z"/><path d="m21.6 17.376h-2.208l-4.752-11.76h2.4l3.456 9.12h.048l3.504-9.12h2.352z"/><path d="m29.208 13.776c0 .576.244 1.056.732 1.44s1.06.576 1.716.576c.928 0 1.756-.344 2.484-1.032s1.092-1.496 1.092-2.424c-.688-.544-1.648-.816-2.88-.816-.896 0-1.644.216-2.244.648s-.9.968-.9 1.608zm2.856-8.544c1.632 0 2.92.436 3.864 1.308s1.416 2.068 1.416 3.588v7.248h-2.112v-1.632h-.096c-.912 1.344-2.128 2.016-3.648 2.016-1.296 0-2.38-.384-3.252-1.152s-1.308-1.728-1.308-2.88c0-1.216.46-2.184 1.38-2.904s2.148-1.08 3.684-1.08c1.312 0 2.392.24 3.24.72v-.504c0-.768-.304-1.42-.912-1.956s-1.32-.804-2.136-.804c-1.232 0-2.208.52-2.928 1.56l-1.944-1.224c1.072-1.536 2.656-2.304 4.752-2.304z"/><path d="m42.696 1.56c0 .432-.152.8-.456 1.104s-.672.456-1.104.456-.8-.152-1.104-.456-.456-.672-.456-1.104.152-.8.456-1.104.672-.456 1.104-.456.8.152 1.104.456.456.672.456 1.104zm-.456 4.056v11.76h-2.208v-11.76z"/><path d="m47.328.192v17.184h-2.208v-17.184z"/><path d="m51.504 13.776c0 .576.244 1.056.732 1.44s1.06.576 1.716.576c.928 0 1.756-.344 2.484-1.032s1.092-1.496 1.092-2.424c-.688-.544-1.648-.816-2.88-.816-.896 0-1.644.216-2.244.648s-.9.968-.9 1.608zm2.856-8.544c1.632 0 2.92.436 3.864 1.308s1.416 2.068 1.416 3.588v7.248h-2.112v-1.632h-.096c-.912 1.344-2.128 2.016-3.648 2.016-1.296 0-2.38-.384-3.252-1.152s-1.308-1.728-1.308-2.88c0-1.216.46-2.184 1.38-2.904s2.148-1.08 3.684-1.08c1.312 0 2.392.24 3.24.72v-.504c0-.768-.304-1.42-.912-1.956s-1.32-.804-2.136-.804c-1.232 0-2.208.52-2.928 1.56l-1.944-1.224c1.072-1.536 2.656-2.304 4.752-2.304z"/><path d="m68.352 17.76c-.864 0-1.652-.184-2.364-.552s-1.26-.856-1.644-1.464h-.096v1.632h-2.112v-17.184h2.208v5.424l-.096 1.632h.096c.384-.608.932-1.096 1.644-1.464s1.5-.552 2.364-.552c1.552 0 2.864.608 3.936 1.824 1.104 1.232 1.656 2.712 1.656 4.44 0 1.744-.552 3.224-1.656 4.44-1.072 1.216-2.384 1.824-3.936 1.824zm-.36-2.016c1.056 0 1.944-.4 2.664-1.2.72-.784 1.08-1.8 1.08-3.048 0-1.232-.36-2.248-1.08-3.048s-1.608-1.2-2.664-1.2c-1.072 0-1.968.4-2.688 1.2-.704.8-1.056 1.816-1.056 3.048 0 1.248.352 2.272 1.056 3.072.72.784 1.616 1.176 2.688 1.176z"/><path d="m78.048.192v17.184h-2.208v-17.184z"/><path d="m85.896 17.76c-1.728 0-3.152-.592-4.272-1.776s-1.68-2.68-1.68-4.488c0-1.792.544-3.284 1.632-4.476s2.48-1.788 4.176-1.788c1.744 0 3.132.564 4.164 1.692s1.548 2.708 1.548 4.74l-.024.24h-9.24c.032 1.152.416 2.08 1.152 2.784s1.616 1.056 2.64 1.056c1.408 0 2.512-.704 3.312-2.112l1.968.96c-.528.992-1.26 1.768-2.196 2.328s-1.996.84-3.18.84zm-3.528-7.68h6.744c-.064-.816-.396-1.492-.996-2.028s-1.404-.804-2.412-.804c-.832 0-1.548.256-2.148.768s-.996 1.2-1.188 2.064z"/><path d="m103.704 0c.8 0 1.456.136 1.968.408l-.6 1.944c-.384-.192-.816-.288-1.296-.288-.544 0-.988.188-1.332.564s-.516.876-.516 1.5v1.488h3.072v2.016h-3.072v9.744h-2.208v-9.744h-2.208v-2.016h2.208v-1.704c0-1.168.372-2.112 1.116-2.832s1.7-1.08 2.868-1.08z"/><path d="m105.72 11.496c0-1.808.568-3.304 1.704-4.488 1.152-1.184 2.6-1.776 4.344-1.776s3.184.592 4.32 1.776c1.152 1.184 1.728 2.68 1.728 4.488 0 1.824-.576 3.32-1.728 4.488-1.136 1.184-2.576 1.776-4.32 1.776s-3.192-.592-4.344-1.776c-1.136-1.184-1.704-2.68-1.704-4.488zm2.208 0c0 1.264.368 2.288 1.104 3.072s1.648 1.176 2.736 1.176 2-.392 2.736-1.176 1.104-1.808 1.104-3.072c0-1.248-.368-2.264-1.104-3.048-.752-.8-1.664-1.2-2.736-1.2s-1.984.4-2.736 1.2c-.736.784-1.104 1.8-1.104 3.048z"/><path d="m121.8 17.376h-2.208v-11.76h2.112v1.92h.096c.224-.624.684-1.156 1.38-1.596s1.38-.66 2.052-.66c.64 0 1.184.096 1.632.288l-.672 2.136c-.272-.112-.704-.168-1.296-.168-.832 0-1.556.336-2.172 1.008s-.924 1.456-.924 2.352z"/></g></g></g></g></svg>