<?xml version="1.0" encoding="UTF-8"?>
<svg viewBox="0 0 243 87" version="1.1" xmlns="http://www.w3.org/2000/svg" xmlns:xlink="http://www.w3.org/1999/xlink">
    <title>chrome_download_dark</title>
    <defs>
        <linearGradient x1="75.348774%" y1="95.83573%" x2="19.3141835%" y2="-4.1682894%" id="linearGradient-1">
            <stop stop-color="#1E8E3E" offset="0%"></stop>
            <stop stop-color="#34A853" offset="100%"></stop>
        </linearGradient>
        <linearGradient x1="21.3016781%" y1="100.176733%" x2="59.783985%" y2="0.180966551%" id="linearGradient-2">
            <stop stop-color="#FCC934" offset="0%"></stop>
            <stop stop-color="#FBBC04" offset="100%"></stop>
        </linearGradient>
        <linearGradient x1="1.83307774e-05%" y1="49.999873%" x2="100%" y2="49.999873%" id="linearGradient-3">
            <stop stop-color="#D93025" offset="0%"></stop>
            <stop stop-color="#EA4335" offset="100%"></stop>
        </linearGradient>
    </defs>
    <g id="Page-1" stroke="none" stroke-width="1" fill="none" fill-rule="evenodd">
        <g id="chrome_download_dark" transform="translate(0.157895, 0.000000)">
            <rect id="Rectangle" stroke="#2B2E32" fill="#1F2124" x="0.5" y="0.5" width="241.684211" height="86" rx="20"></rect>
            <g id="Group-10" transform="translate(24.000000, 17.376000)" fill-rule="nonzero">
                <g id="chrome-icon">
                    <path d="M26.5,39.75 C33.8177857,39.75 39.75,33.8177857 39.75,26.5 C39.75,19.1822143 33.8177857,13.25 26.5,13.25 C19.1822143,13.25 13.25,19.1822143 13.25,26.5 C13.25,33.8177857 19.1822143,39.75 26.5,39.75 Z" id="Path" fill="#FFFFFF"></path>
                    <path d="M15.1445131,33.1249995 L3.57972934,13.25 C1.23478096,17.2786479 0,21.8489083 0,26.5012057 C0,31.1535031 1.23414496,35.7238476 3.57880502,39.7526638 C5.92347357,43.78148 9.2958585,47.1268227 13.3568447,49.4522983 C17.4178309,51.7776898 22.0242506,53.0012611 26.713011,53 L38.2777778,33.1249995 L38.2777778,33.1215498 C37.1064357,35.1370517 35.4208665,36.8109431 33.3905854,37.9748588 C31.3603043,39.1387746 29.0569672,39.7517383 26.712163,39.7520748 C24.3673588,39.7524114 22.0637674,39.140205 20.0331471,37.9767941 C18.0026116,36.8134673 16.3164488,35.1400807 15.1445131,33.1249995 Z" id="Path" fill="url(#linearGradient-1)"></path>
                    <path d="M37.9767858,33.1266405 L26.5047949,53 C31.1559749,53.0006728 35.7253058,51.7765293 39.7534067,49.4506567 C43.7815076,47.1248683 47.1263833,43.7793809 49.451721,39.7505607 C51.7769745,35.7216564 53.0007567,31.1515207 53,26.4996073 C52.9991584,21.8476938 51.7737779,17.278063 49.4470103,13.25 L26.5028601,13.25 L26.5,13.2517668 C28.8260106,13.2505889 31.111307,13.8620717 33.1260724,15.0245453 C35.1408379,16.187103 36.8139908,17.8596784 37.9772905,19.8742568 C39.1405903,21.888751 39.7529861,24.1741554 39.7529861,26.5004486 C39.752902,28.826826 39.1403379,31.1121462 37.9769541,33.1266405 L37.9767858,33.1266405 Z" id="Path" fill="url(#linearGradient-2)"></path>
                    <path d="M26.1319016,36.8055556 C32.0267739,36.8055556 36.8055556,32.026793 36.8055556,26.1319444 C36.8055556,20.2370958 32.0267739,15.4583333 26.1319016,15.4583333 C20.2370294,15.4583333 15.4583333,20.2370958 15.4583333,26.1319444 C15.4583333,32.026793 20.2370294,36.8055556 26.1319016,36.8055556 Z" id="Path" fill="#1A73E8"></path>
                    <path d="M26.5009454,13.2493607 L49.3194444,13.2493607 C47.0070922,9.22088204 43.6807853,5.87554045 39.6749112,3.54974347 C35.669037,1.22395491 31.1247295,0 26.4990212,0 C21.8733128,0 17.3292563,1.22525881 13.3237168,3.55162783 C9.31809367,5.87798843 5.99228032,9.22382634 3.68055556,13.2525573 L15.0897716,33.1234017 L15.0926997,33.125 C13.9351014,31.1110972 13.3252227,28.8263185 13.3244698,26.5002355 C13.3237168,24.1741525 13.9321733,21.8888692 15.0885167,19.8742934 C16.2447765,17.8597176 17.9083483,16.186765 19.9116618,15.0238496 C21.915059,13.8608502 24.1876729,13.2488559 26.5009454,13.2493607 Z" id="Path" fill="url(#linearGradient-3)"></path>
                </g>
                <g id="Group-9" transform="translate(67.295000, 0.696000)" fill="#FFFFFF">
                    <g id="Chrome" transform="translate(0.000000, 26.684000)">
                        <path d="M23.135,21.595 C21.8983333,23.0883333 20.44,24.2258333 18.76,25.0075 C17.08,25.7891667 15.2016667,26.18 13.125,26.18 C11.2583333,26.18 9.52583333,25.8416667 7.9275,25.165 C6.32916667,24.4883333 4.94666667,23.5666667 3.78,22.4 C2.61333333,21.2333333 1.69166667,19.8508333 1.015,18.2525 C0.338333333,16.6541667 0,14.9333333 0,13.09 C0,11.2466667 0.338333333,9.52583333 1.015,7.9275 C1.69166667,6.32916667 2.61333333,4.94666667 3.78,3.78 C4.94666667,2.61333333 6.32916667,1.69166667 7.9275,1.015 C9.52583333,0.338333333 11.2583333,0 13.125,0 C15.1316667,0 16.8991667,0.35 18.4275,1.05 C19.9558333,1.75 21.315,2.765 22.505,4.095 L19.18,7.315 C18.4333333,6.45166667 17.5758333,5.76333333 16.6075,5.25 C15.6391667,4.73666667 14.49,4.48 13.16,4.48 C11.9933333,4.48 10.8966667,4.68416667 9.87,5.0925 C8.84333333,5.50083333 7.95083333,6.07833333 7.1925,6.825 C6.43416667,7.57166667 5.83333333,8.47583333 5.39,9.5375 C4.94666667,10.5991667 4.725,11.7833333 4.725,13.09 C4.725,14.3966667 4.94666667,15.5808333 5.39,16.6425 C5.83333333,17.7041667 6.43416667,18.6083333 7.1925,19.355 C7.95083333,20.1016667 8.84333333,20.6791667 9.87,21.0875 C10.8966667,21.4958333 11.9933333,21.7 13.16,21.7 C14.56,21.7 15.8025,21.4141667 16.8875,20.8425 C17.9725,20.2708333 18.935,19.46 19.775,18.41 L23.135,21.595 Z" id="Path"></path>
                        <path d="M26.005,0.56 L30.59,0.56 L30.59,7.595 L30.31,10.71 L30.59,10.71 C31.08,9.89333333 31.7858333,9.2225 32.7075,8.6975 C33.6291667,8.1725 34.6616667,7.91 35.805,7.91 C38.0216667,7.91 39.6608333,8.56333333 40.7225,9.87 C41.7841667,11.1766667 42.315,12.9616667 42.315,15.225 L42.315,25.62 L37.73,25.62 L37.73,15.785 C37.73,14.595 37.45,13.6908333 36.89,13.0725 C36.33,12.4541667 35.5483333,12.145 34.545,12.145 C33.915,12.145 33.355,12.2791667 32.865,12.5475 C32.375,12.8158333 31.9608333,13.1833333 31.6225,13.65 C31.2841667,14.1166667 31.0275,14.6591667 30.8525,15.2775 C30.6775,15.8958333 30.59,16.555 30.59,17.255 L30.59,25.62 L26.005,25.62 L26.005,0.56 Z" id="Path"></path>
                        <path d="M46.095,8.47 L50.4,8.47 L50.4,10.85 L50.68,10.85 C50.89,10.43 51.17,10.045 51.52,9.695 C51.87,9.345 52.2608333,9.04166667 52.6925,8.785 C53.1241667,8.52833333 53.5908333,8.33 54.0925,8.19 C54.5941667,8.05 55.09,7.98 55.58,7.98 C56.1866667,7.98 56.7058333,8.03833333 57.1375,8.155 C57.5691667,8.27166667 57.9366667,8.42333333 58.24,8.61 L57.015,12.775 C56.735,12.635 56.4258333,12.5241667 56.0875,12.4425 C55.7491667,12.3608333 55.335,12.32 54.845,12.32 C54.215,12.32 53.6433333,12.4425 53.13,12.6875 C52.6166667,12.9325 52.1791667,13.2766667 51.8175,13.72 C51.4558333,14.1633333 51.1758333,14.6825 50.9775,15.2775 C50.7791667,15.8725 50.68,16.52 50.68,17.22 L50.68,25.62 L46.095,25.62 L46.095,8.47 Z" id="Path"></path>
                        <path d="M67.41,7.91 C68.74,7.91 69.9591667,8.1375 71.0675,8.5925 C72.1758333,9.0475 73.1325,9.6775 73.9375,10.4825 C74.7425,11.2875 75.3725,12.25 75.8275,13.37 C76.2825,14.49 76.51,15.715 76.51,17.045 C76.51,18.375 76.2825,19.6 75.8275,20.72 C75.3725,21.84 74.7425,22.8025 73.9375,23.6075 C73.1325,24.4125 72.1758333,25.0425 71.0675,25.4975 C69.9591667,25.9525 68.74,26.18 67.41,26.18 C66.08,26.18 64.8608333,25.9525 63.7525,25.4975 C62.6441667,25.0425 61.6875,24.4125 60.8825,23.6075 C60.0775,22.8025 59.4475,21.84 58.9925,20.72 C58.5375,19.6 58.31,18.375 58.31,17.045 C58.31,15.715 58.5375,14.49 58.9925,13.37 C59.4475,12.25 60.0775,11.2875 60.8825,10.4825 C61.6875,9.6775 62.6441667,9.0475 63.7525,8.5925 C64.8608333,8.1375 66.08,7.91 67.41,7.91 Z M67.41,21.945 C67.9933333,21.945 68.5591667,21.8341667 69.1075,21.6125 C69.6558333,21.3908333 70.14,21.07 70.56,20.65 C70.98,20.23 71.3125,19.7166667 71.5575,19.11 C71.8025,18.5033333 71.925,17.815 71.925,17.045 C71.925,16.275 71.8025,15.5866667 71.5575,14.98 C71.3125,14.3733333 70.98,13.86 70.56,13.44 C70.14,13.02 69.6558333,12.6991667 69.1075,12.4775 C68.5591667,12.2558333 67.9933333,12.145 67.41,12.145 C66.8033333,12.145 66.2316667,12.2558333 65.695,12.4775 C65.1583333,12.6991667 64.68,13.02 64.26,13.44 C63.84,13.86 63.5075,14.3733333 63.2625,14.98 C63.0175,15.5866667 62.895,16.275 62.895,17.045 C62.895,17.815 63.0175,18.5033333 63.2625,19.11 C63.5075,19.7166667 63.84,20.23 64.26,20.65 C64.68,21.07 65.1583333,21.3908333 65.695,21.6125 C66.2316667,21.8341667 66.8033333,21.945 67.41,21.945 Z" id="Shape"></path>
                        <path d="M79.1,8.47 L83.405,8.47 L83.405,10.71 L83.685,10.71 C84.2216667,9.87 84.9508333,9.19333333 85.8725,8.68 C86.7941667,8.16666667 87.815,7.91 88.935,7.91 C90.2416667,7.91 91.3383333,8.21333333 92.225,8.82 C93.1116667,9.42666667 93.7416667,10.1733333 94.115,11.06 C94.6516667,10.1966667 95.41,9.45583333 96.39,8.8375 C97.37,8.21916667 98.56,7.91 99.96,7.91 C101.01,7.91 101.92,8.07916667 102.69,8.4175 C103.46,8.75583333 104.095833,9.22833333 104.5975,9.835 C105.099167,10.4416667 105.478333,11.1708333 105.735,12.0225 C105.991667,12.8741667 106.12,13.8016667 106.12,14.805 L106.12,25.62 L101.535,25.62 L101.535,15.645 C101.535,13.3116667 100.578333,12.145 98.665,12.145 C98.0583333,12.145 97.5216667,12.2791667 97.055,12.5475 C96.5883333,12.8158333 96.1975,13.1775 95.8825,13.6325 C95.5675,14.0875 95.3225,14.63 95.1475,15.26 C94.9725,15.89 94.885,16.5666667 94.885,17.29 L94.885,25.62 L90.3,25.62 L90.3,15.645 C90.3,13.3116667 89.2966667,12.145 87.29,12.145 C86.7066667,12.145 86.1933333,12.2791667 85.75,12.5475 C85.3066667,12.8158333 84.9333333,13.1775 84.63,13.6325 C84.3266667,14.0875 84.0933333,14.63 83.93,15.26 C83.7666667,15.89 83.685,16.5666667 83.685,17.29 L83.685,25.62 L79.1,25.62 L79.1,8.47 Z" id="Path"></path>
                        <path d="M126.14,21.49 C125.346667,22.89 124.279167,24.0216667 122.9375,24.885 C121.595833,25.7483333 119.956667,26.18 118.02,26.18 C116.713333,26.18 115.505833,25.9525 114.3975,25.4975 C113.289167,25.0425 112.326667,24.4066667 111.51,23.59 C110.693333,22.7733333 110.0575,21.8108333 109.6025,20.7025 C109.1475,19.5941667 108.92,18.375 108.92,17.045 C108.92,15.8083333 109.141667,14.6358333 109.585,13.5275 C110.028333,12.4191667 110.646667,11.4508333 111.44,10.6225 C112.233333,9.79416667 113.1725,9.135 114.2575,8.645 C115.3425,8.155 116.538333,7.91 117.845,7.91 C119.221667,7.91 120.446667,8.1375 121.52,8.5925 C122.593333,9.0475 123.491667,9.6775 124.215,10.4825 C124.938333,11.2875 125.486667,12.2383333 125.86,13.335 C126.233333,14.4316667 126.42,15.6216667 126.42,16.905 C126.42,17.0683333 126.42,17.2083333 126.42,17.325 C126.396667,17.465 126.385,17.5933333 126.385,17.71 C126.361667,17.8266667 126.35,17.955 126.35,18.095 L113.435,18.095 C113.528333,18.795 113.720833,19.3958333 114.0125,19.8975 C114.304167,20.3991667 114.665833,20.8191667 115.0975,21.1575 C115.529167,21.4958333 116.001667,21.7408333 116.515,21.8925 C117.028333,22.0441667 117.553333,22.12 118.09,22.12 C119.14,22.12 120.009167,21.8808333 120.6975,21.4025 C121.385833,20.9241667 121.928333,20.3233333 122.325,19.6 L126.14,21.49 Z M121.975,14.84 C121.951667,14.5366667 121.8525,14.1983333 121.6775,13.825 C121.5025,13.4516667 121.245833,13.1016667 120.9075,12.775 C120.569167,12.4483333 120.149167,12.18 119.6475,11.97 C119.145833,11.76 118.545,11.655 117.845,11.655 C116.865,11.655 116.001667,11.935 115.255,12.495 C114.508333,13.055 113.983333,13.8366667 113.68,14.84 L121.975,14.84 Z" id="Shape"></path>
                    </g>
                    <g id="Download-for" transform="translate(0.131105, 0.000000)">
                        <path d="M-1.13686838e-13,15.928 L-1.13686838e-13,0.176 L4.818,0.176 C7.22333333,0.176 9.15566667,0.902 10.615,2.354 C12.0743333,3.806 12.804,5.70533333 12.804,8.052 C12.804,10.4133333 12.0743333,12.3163333 10.615,13.761 C9.15566667,15.2056667 7.22333333,15.928 4.818,15.928 L-1.13686838e-13,15.928 Z M2.024,2.112 L2.024,13.992 L4.818,13.992 C6.65133333,13.992 8.096,13.4676667 9.152,12.419 C10.208,11.3703333 10.736,9.91466667 10.736,8.052 C10.736,6.204 10.208,4.752 9.152,3.696 C8.096,2.64 6.65133333,2.112 4.818,2.112 L2.024,2.112 Z" id="Shape"></path>
                        <path d="M13.904,10.538 C13.904,8.88066667 14.4246667,7.50933333 15.466,6.424 C16.522,5.33866667 17.8493333,4.796 19.448,4.796 C21.0466667,4.796 22.3666667,5.33866667 23.408,6.424 C24.464,7.50933333 24.992,8.88066667 24.992,10.538 C24.992,12.21 24.464,13.5813333 23.408,14.652 C22.3666667,15.7373333 21.0466667,16.28 19.448,16.28 C17.8493333,16.28 16.522,15.7373333 15.466,14.652 C14.4246667,13.5666667 13.904,12.1953333 13.904,10.538 Z M15.928,10.538 C15.928,11.6966667 16.2653333,12.6353333 16.94,13.354 C17.6146667,14.0726667 18.4506667,14.432 19.448,14.432 C20.4453333,14.432 21.2813333,14.0726667 21.956,13.354 C22.6306667,12.6353333 22.968,11.6966667 22.968,10.538 C22.968,9.394 22.6306667,8.46266667 21.956,7.744 C21.2666667,7.01066667 20.4306667,6.644 19.448,6.644 C18.4653333,6.644 17.6293333,7.01066667 16.94,7.744 C16.2653333,8.46266667 15.928,9.394 15.928,10.538 Z" id="Shape"></path>
                        <polygon id="Path" points="41.888 5.148 38.412 15.928 36.344 15.928 33.66 7.656 30.998 15.928 28.952 15.928 25.476 5.148 27.588 5.148 29.986 13.288 30.008 13.288 32.67 5.148 34.76 5.148 37.422 13.288 37.444 13.288 39.82 5.148"></polygon>
                        <path d="M43.208,5.148 L45.144,5.148 L45.144,6.644 L45.232,6.644 C45.54,6.116 46.013,5.676 46.651,5.324 C47.289,4.972 47.9526667,4.796 48.642,4.796 C49.962,4.796 50.9776667,5.17366667 51.689,5.929 C52.4003333,6.68433333 52.756,7.75866667 52.756,9.152 L52.756,15.928 L50.732,15.928 L50.732,9.284 C50.688,7.524 49.8006667,6.644 48.07,6.644 C47.2633333,6.644 46.5886667,6.97033333 46.046,7.623 C45.5033333,8.27566667 45.232,9.05666667 45.232,9.966 L45.232,15.928 L43.208,15.928 L43.208,5.148 Z" id="Path"></path>
                        <polygon id="Path" points="57.156 0.176 57.156 15.928 55.132 15.928 55.132 0.176"></polygon>
                        <path d="M58.894,10.538 C58.894,8.88066667 59.4146667,7.50933333 60.456,6.424 C61.512,5.33866667 62.8393333,4.796 64.438,4.796 C66.0366667,4.796 67.3566667,5.33866667 68.398,6.424 C69.454,7.50933333 69.982,8.88066667 69.982,10.538 C69.982,12.21 69.454,13.5813333 68.398,14.652 C67.3566667,15.7373333 66.0366667,16.28 64.438,16.28 C62.8393333,16.28 61.512,15.7373333 60.456,14.652 C59.4146667,13.5666667 58.894,12.1953333 58.894,10.538 Z M60.918,10.538 C60.918,11.6966667 61.2553333,12.6353333 61.93,13.354 C62.6046667,14.0726667 63.4406667,14.432 64.438,14.432 C65.4353333,14.432 66.2713333,14.0726667 66.946,13.354 C67.6206667,12.6353333 67.958,11.6966667 67.958,10.538 C67.958,9.394 67.6206667,8.46266667 66.946,7.744 C66.2566667,7.01066667 65.4206667,6.644 64.438,6.644 C63.4553333,6.644 62.6193333,7.01066667 61.93,7.744 C61.2553333,8.46266667 60.918,9.394 60.918,10.538 Z" id="Shape"></path>
                        <path d="M73.304,12.628 C73.304,13.156 73.5276667,13.596 73.975,13.948 C74.4223333,14.3 74.9466667,14.476 75.548,14.476 C76.3986667,14.476 77.1576667,14.1606667 77.825,13.53 C78.4923333,12.8993333 78.826,12.1586667 78.826,11.308 C78.1953333,10.8093333 77.3153333,10.56 76.186,10.56 C75.3646667,10.56 74.679,10.758 74.129,11.154 C73.579,11.55 73.304,12.0413333 73.304,12.628 Z M75.922,4.796 C77.418,4.796 78.5986667,5.19566667 79.464,5.995 C80.3293333,6.79433333 80.762,7.89066667 80.762,9.284 L80.762,15.928 L78.826,15.928 L78.826,14.432 L78.738,14.432 C77.902,15.664 76.7873333,16.28 75.394,16.28 C74.206,16.28 73.2123333,15.928 72.413,15.224 C71.6136667,14.52 71.214,13.64 71.214,12.584 C71.214,11.4693333 71.6356667,10.582 72.479,9.922 C73.3223333,9.262 74.448,8.932 75.856,8.932 C77.0586667,8.932 78.0486667,9.152 78.826,9.592 L78.826,9.13 C78.826,8.426 78.5473333,7.82833333 77.99,7.337 C77.4326667,6.84566667 76.78,6.6 76.032,6.6 C74.9026667,6.6 74.008,7.07666667 73.348,8.03 L71.566,6.908 C72.5486667,5.5 74.0006667,4.796 75.922,4.796 Z" id="Shape"></path>
                        <path d="M87.78,14.432 C88.7773333,14.432 89.5913333,14.0726667 90.222,13.354 C90.882,12.6353333 91.212,11.6966667 91.212,10.538 C91.212,9.40866667 90.882,8.47733333 90.222,7.744 C89.5766667,7.01066667 88.7626667,6.644 87.78,6.644 C86.812,6.644 85.998,7.01066667 85.338,7.744 C84.678,8.47733333 84.348,9.40866667 84.348,10.538 C84.348,11.682 84.678,12.6133333 85.338,13.332 C85.998,14.0653333 86.812,14.432 87.78,14.432 Z M87.45,16.28 C86.042,16.28 84.832,15.7226667 83.82,14.608 C82.8226667,13.4786667 82.324,12.122 82.324,10.538 C82.324,8.954 82.8226667,7.59733333 83.82,6.468 C84.832,5.35333333 86.042,4.796 87.45,4.796 C88.242,4.796 88.9643333,4.96466667 89.617,5.302 C90.2696667,5.63933333 90.772,6.08666667 91.124,6.644 L91.212,6.644 L91.124,5.148 L91.124,0.176 L93.148,0.176 L93.148,15.928 L91.212,15.928 L91.212,14.432 L91.124,14.432 C90.772,14.9893333 90.2696667,15.4366667 89.617,15.774 C88.9643333,16.1113333 88.242,16.28 87.45,16.28 Z" id="Shape"></path>
                        <path d="M104.984,0 C105.717333,0 106.318667,0.124666667 106.788,0.374 L106.238,2.156 C105.886,1.98 105.49,1.892 105.05,1.892 C104.551333,1.892 104.144333,2.06433333 103.829,2.409 C103.513667,2.75366667 103.356,3.212 103.356,3.784 L103.356,5.148 L106.172,5.148 L106.172,6.996 L103.356,6.996 L103.356,15.928 L101.332,15.928 L101.332,6.996 L99.308,6.996 L99.308,5.148 L101.332,5.148 L101.332,3.586 C101.332,2.51533333 101.673,1.65 102.355,0.99 C103.037,0.33 103.913333,0 104.984,0 Z" id="Path"></path>
                        <path d="M106.832,10.538 C106.832,8.88066667 107.352667,7.50933333 108.394,6.424 C109.45,5.33866667 110.777333,4.796 112.376,4.796 C113.974667,4.796 115.294667,5.33866667 116.336,6.424 C117.392,7.50933333 117.92,8.88066667 117.92,10.538 C117.92,12.21 117.392,13.5813333 116.336,14.652 C115.294667,15.7373333 113.974667,16.28 112.376,16.28 C110.777333,16.28 109.45,15.7373333 108.394,14.652 C107.352667,13.5666667 106.832,12.1953333 106.832,10.538 Z M108.856,10.538 C108.856,11.6966667 109.193333,12.6353333 109.868,13.354 C110.542667,14.0726667 111.378667,14.432 112.376,14.432 C113.373333,14.432 114.209333,14.0726667 114.884,13.354 C115.558667,12.6353333 115.896,11.6966667 115.896,10.538 C115.896,9.394 115.558667,8.46266667 114.884,7.744 C114.194667,7.01066667 113.358667,6.644 112.376,6.644 C111.393333,6.644 110.557333,7.01066667 109.868,7.744 C109.193333,8.46266667 108.856,9.394 108.856,10.538 Z" id="Shape"></path>
                        <path d="M121.572,15.928 L119.548,15.928 L119.548,5.148 L121.484,5.148 L121.484,6.908 L121.572,6.908 C121.777333,6.336 122.199,5.84833333 122.837,5.445 C123.475,5.04166667 124.102,4.84 124.718,4.84 C125.304667,4.84 125.803333,4.928 126.214,5.104 L125.598,7.062 C125.348667,6.95933333 124.952667,6.908 124.41,6.908 C123.647333,6.908 122.983667,7.216 122.419,7.832 C121.854333,8.448 121.572,9.16666667 121.572,9.988 L121.572,15.928 Z" id="Path"></path>
                    </g>
                </g>
            </g>
        </g>
    </g>
</svg>