<?xml version="1.0" encoding="UTF-8"?>
<svg viewBox="0 0 298 87" version="1.1" xmlns="http://www.w3.org/2000/svg" xmlns:xlink="http://www.w3.org/1999/xlink">
    <title>edge_download_dark</title>
    <defs>
        <linearGradient x1="0%" y1="50.0129955%" x2="100.026361%" y2="50.0129955%" id="linearGradient-1">
            <stop stop-color="#0C59A4" offset="0%"></stop>
            <stop stop-color="#114A8B" offset="100%"></stop>
        </linearGradient>
        <radialGradient cx="55.2461398%" cy="50.9265757%" fx="55.2461398%" fy="50.9265757%" r="61.9753086%" gradientTransform="translate(0.552461,0.509266),scale(0.863186,1.000000),translate(-0.552461,-0.509266)" id="radialGradient-2">
            <stop stop-color="#000000" stop-opacity="0" offset="0%"></stop>
            <stop stop-color="#000000" stop-opacity="0" offset="72%"></stop>
            <stop stop-color="#000000" stop-opacity="0.19" offset="95%"></stop>
            <stop stop-color="#000000" stop-opacity="0.35" offset="100%"></stop>
        </radialGradient>
        <linearGradient x1="76.6751661%" y1="24.8027455%" x2="33.2265508%" y2="83.1794111%" id="linearGradient-3">
            <stop stop-color="#1B9DE2" offset="0%"></stop>
            <stop stop-color="#1595DF" offset="16%"></stop>
            <stop stop-color="#0680D7" offset="67%"></stop>
            <stop stop-color="#0078D4" offset="100%"></stop>
        </linearGradient>
        <radialGradient cx="41.8348452%" cy="72.5885666%" fx="41.8348452%" fy="72.5885666%" r="85.1219962%" gradientTransform="translate(0.418348,0.725886),scale(1.000000,0.810697),rotate(-81.384376),translate(-0.418348,-0.725886)" id="radialGradient-4">
            <stop stop-color="#000000" stop-opacity="0" offset="0%"></stop>
            <stop stop-color="#000000" stop-opacity="0" offset="76%"></stop>
            <stop stop-color="#000000" stop-opacity="0.2" offset="95%"></stop>
            <stop stop-color="#000000" stop-opacity="0.41" offset="100%"></stop>
        </radialGradient>
        <radialGradient cx="10.1019077%" cy="27.7890034%" fx="10.1019077%" fy="27.7890034%" r="118.830871%" gradientTransform="translate(0.101019,0.277890),scale(0.665925,1.000000),rotate(92.290610),translate(-0.101019,-0.277890)" id="radialGradient-5">
            <stop stop-color="#35C1F1" offset="0%"></stop>
            <stop stop-color="#34C1ED" offset="11%"></stop>
            <stop stop-color="#2FC2DF" offset="23%"></stop>
            <stop stop-color="#2BC3D2" offset="31%"></stop>
            <stop stop-color="#36C752" offset="67%"></stop>
            <stop stop-color="#36C752" offset="100%"></stop>
        </radialGradient>
        <radialGradient cx="93.7722645%" cy="45.4027789%" fx="93.7722645%" fy="45.4027789%" r="57.0950674%" gradientTransform="translate(0.937723,0.454028),scale(0.665925,1.000000),rotate(73.739795),translate(-0.937723,-0.454028)" id="radialGradient-6">
            <stop stop-color="#66EB6E" offset="0%"></stop>
            <stop stop-color="#66EB6E" stop-opacity="0" offset="100%"></stop>
        </radialGradient>
    </defs>
    <g id="Page-1" stroke="none" stroke-width="1" fill="none" fill-rule="evenodd">
        <g id="edge_download_dark">
            <g id="Edge" fill="#031E36" stroke="#162C40">
                <rect id="Rectangle" x="0.5" y="0.5" width="297" height="86" rx="20"></rect>
            </g>
            <g id="Group-8" transform="translate(96.733398, 19.976562)" fill="#FFFFFF" fill-rule="nonzero">
                <g id="Download-for" transform="translate(0.469727, 0.000000)">
                    <path d="M0,18.0234375 L0,1.21875 L4.640625,1.21875 C10.5625,1.21875 13.5234375,3.94921875 13.5234375,9.41015625 C13.5234375,12.0039062 12.7011719,14.0878906 11.0566406,15.6621094 C9.41210938,17.2363281 7.2109375,18.0234375 4.453125,18.0234375 L0,18.0234375 Z M1.96875,3 L1.96875,16.2421875 L4.4765625,16.2421875 C6.6796875,16.2421875 8.39453125,15.6523438 9.62109375,14.4726562 C10.8476562,13.2929688 11.4609375,11.6210938 11.4609375,9.45703125 C11.4609375,5.15234375 9.171875,3 4.59375,3 L1.96875,3 Z" id="Shape"></path>
                    <path d="M21.5859375,18.3046875 C19.8125,18.3046875 18.3964844,17.7441406 17.3378906,16.6230469 C16.2792969,15.5019531 15.75,14.015625 15.75,12.1640625 C15.75,10.1484375 16.3007812,8.57421875 17.4023438,7.44140625 C18.5039062,6.30859375 19.9921875,5.7421875 21.8671875,5.7421875 C23.65625,5.7421875 25.0527344,6.29296875 26.0566406,7.39453125 C27.0605469,8.49609375 27.5625,10.0234375 27.5625,11.9765625 C27.5625,13.890625 27.0214844,15.4238281 25.9394531,16.5761719 C24.8574219,17.7285156 23.40625,18.3046875 21.5859375,18.3046875 Z M21.7265625,7.359375 C20.4921875,7.359375 19.515625,7.77929688 18.796875,8.61914062 C18.078125,9.45898438 17.71875,10.6171875 17.71875,12.09375 C17.71875,13.515625 18.0820312,14.6367188 18.8085938,15.4570312 C19.5351562,16.2773438 20.5078125,16.6875 21.7265625,16.6875 C22.96875,16.6875 23.9238281,16.2851562 24.5917969,15.4804688 C25.2597656,14.6757812 25.59375,13.53125 25.59375,12.046875 C25.59375,10.546875 25.2597656,9.390625 24.5917969,8.578125 C23.9238281,7.765625 22.96875,7.359375 21.7265625,7.359375 Z" id="Shape"></path>
                    <path d="M45.75,6.0234375 L42.1523438,18.0234375 L40.1601562,18.0234375 L37.6875,9.43359375 C37.59375,9.10546875 37.53125,8.734375 37.5,8.3203125 L37.453125,8.3203125 C37.4296875,8.6015625 37.3476562,8.96484375 37.2070312,9.41015625 L34.5234375,18.0234375 L32.6015625,18.0234375 L28.96875,6.0234375 L30.984375,6.0234375 L33.46875,15.046875 C33.546875,15.3203125 33.6015625,15.6796875 33.6328125,16.125 L33.7265625,16.125 C33.75,15.78125 33.8203125,15.4140625 33.9375,15.0234375 L36.703125,6.0234375 L38.4609375,6.0234375 L40.9453125,15.0703125 C41.0234375,15.359375 41.0820312,15.71875 41.1210938,16.1484375 L41.2148438,16.1484375 C41.2304688,15.84375 41.296875,15.484375 41.4140625,15.0703125 L43.8515625,6.0234375 L45.75,6.0234375 Z" id="Path"></path>
                    <path d="M57.9375,18.0234375 L56.015625,18.0234375 L56.015625,11.1796875 C56.015625,8.6328125 55.0859375,7.359375 53.2265625,7.359375 C52.265625,7.359375 51.4707031,7.72070312 50.8417969,8.44335938 C50.2128906,9.16601562 49.8984375,10.078125 49.8984375,11.1796875 L49.8984375,18.0234375 L47.9765625,18.0234375 L47.9765625,6.0234375 L49.8984375,6.0234375 L49.8984375,8.015625 L49.9453125,8.015625 C50.8515625,6.5 52.1640625,5.7421875 53.8828125,5.7421875 C55.1953125,5.7421875 56.1992188,6.16601562 56.8945312,7.01367188 C57.5898438,7.86132812 57.9375,9.0859375 57.9375,10.6875 L57.9375,18.0234375 Z" id="Path"></path>
                    <polygon id="Path" points="63.4804688 18.0234375 61.5585938 18.0234375 61.5585938 0.2578125 63.4804688 0.2578125"></polygon>
                    <path d="M72.3867188,18.3046875 C70.6132812,18.3046875 69.1972656,17.7441406 68.1386719,16.6230469 C67.0800781,15.5019531 66.5507812,14.015625 66.5507812,12.1640625 C66.5507812,10.1484375 67.1015625,8.57421875 68.203125,7.44140625 C69.3046875,6.30859375 70.7929688,5.7421875 72.6679688,5.7421875 C74.4570312,5.7421875 75.8535156,6.29296875 76.8574219,7.39453125 C77.8613281,8.49609375 78.3632812,10.0234375 78.3632812,11.9765625 C78.3632812,13.890625 77.8222656,15.4238281 76.7402344,16.5761719 C75.6582031,17.7285156 74.2070312,18.3046875 72.3867188,18.3046875 Z M72.5273438,7.359375 C71.2929688,7.359375 70.3164062,7.77929688 69.5976562,8.61914062 C68.8789062,9.45898438 68.5195312,10.6171875 68.5195312,12.09375 C68.5195312,13.515625 68.8828125,14.6367188 69.609375,15.4570312 C70.3359375,16.2773438 71.3085938,16.6875 72.5273438,16.6875 C73.7695312,16.6875 74.7246094,16.2851562 75.3925781,15.4804688 C76.0605469,14.6757812 76.3945312,13.53125 76.3945312,12.046875 C76.3945312,10.546875 76.0605469,9.390625 75.3925781,8.578125 C74.7246094,7.765625 73.7695312,7.359375 72.5273438,7.359375 Z" id="Shape"></path>
                    <path d="M89.7070312,18.0234375 L87.7851562,18.0234375 L87.7851562,16.1484375 L87.7382812,16.1484375 C86.9023438,17.5859375 85.671875,18.3046875 84.046875,18.3046875 C82.8515625,18.3046875 81.9160156,17.9882812 81.2402344,17.3554688 C80.5644531,16.7226562 80.2265625,15.8828125 80.2265625,14.8359375 C80.2265625,12.59375 81.546875,11.2890625 84.1875,10.921875 L87.7851562,10.4179688 C87.7851562,8.37890625 86.9609375,7.359375 85.3125,7.359375 C83.8671875,7.359375 82.5625,7.8515625 81.3984375,8.8359375 L81.3984375,6.8671875 C82.578125,6.1171875 83.9375,5.7421875 85.4765625,5.7421875 C88.296875,5.7421875 89.7070312,7.234375 89.7070312,10.21875 L89.7070312,18.0234375 Z M87.7851562,11.953125 L84.890625,12.3515625 C84,12.4765625 83.328125,12.6972656 82.875,13.0136719 C82.421875,13.3300781 82.1953125,13.890625 82.1953125,14.6953125 C82.1953125,15.28125 82.4042969,15.7597656 82.8222656,16.1308594 C83.2402344,16.5019531 83.796875,16.6875 84.4921875,16.6875 C85.4453125,16.6875 86.2324219,16.3535156 86.8535156,15.6855469 C87.4746094,15.0175781 87.7851562,14.171875 87.7851562,13.1484375 L87.7851562,11.953125 Z" id="Shape"></path>
                    <path d="M103.570312,18.0234375 L101.648438,18.0234375 L101.648438,15.984375 L101.601562,15.984375 C100.710938,17.53125 99.3359375,18.3046875 97.4765625,18.3046875 C95.96875,18.3046875 94.7636719,17.7675781 93.8613281,16.6933594 C92.9589844,15.6191406 92.5078125,14.15625 92.5078125,12.3046875 C92.5078125,10.3203125 93.0078125,8.73046875 94.0078125,7.53515625 C95.0078125,6.33984375 96.3398438,5.7421875 98.0039062,5.7421875 C99.6523438,5.7421875 100.851562,6.390625 101.601562,7.6875 L101.648438,7.6875 L101.648438,0.2578125 L103.570312,0.2578125 L103.570312,18.0234375 Z M101.648438,12.5976562 L101.648438,10.828125 C101.648438,9.859375 101.328125,9.0390625 100.6875,8.3671875 C100.046875,7.6953125 99.234375,7.359375 98.25,7.359375 C97.078125,7.359375 96.15625,7.7890625 95.484375,8.6484375 C94.8125,9.5078125 94.4765625,10.6953125 94.4765625,12.2109375 C94.4765625,13.59375 94.7988281,14.6855469 95.4433594,15.4863281 C96.0878906,16.2871094 96.953125,16.6875 98.0390625,16.6875 C99.109375,16.6875 99.9785156,16.3007812 100.646484,15.5273438 C101.314453,14.7539062 101.648438,13.7773438 101.648438,12.5976562 Z" id="Shape"></path>
                    <path d="M119.964844,1.9453125 C119.589844,1.734375 119.164062,1.62890625 118.6875,1.62890625 C117.34375,1.62890625 116.671875,2.4765625 116.671875,4.171875 L116.671875,6.0234375 L119.484375,6.0234375 L119.484375,7.6640625 L116.671875,7.6640625 L116.671875,18.0234375 L114.761719,18.0234375 L114.761719,7.6640625 L112.710938,7.6640625 L112.710938,6.0234375 L114.761719,6.0234375 L114.761719,4.078125 C114.761719,2.8203125 115.125,1.82617188 115.851562,1.09570312 C116.578125,0.365234375 117.484375,0 118.570312,0 C119.15625,0 119.621094,0.0703125 119.964844,0.2109375 L119.964844,1.9453125 Z" id="Path"></path>
                    <path d="M126.5625,18.3046875 C124.789062,18.3046875 123.373047,17.7441406 122.314453,16.6230469 C121.255859,15.5019531 120.726562,14.015625 120.726562,12.1640625 C120.726562,10.1484375 121.277344,8.57421875 122.378906,7.44140625 C123.480469,6.30859375 124.96875,5.7421875 126.84375,5.7421875 C128.632812,5.7421875 130.029297,6.29296875 131.033203,7.39453125 C132.037109,8.49609375 132.539062,10.0234375 132.539062,11.9765625 C132.539062,13.890625 131.998047,15.4238281 130.916016,16.5761719 C129.833984,17.7285156 128.382812,18.3046875 126.5625,18.3046875 Z M126.703125,7.359375 C125.46875,7.359375 124.492188,7.77929688 123.773438,8.61914062 C123.054688,9.45898438 122.695312,10.6171875 122.695312,12.09375 C122.695312,13.515625 123.058594,14.6367188 123.785156,15.4570312 C124.511719,16.2773438 125.484375,16.6875 126.703125,16.6875 C127.945312,16.6875 128.900391,16.2851562 129.568359,15.4804688 C130.236328,14.6757812 130.570312,13.53125 130.570312,12.046875 C130.570312,10.546875 130.236328,9.390625 129.568359,8.578125 C128.900391,7.765625 127.945312,7.359375 126.703125,7.359375 Z" id="Shape"></path>
                    <path d="M141.867188,7.96875 C141.53125,7.7109375 141.046875,7.58203125 140.414062,7.58203125 C139.59375,7.58203125 138.908203,7.96875 138.357422,8.7421875 C137.806641,9.515625 137.53125,10.5703125 137.53125,11.90625 L137.53125,18.0234375 L135.609375,18.0234375 L135.609375,6.0234375 L137.53125,6.0234375 L137.53125,8.49609375 L137.578125,8.49609375 C137.851562,7.65234375 138.269531,6.99414062 138.832031,6.52148438 C139.394531,6.04882812 140.023438,5.8125 140.71875,5.8125 C141.21875,5.8125 141.601562,5.8671875 141.867188,5.9765625 L141.867188,7.96875 Z" id="Path"></path>
                </g>
                <g id="Microsoft-Edge" transform="translate(0.000000, 26.999023)">
                    <path d="M19.9462891,18.7988281 L16.0522461,18.7988281 L16.0522461,8.32519531 C16.0522461,7.19401042 16.1010742,5.94482422 16.1987305,4.57763672 L16.1010742,4.57763672 C15.8976237,5.65185547 15.7145182,6.42496745 15.5517578,6.89697266 L11.4501953,18.7988281 L8.22753906,18.7988281 L4.05273438,7.01904297 C3.93880208,6.70166016 3.75569661,5.88785807 3.50341797,4.57763672 L3.39355469,4.57763672 C3.49934896,6.30289714 3.55224609,7.81656901 3.55224609,9.11865234 L3.55224609,18.7988281 L0,18.7988281 L0,1.29394531 L5.77392578,1.29394531 L9.35058594,11.6699219 C9.63541667,12.5 9.8429362,13.3341471 9.97314453,14.1723633 L10.0463867,14.1723633 C10.2661133,13.2039388 10.4980469,12.3616536 10.7421875,11.6455078 L14.3188477,1.29394531 L19.9462891,1.29394531 L19.9462891,18.7988281 Z" id="Path"></path>
                    <path d="M25.5004883,4.32128906 C24.8494466,4.32128906 24.3164062,4.12801107 23.9013672,3.74145508 C23.4863281,3.35489909 23.2788086,2.88085938 23.2788086,2.31933594 C23.2788086,1.74153646 23.4863281,1.26953125 23.9013672,0.903320312 C24.3164062,0.537109375 24.8494466,0.354003906 25.5004883,0.354003906 C26.159668,0.354003906 26.6947428,0.537109375 27.1057129,0.903320312 C27.5166829,1.26953125 27.722168,1.74153646 27.722168,2.31933594 C27.722168,2.90527344 27.5166829,3.38541667 27.1057129,3.75976562 C26.6947428,4.13411458 26.159668,4.32128906 25.5004883,4.32128906 Z M27.4047852,18.7988281 L23.5473633,18.7988281 L23.5473633,6.29882812 L27.4047852,6.29882812 L27.4047852,18.7988281 Z" id="Shape"></path>
                    <path d="M40.1245117,18.347168 C39.2537435,18.8517253 37.9964193,19.1040039 36.3525391,19.1040039 C34.4319661,19.1040039 32.8776042,18.5221354 31.6894531,17.3583984 C30.5013021,16.1946615 29.9072266,14.6931966 29.9072266,12.8540039 C29.9072266,10.7299805 30.5440267,9.05558268 31.817627,7.83081055 C33.0912272,6.60603841 34.7941081,5.99365234 36.9262695,5.99365234 C38.3992513,5.99365234 39.465332,6.18896484 40.1245117,6.57958984 L40.1245117,9.85107422 C39.3188477,9.24886068 38.4195964,8.94775391 37.4267578,8.94775391 C36.319987,8.94775391 35.4431152,9.27124023 34.7961426,9.91821289 C34.1491699,10.5651855 33.8256836,11.4583333 33.8256836,12.5976562 C33.8256836,13.7044271 34.1349284,14.5731608 34.753418,15.2038574 C35.3719076,15.834554 36.2223307,16.1499023 37.3046875,16.1499023 C38.264974,16.1499023 39.2049154,15.8487956 40.1245117,15.246582 L40.1245117,18.347168 Z" id="Path"></path>
                    <path d="M50.8056641,9.77783203 C50.3417969,9.52555339 49.8006185,9.39941406 49.1821289,9.39941406 C48.3439128,9.39941406 47.6888021,9.70662435 47.2167969,10.3210449 C46.7447917,10.9354655 46.5087891,11.7716471 46.5087891,12.8295898 L46.5087891,18.7988281 L42.6513672,18.7988281 L42.6513672,6.29882812 L46.5087891,6.29882812 L46.5087891,8.61816406 L46.5576172,8.61816406 C47.1679688,6.92545573 48.2666016,6.07910156 49.8535156,6.07910156 C50.2604167,6.07910156 50.5777995,6.12792969 50.8056641,6.22558594 L50.8056641,9.77783203 Z" id="Path"></path>
                    <path d="M58.4594727,19.1040039 C56.3761393,19.1040039 54.7383626,18.5201009 53.5461426,17.3522949 C52.3539225,16.1844889 51.7578125,14.5996094 51.7578125,12.5976562 C51.7578125,10.530599 52.3763021,8.91316732 53.6132812,7.74536133 C54.8502604,6.57755534 56.5226237,5.99365234 58.6303711,5.99365234 C60.7055664,5.99365234 62.3331706,6.57755534 63.5131836,7.74536133 C64.6931966,8.91316732 65.2832031,10.4573568 65.2832031,12.3779297 C65.2832031,14.453125 64.6748861,16.0929362 63.458252,17.2973633 C62.2416178,18.5017904 60.5753581,19.1040039 58.4594727,19.1040039 Z M58.5571289,8.94775391 C57.6456706,8.94775391 56.9376628,9.26106771 56.4331055,9.88769531 C55.9285482,10.5143229 55.6762695,11.4013672 55.6762695,12.5488281 C55.6762695,14.9495443 56.644694,16.1499023 58.581543,16.1499023 C60.4288737,16.1499023 61.3525391,14.9169922 61.3525391,12.4511719 C61.3525391,10.1155599 60.4207357,8.94775391 58.5571289,8.94775391 Z" id="Shape"></path>
                    <path d="M66.9677734,18.4692383 L66.9677734,15.3442383 C67.6025391,15.7267253 68.2352702,16.011556 68.8659668,16.1987305 C69.4966634,16.3859049 70.0927734,16.4794922 70.6542969,16.4794922 C71.3378906,16.4794922 71.8770345,16.3859049 72.2717285,16.1987305 C72.6664225,16.011556 72.8637695,15.7267253 72.8637695,15.3442383 C72.8637695,15.1000977 72.7742513,14.8966471 72.5952148,14.7338867 C72.4161784,14.5711263 72.1862793,14.4287109 71.9055176,14.3066406 C71.6247559,14.1845703 71.3175456,14.074707 70.9838867,13.9770508 C70.6502279,13.8793945 70.328776,13.7695312 70.0195312,13.6474609 C69.523112,13.4602865 69.0856934,13.2588704 68.7072754,13.0432129 C68.3288574,12.8275553 68.0114746,12.5773112 67.755127,12.2924805 C67.4987793,12.0076497 67.3034668,11.6780599 67.1691895,11.3037109 C67.0349121,10.929362 66.9677734,10.4858398 66.9677734,9.97314453 C66.9677734,9.27327474 67.1203613,8.6710612 67.4255371,8.16650391 C67.7307129,7.66194661 68.1376139,7.24894206 68.6462402,6.92749023 C69.1548665,6.60603841 69.736735,6.37003581 70.3918457,6.21948242 C71.0469564,6.06892904 71.7285156,5.99365234 72.4365234,5.99365234 C72.9899089,5.99365234 73.5514323,6.03637695 74.1210938,6.12182617 C74.6907552,6.20727539 75.2522786,6.33138021 75.8056641,6.49414062 L75.8056641,9.47265625 C75.3173828,9.18782552 74.794515,8.97420247 74.2370605,8.83178711 C73.6796061,8.68937174 73.1323242,8.61816406 72.5952148,8.61816406 C72.3429362,8.61816406 72.1048991,8.64054362 71.8811035,8.68530273 C71.6573079,8.73006185 71.4599609,8.79516602 71.2890625,8.88061523 C71.1181641,8.96606445 70.9838867,9.07592773 70.8862305,9.21020508 C70.7885742,9.34448242 70.7397461,9.49707031 70.7397461,9.66796875 C70.7397461,9.89583333 70.8129883,10.0911458 70.9594727,10.2539062 C71.105957,10.4166667 71.2972005,10.5570475 71.5332031,10.6750488 C71.7692057,10.7930501 72.0316569,10.8988444 72.3205566,10.9924316 C72.6094564,11.0860189 72.8963216,11.1816406 73.1811523,11.2792969 C73.6938477,11.4583333 74.1577148,11.6536458 74.5727539,11.8652344 C74.987793,12.0768229 75.3438314,12.3250326 75.6408691,12.6098633 C75.9379069,12.894694 76.1657715,13.2283529 76.3244629,13.6108398 C76.4831543,13.9933268 76.5625,14.449056 76.5625,14.9780273 C76.5625,15.7185872 76.4017741,16.3513184 76.0803223,16.8762207 C75.7588704,17.401123 75.3316243,17.8283691 74.798584,18.157959 C74.2655436,18.4875488 73.651123,18.7276204 72.9553223,18.8781738 C72.2595215,19.0287272 71.5372721,19.1040039 70.7885742,19.1040039 C69.4132487,19.1040039 68.1396484,18.8924154 66.9677734,18.4692383 Z" id="Path"></path>
                    <path d="M84.7412109,19.1040039 C82.6578776,19.1040039 81.0201009,18.5201009 79.8278809,17.3522949 C78.6356608,16.1844889 78.0395508,14.5996094 78.0395508,12.5976562 C78.0395508,10.530599 78.6580404,8.91316732 79.8950195,7.74536133 C81.1319987,6.57755534 82.804362,5.99365234 84.9121094,5.99365234 C86.9873047,5.99365234 88.6149089,6.57755534 89.7949219,7.74536133 C90.9749349,8.91316732 91.5649414,10.4573568 91.5649414,12.3779297 C91.5649414,14.453125 90.9566243,16.0929362 89.7399902,17.2973633 C88.5233561,18.5017904 86.8570964,19.1040039 84.7412109,19.1040039 Z M84.8388672,8.94775391 C83.9274089,8.94775391 83.219401,9.26106771 82.7148438,9.88769531 C82.2102865,10.5143229 81.9580078,11.4013672 81.9580078,12.5488281 C81.9580078,14.9495443 82.9264323,16.1499023 84.8632812,16.1499023 C86.710612,16.1499023 87.6342773,14.9169922 87.6342773,12.4511719 C87.6342773,10.1155599 86.702474,8.94775391 84.8388672,8.94775391 Z" id="Shape"></path>
                    <path d="M101.843262,3.24707031 C101.346842,3.05175781 100.870768,2.95410156 100.415039,2.95410156 C99.1780599,2.95410156 98.5595703,3.62548828 98.5595703,4.96826172 L98.5595703,6.29882812 L101.416016,6.29882812 L101.416016,9.14306641 L98.5595703,9.14306641 L98.5595703,18.7988281 L94.7143555,18.7988281 L94.7143555,9.14306641 L92.6147461,9.14306641 L92.6147461,6.29882812 L94.7143555,6.29882812 L94.7143555,4.74853516 C94.7143555,3.32438151 95.1782227,2.17692057 96.105957,1.30615234 C97.0336914,0.435384115 98.2950846,0 99.8901367,0 C100.671387,0 101.322428,0.0813802083 101.843262,0.244140625 L101.843262,3.24707031 Z" id="Path"></path>
                    <path d="M111.303711,18.6523438 C110.734049,18.9534505 109.875488,19.1040039 108.728027,19.1040039 C106.009928,19.1040039 104.650879,17.6920573 104.650879,14.8681641 L104.650879,9.14306641 L102.624512,9.14306641 L102.624512,6.29882812 L104.650879,6.29882812 L104.650879,3.60107422 L108.496094,2.50244141 L108.496094,6.29882812 L111.303711,6.29882812 L111.303711,9.14306641 L108.496094,9.14306641 L108.496094,14.1967773 C108.496094,15.4988607 109.012858,16.1499023 110.046387,16.1499023 C110.453288,16.1499023 110.872396,16.031901 111.303711,15.7958984 L111.303711,18.6523438 Z" id="Path"></path>
                    <polygon id="Path" points="131.25 18.7988281 120.751953 18.7988281 120.751953 1.29394531 130.847168 1.29394531 130.847168 4.50439453 124.694824 4.50439453 124.694824 8.3984375 130.419922 8.3984375 130.419922 11.5966797 124.694824 11.5966797 124.694824 15.6005859 131.25 15.6005859"></polygon>
                    <path d="M145.910645,18.7988281 L142.053223,18.7988281 L142.053223,17.0776367 L142.004395,17.0776367 C141.125488,18.4285482 139.835612,19.1040039 138.134766,19.1040039 C136.572266,19.1040039 135.314941,18.552653 134.362793,17.4499512 C133.410645,16.3472493 132.93457,14.8071289 132.93457,12.8295898 C132.93457,10.7625326 133.459473,9.10644531 134.509277,7.86132812 C135.559082,6.61621094 136.934408,5.99365234 138.635254,5.99365234 C140.246582,5.99365234 141.369629,6.57145182 142.004395,7.72705078 L142.053223,7.72705078 L142.053223,0.29296875 L145.910645,0.29296875 L145.910645,18.7988281 Z M142.126465,12.7197266 L142.126465,11.7797852 C142.126465,10.9659831 141.890462,10.2905273 141.418457,9.75341797 C140.946452,9.21630859 140.332031,8.94775391 139.575195,8.94775391 C138.720703,8.94775391 138.053385,9.28344727 137.573242,9.95483398 C137.093099,10.6262207 136.853027,11.5478516 136.853027,12.7197266 C136.853027,13.8183594 137.084961,14.6647135 137.548828,15.2587891 C138.012695,15.8528646 138.655599,16.1499023 139.477539,16.1499023 C140.258789,16.1499023 140.895589,15.8365885 141.387939,15.2099609 C141.88029,14.5833333 142.126465,13.7532552 142.126465,12.7197266 Z" id="Shape"></path>
                    <path d="M161.413574,17.3706055 C161.413574,19.6899414 160.742188,21.4864095 159.399414,22.7600098 C158.056641,24.03361 156.111654,24.6704102 153.564453,24.6704102 C151.879883,24.6704102 150.545247,24.4303385 149.560547,23.9501953 L149.560547,20.703125 C150.846354,21.4518229 152.144368,21.8261719 153.45459,21.8261719 C154.756673,21.8261719 155.765788,21.4823405 156.481934,20.7946777 C157.198079,20.107015 157.556152,19.1731771 157.556152,17.9931641 L157.556152,17.0043945 L157.507324,17.0043945 C156.628418,18.4041341 155.330404,19.1040039 153.613281,19.1040039 C152.018229,19.1040039 150.752767,18.5424805 149.816895,17.4194336 C148.881022,16.2963867 148.413086,14.7908529 148.413086,12.902832 C148.413086,10.7869466 148.933919,9.10644531 149.975586,7.86132812 C151.017253,6.61621094 152.388509,5.99365234 154.089355,5.99365234 C155.611165,5.99365234 156.750488,6.57958984 157.507324,7.75146484 L157.556152,7.75146484 L157.556152,6.29882812 L161.413574,6.29882812 L161.413574,17.3706055 Z M157.60498,12.7929688 L157.60498,11.8041992 C157.60498,11.0148112 157.371012,10.34139 156.903076,9.78393555 C156.43514,9.22648112 155.826823,8.94775391 155.078125,8.94775391 C154.223633,8.94775391 153.552246,9.28141276 153.063965,9.94873047 C152.575684,10.6160482 152.331543,11.5559896 152.331543,12.7685547 C152.331543,13.8102214 152.563477,14.634196 153.027344,15.2404785 C153.491211,15.8467611 154.125977,16.1499023 154.931641,16.1499023 C155.729167,16.1499023 156.374105,15.8426921 156.866455,15.2282715 C157.358805,14.6138509 157.60498,13.8020833 157.60498,12.7929688 Z" id="Shape"></path>
                    <path d="M175.866699,13.6474609 L167.712402,13.6474609 C167.842611,15.4622396 168.986003,16.3696289 171.142578,16.3696289 C172.517904,16.3696289 173.7264,16.0441081 174.768066,15.3930664 L174.768066,18.1762695 C173.612467,18.7947591 172.111003,19.1040039 170.263672,19.1040039 C168.245443,19.1040039 166.678874,18.544515 165.563965,17.4255371 C164.449056,16.3065592 163.891602,14.7460938 163.891602,12.7441406 C163.891602,10.6689453 164.493815,9.0250651 165.698242,7.8125 C166.902669,6.5999349 168.383789,5.99365234 170.141602,5.99365234 C171.964518,5.99365234 173.37443,6.53483073 174.371338,7.6171875 C175.368245,8.69954427 175.866699,10.168457 175.866699,12.0239258 L175.866699,13.6474609 Z M172.290039,11.2792969 C172.290039,9.48893229 171.565755,8.59375 170.117188,8.59375 C169.498698,8.59375 168.963623,8.85009766 168.511963,9.36279297 C168.060303,9.87548828 167.785645,10.5143229 167.687988,11.2792969 L172.290039,11.2792969 Z" id="Shape"></path>
                </g>
            </g>
            <g id="edge-logo" transform="translate(25.000000, 17.000000)" fill-rule="nonzero">
                <g id="Group" transform="translate(12.156115, 20.718393)" fill="url(#linearGradient-1)">
                    <path d="M35.6796061,18.7268765 C34.9730526,19.0964042 34.2443481,19.422044 33.497633,19.7019327 C31.1210628,20.5912834 28.6033061,21.0442395 26.0656757,21.039271 C16.2695691,21.039271 7.73627432,14.300825 7.73627432,5.6536701 C7.76173757,3.29511047 9.06574591,1.12742173 11.1375852,0 C2.27720143,0.372632961 0,9.60564967 0,15.0150382 C0,30.309551 14.0958769,31.8601182 17.1328355,31.8601182 C18.7703503,31.8601182 21.2400788,31.3839761 22.7223299,30.9161147 L22.9935239,30.8250266 C28.6962573,28.8535913 33.5605666,24.9970471 36.7809435,19.8944598 C36.8651999,19.761761 36.9099159,19.6079464 36.9099159,19.4506125 C36.9099159,18.9964143 36.5360408,18.6225393 36.0818426,18.6225393 C35.9410702,18.6225393 35.8025749,18.6585605 35.6796061,18.7268765 Z" id="Path"></path>
                </g>
                <g id="Group" transform="translate(12.156115, 20.718393)" fill="url(#radialGradient-2)">
                    <path d="M35.6796061,18.7268765 C34.9730526,19.0964042 34.2443481,19.422044 33.497633,19.7019327 C31.1210628,20.5912834 28.6033061,21.0442395 26.0656757,21.039271 C16.2695691,21.039271 7.73627432,14.300825 7.73627432,5.6536701 C7.76173757,3.29511047 9.06574591,1.12742173 11.1375852,0 C2.27720143,0.372632961 0,9.60564967 0,15.0150382 C0,30.309551 14.0958769,31.8601182 17.1328355,31.8601182 C18.7703503,31.8601182 21.2400788,31.3839761 22.7223299,30.9161147 L22.9935239,30.8250266 C28.6962573,28.8535913 33.5605666,24.9970471 36.7809435,19.8944598 C36.8651999,19.761761 36.9099159,19.6079464 36.9099159,19.4506125 C36.9099159,18.9964143 36.5360408,18.6225393 36.0818426,18.6225393 C35.9410702,18.6225393 35.8025749,18.6585605 35.6796061,18.7268765 Z" id="Path"></path>
                </g>
                <g id="Group" transform="translate(0.021693, 9.965862)" fill="url(#linearGradient-3)">
                    <path d="M21.8663528,40.0124993 C20.0199564,38.8664459 18.4197049,37.3647351 17.1587564,35.5947285 C15.0711837,32.7347706 13.9458322,29.2837753 13.9458322,25.7429341 C13.9458322,19.387886 17.5711368,13.5607345 23.2720071,10.7525311 C23.9179042,10.4482142 25.0213118,9.89754549 26.4890717,9.92445787 C28.58389,9.93977723 30.5544973,10.9369844 31.8073721,12.6156959 C32.6433121,13.7317316 33.1043418,15.0843893 33.1240086,16.4786576 C33.1240086,16.4351838 38.1876765,0 16.5625436,0 C7.47443973,0 0.00107866859,8.62438287 0.00107866859,16.1909022 C-0.0347354994,20.1933942 0.821699257,24.1538615 2.50807043,27.7839276 C8.18534061,39.8971901 22.1903364,45.9075528 34.881594,41.6769266 C30.5182691,43.0525632 25.7638865,42.4468277 21.8849844,40.0207801 L21.8663528,40.0124993 Z" id="Path"></path>
                </g>
                <g id="Group" transform="translate(0.021693, 9.965862)" fill="url(#radialGradient-4)">
                    <path d="M21.8663528,40.0124993 C20.0199564,38.8664459 18.4197049,37.3647351 17.1587564,35.5947285 C15.0711837,32.7347706 13.9458322,29.2837753 13.9458322,25.7429341 C13.9458322,19.387886 17.5711368,13.5607345 23.2720071,10.7525311 C23.9179042,10.4482142 25.0213118,9.89754549 26.4890717,9.92445787 C28.58389,9.93977723 30.5544973,10.9369844 31.8073721,12.6156959 C32.6433121,13.7317316 33.1043418,15.0843893 33.1240086,16.4786576 C33.1240086,16.4351838 38.1876765,0 16.5625436,0 C7.47443973,0 0.00107866859,8.62438287 0.00107866859,16.1909022 C-0.0347354994,20.1933942 0.821699257,24.1538615 2.50807043,27.7839276 C8.18534061,39.8971901 22.1903364,45.9075528 34.881594,41.6769266 C30.5182691,43.0525632 25.7638865,42.4468277 21.8849844,40.0207801 L21.8663528,40.0124993 Z" id="Path"></path>
                </g>
                <g id="Group" fill="url(#radialGradient-5)">
                    <path d="M31.5350995,30.8167459 C31.3674146,31.0341151 30.851939,31.3342917 30.851939,31.9884696 C30.851939,32.5287873 31.2038702,33.0484033 31.8290655,33.4852119 C34.8059888,35.5553951 40.4182552,35.2821309 40.4327465,35.2821309 C42.6383196,35.2767484 44.802696,34.6797076 46.6991908,33.553528 C50.5876158,31.2831582 52.9894422,27.1090479 52.998758,22.6063997 C53.0525828,17.9671193 51.3426115,14.8825464 50.6511704,13.5162256 C46.2644523,4.93531656 36.7954348,-3.67738394e-16 26.4983439,-3.67738394e-16 C12.1014624,-0.00144912818 0.202463909,11.7302786 1.0076032e-15,26.125711 C0.0993687897,18.5612618 7.61827388,12.4521515 16.561465,12.4521515 C17.286029,12.4521515 21.4181145,12.5225377 25.2562341,14.5368259 C28.6389133,16.313043 30.41099,18.4577527 31.642749,20.5838308 C32.9221221,22.7927161 33.1498423,25.583323 33.1498423,26.6950113 C33.1498423,27.8066997 32.5826121,29.4545654 31.5350995,30.8167459 Z" id="Path"></path>
                </g>
                <g id="Group" fill="url(#radialGradient-6)">
                    <path d="M31.5350995,30.8167459 C31.3674146,31.0341151 30.851939,31.3342917 30.851939,31.9884696 C30.851939,32.5287873 31.2038702,33.0484033 31.8290655,33.4852119 C34.8059888,35.5553951 40.4182552,35.2821309 40.4327465,35.2821309 C42.6383196,35.2767484 44.802696,34.6797076 46.6991908,33.553528 C50.5876158,31.2831582 52.9894422,27.1090479 52.998758,22.6063997 C53.0525828,17.9671193 51.3426115,14.8825464 50.6511704,13.5162256 C46.2644523,4.93531656 36.7954348,-3.67738394e-16 26.4983439,-3.67738394e-16 C12.1014624,-0.00144912818 0.202463909,11.7302786 1.0076032e-15,26.125711 C0.0993687897,18.5612618 7.61827388,12.4521515 16.561465,12.4521515 C17.286029,12.4521515 21.4181145,12.5225377 25.2562341,14.5368259 C28.6389133,16.313043 30.41099,18.4577527 31.642749,20.5838308 C32.9221221,22.7927161 33.1498423,25.583323 33.1498423,26.6950113 C33.1498423,27.8066997 32.5826121,29.4545654 31.5350995,30.8167459 Z" id="Path"></path>
                </g>
            </g>
        </g>
    </g>
</svg>