<svg viewBox="0 0 298 87" xmlns="http://www.w3.org/2000/svg" xmlns:xlink="http://www.w3.org/1999/xlink"><linearGradient id="a" x1="0%" x2="100.026361%" y1="50.012996%" y2="50.012996%"><stop offset="0" stop-color="#0c59a4"/><stop offset="1" stop-color="#114a8b"/></linearGradient><radialGradient id="b" cx="55.24614%" cy="50.926576%" gradientTransform="matrix(.863186 0 0 1 .075584 0)" r="61.975309%"><stop offset="0" stop-opacity="0"/><stop offset=".72" stop-opacity="0"/><stop offset=".95" stop-opacity=".19"/><stop offset="1" stop-opacity=".35"/></radialGradient><linearGradient id="c" x1="76.675166%" x2="33.226551%" y1="24.802746%" y2="83.179411%"><stop offset="0" stop-color="#1b9de2"/><stop offset=".16" stop-color="#1595df"/><stop offset=".67" stop-color="#0680d7"/><stop offset="1" stop-color="#0078d4"/></linearGradient><radialGradient id="d" cx="41.834845%" cy="72.588567%" gradientTransform="matrix(.14980496 -.80154874 .98871557 .12144643 -.362017 .973056)" r="85.121996%"><stop offset="0" stop-opacity="0"/><stop offset=".76" stop-opacity="0"/><stop offset=".95" stop-opacity=".2"/><stop offset="1" stop-opacity=".41"/></radialGradient><radialGradient id="e" cx="10.101908%" cy="27.789003%" gradientTransform="matrix(-.02661572 .99920096 -.6653929 -.03996804 .288614 .188058)" r="118.830871%"><stop offset="0" stop-color="#35c1f1"/><stop offset=".11" stop-color="#34c1ed"/><stop offset=".23" stop-color="#2fc2df"/><stop offset=".31" stop-color="#2bc3d2"/><stop offset=".67" stop-color="#36c752"/><stop offset="1" stop-color="#36c752"/></radialGradient><radialGradient id="f" cx="93.772265%" cy="45.402779%" gradientTransform="matrix(.186459 .96 -.639288 .28 1.053131 -.573314)" r="57.095067%"><stop offset="0" stop-color="#66eb6e"/><stop offset="1" stop-color="#66eb6e" stop-opacity="0"/></radialGradient><g fill="none" fill-rule="evenodd"><rect fill="#031e36" height="86" rx="20" stroke="#162c40" width="297" x=".5" y=".5"/><g fill-rule="nonzero"><g fill="#fff"><g transform="translate(95 19)"><path d="m15.5761719 18.7744141h-2.2705078l-1.8554688-4.9072266h-7.42187499l-1.74560547 4.9072266h-2.28271484l6.71386719-17.50488285h2.12402343zm-4.7973633-6.7504883-2.74658204-7.45849611c-.08951823-.24414063-.17903646-.63476563-.26855468-1.171875h-.04882813c-.08138021.49641927-.17496745.88704427-.28076172 1.171875l-2.72216797 7.45849611z"/><path d="m27.1850586 6.27441406-4.9804688 12.50000004h-1.965332l-4.7363281-12.50000004h2.1972656l3.1738281 9.08203124c.2360026.6673177.382487 1.2491862.4394532 1.7456055h.0488281c.0813802-.6266276.2115885-1.1922201.390625-1.6967774l3.3203125-9.13085934z"/><path d="m37.8295898 18.7744141h-2.0019531v-1.953125h-.0488281c-.8707682 1.4973958-2.1525065 2.2460937-3.8452148 2.2460937-1.2451172 0-2.2196452-.3295898-2.923584-.9887695s-1.0559082-1.5340169-1.0559082-2.6245117c0-2.335612 1.3753255-3.6946615 4.1259765-4.0771485l3.7475586-.5249023c0-2.12402346-.8585612-3.18603518-2.5756836-3.18603518-1.5055338 0-2.8645833.51269532-4.0771484 1.53808594v-2.05078125c1.2288411-.78125 2.6448568-1.171875 4.2480469-1.171875 2.9378255 0 4.4067382 1.55436198 4.4067382 4.66308589zm-2.0019531-6.3232422-3.0151367.415039c-.9277344.1302084-1.6276042.3601075-2.0996094.6896973s-.7080078.9134928-.7080078 1.751709c0 .6103516.2176921 1.1088053.6530762 1.4953613s1.0152181.579834 1.7395019.579834c.9928386 0 1.8127442-.3479004 2.4597168-1.0437012.6469727-.6958008.970459-1.5767415.970459-2.6428222z"/><path d="m42.6269531 3.10058594c-.3580729 0-.6632487-.12207032-.9155273-.36621094-.2522787-.24414062-.378418-.55338542-.378418-.92773438 0-.37434895.1261393-.68562825.378418-.93383789.2522786-.24820963.5574544-.37231445.9155273-.37231445.366211 0 .6774903.12410482.9338379.37231445.2563477.24820964.3845215.55948894.3845215.93383789 0 .35807292-.1281738.6632487-.3845215.91552735-.2563476.25227864-.5676269.37841797-.9338379.37841797zm.9765625 15.67382816h-2.0019531v-12.50000004h2.0019531z"/><path d="m49.6582031 18.7744141h-2.0019531v-18.50585941h2.0019531z"/><path d="m62.6586914 18.7744141h-2.0019531v-1.953125h-.0488281c-.8707683 1.4973958-2.1525066 2.2460937-3.8452149 2.2460937-1.2451172 0-2.2196452-.3295898-2.923584-.9887695s-1.0559082-1.5340169-1.0559082-2.6245117c0-2.335612 1.3753255-3.6946615 4.1259766-4.0771485l3.7475586-.5249023c0-2.12402346-.8585612-3.18603518-2.5756836-3.18603518-1.5055339 0-2.8645833.51269532-4.0771485 1.53808594v-2.05078125c1.2288412-.78125 2.6448568-1.171875 4.2480469-1.171875 2.9378255 0 4.4067383 1.55436198 4.4067383 4.66308589zm-2.0019531-6.3232422-3.0151367.415039c-.9277344.1302084-1.6276042.3601075-2.0996094.6896973s-.7080078.9134928-.7080078 1.751709c0 .6103516.217692 1.1088053.6530761 1.4953613.4353842.386556 1.0152181.579834 1.739502.579834.9928385 0 1.8127441-.3479004 2.4597168-1.0437012s.970459-1.5767415.970459-2.6428222z"/><path d="m68.4814453 16.9677734h-.0488281v1.8066407h-2.0019531v-18.50585941h2.0019531v8.203125h.0488281c.9847005-1.66015625 2.4251302-2.49023438 4.3212891-2.49023438 1.6031901 0 2.8584798.55948893 3.7658691 1.6784668.9073893 1.11897786 1.361084 2.61840819 1.361084 4.49829099 0 2.0914714-.5086263 3.7658692-1.5258789 5.0231934s-2.4088542 1.8859863-4.1748047 1.8859863c-1.6520182 0-2.9012044-.6998698-3.7475586-2.0996094zm-.0488281-5.0415039v1.7456055c0 1.0335286.3356933 1.9104004 1.0070801 2.6306152.6713867.7202149 1.5238444 1.0803223 2.557373 1.0803223 1.2125651 0 2.162679-.4638672 2.8503418-1.3916016.6876628-.9277343 1.0314941-2.2176106 1.0314941-3.8696289 0-1.3916015-.3214518-2.48209632-.9643554-3.27148434-.6429037-.78938802-1.5136719-1.18408204-2.6123047-1.18408204-1.163737 0-2.0996094.40486654-2.8076172 1.21459961-.7080078.80973308-1.0620117 1.82495117-1.0620117 3.04565427z"/><path d="m83.1298828 18.7744141h-2.0019531v-18.50585941h2.0019531z"/><path d="m97.2290039 13.0249023h-8.8256836c.0325521 1.3916016.4069011 2.4658204 1.1230469 3.2226563s1.7008463 1.1352539 2.9541016 1.1352539c1.4078776 0 2.7018229-.4638672 3.8818359-1.3916016v1.8798829c-1.0986328.797526-2.5512695 1.196289-4.3579102 1.196289-1.7659505 0-3.153483-.5676269-4.1625976-1.7028808-1.0091146-1.135254-1.5136719-2.7323405-1.5136719-4.7912598 0-1.944987.5513509-3.52986655 1.6540527-4.75463868 1.1027019-1.22477214 2.4719239-1.83715821 4.1076661-1.83715821 1.6357421 0 2.9012044.52897136 3.7963867 1.58691407.8951823 1.0579427 1.3427734 2.52685542 1.3427734 4.40673832zm-2.0507812-1.6967773c-.0081381-1.155599-.2868653-2.05485026-.8361817-2.69775391-.5493164-.64290364-1.3122558-.96435547-2.2888183-.96435547-.9440105 0-1.7456055.33772787-2.4047852 1.0131836s-1.0660807 1.55843098-1.2207031 2.64892578z"/><path d="m113.28125 2.02636719c-.390625-.21972657-.834147-.32958985-1.330566-.32958985-1.39974 0-2.09961.88297526-2.09961 2.64892578v1.92871094h2.929688v1.70898438h-2.929688v10.79101566h-1.989746v-10.79101566h-2.13623v-1.70898438h2.13623v-2.02636718c0-1.31022136.378418-2.34578451 1.135254-3.10668946s1.700846-1.14135742 2.832031-1.14135742c.610352 0 1.094564.07324219 1.452637.21972656z"/><path d="m120.153809 19.0673828c-1.847331 0-3.322347-.583903-4.425049-1.751709s-1.654053-2.7160644-1.654053-4.6447754c0-2.0996093.573731-3.73942054 1.721191-4.91943356 1.147461-1.18001302 2.697754-1.77001953 4.650879-1.77001953 1.863607 0 3.318278.57373047 4.364014 1.72119141s1.568604 2.73844398 1.568604 4.77294918c0 1.9938151-.563558 3.5909017-1.690674 4.7912598s-2.638754 1.8005371-4.534912 1.8005371zm.146484-11.40136718c-1.285807 0-2.30306.43741862-3.051758 1.31225586s-1.123047 2.08129882-1.123047 3.61938472c0 1.4811198.378418 2.6489258 1.135254 3.503418s1.77002 1.2817383 3.039551 1.2817383c1.293945 0 2.288818-.4191081 2.984619-1.2573242.695801-.8382162 1.043701-2.0304362 1.043701-3.5766602 0-1.5625-.3479-2.76692706-1.043701-3.61328122-.695801-.84635417-1.690674-1.26953126-2.984619-1.26953126z"/><path d="m136.096191 8.30078125c-.349934-.26855469-.854492-.40283203-1.513671-.40283203-.854493 0-1.568604.40283203-2.142334 1.20849609-.573731.80566407-.860596 1.90429689-.860596 3.29589849v6.3720703h-2.001953v-12.50000004h2.001953v2.5756836h.048828c.284831-.87890625.720215-1.56453451 1.306152-2.05688477.585938-.49235026 1.241048-.73852539 1.965332-.73852539.520834 0 .919597.05696615 1.196289.17089844z"/></g><g transform="translate(96.733398 46.975586)"><path d="m19.9462891 18.7988281h-3.894043v-10.47363279c0-1.13118489.0488281-2.38037109.1464844-3.74755859h-.0976563c-.2034505 1.07421875-.386556 1.84733073-.5493164 2.31933594l-4.1015625 11.90185544h-3.22265624l-4.17480468-11.77978513c-.1139323-.31738281-.29703777-1.1311849-.54931641-2.44140625h-.10986328c.10579427 1.72526042.1586914 3.23893229.1586914 4.54101562v9.68017576h-3.55224609v-17.50488279h5.77392578l3.57666016 10.37597659c.28483073.8300781.49235026 1.6642252.62255859 2.5024414h.07324217c.2197266-.9684245.4516602-1.8107097.6958008-2.5268555l3.5766602-10.35156249h5.6274414z"/><path d="m25.5004883 4.32128906c-.6510417 0-1.1840821-.19327799-1.5991211-.57983398-.4150391-.38655599-.6225586-.8605957-.6225586-1.42211914 0-.57779948.2075195-1.04980469.6225586-1.41601563.415039-.36621093.9480794-.5493164 1.5991211-.5493164.6591797 0 1.1942545.18310547 1.6052246.5493164.41097.36621094.6164551.83821615.6164551 1.41601563 0 .5859375-.2054851 1.06608073-.6164551 1.44042968-.4109701.37434896-.9460449.56152344-1.6052246.56152344zm1.9042969 14.47753904h-3.8574219v-12.49999998h3.8574219z"/><path d="m40.1245117 18.347168c-.8707682.5045573-2.1280924.7568359-3.7719726.7568359-1.920573 0-3.4749349-.5818685-4.663086-1.7456055-1.188151-1.1637369-1.7822265-2.6652018-1.7822265-4.5043945 0-2.1240234.6368001-3.79842122 1.9104004-5.02319335 1.2736002-1.22477214 2.9764811-1.83715821 5.1086425-1.83715821 1.4729818 0 2.5390625.1953125 3.1982422.5859375v3.27148438c-.805664-.60221354-1.7049153-.90332031-2.6977539-.90332031-1.1067708 0-1.9836426.32348632-2.6306152.97045898-.6469727.64697261-.970459 1.54012041-.970459 2.67944331 0 1.1067709.3092448 1.9755046.9277344 2.6062012s1.4689127.9460449 2.5512695.9460449c.9602865 0 1.9002279-.3011067 2.8198242-.9033203z"/><path d="m50.8056641 9.77783203c-.4638672-.25227864-1.0050456-.37841797-1.6235352-.37841797-.8382161 0-1.4933268.30721029-1.965332.92163084-.4720052.6144206-.7080078 1.4506022-.7080078 2.5085449v5.9692383h-3.8574219v-12.49999998h3.8574219v2.31933594h.0488281c.6103516-1.69270833 1.7089844-2.5390625 3.2958984-2.5390625.4069011 0 .7242839.04882813.9521485.14648438z"/><path d="m58.4594727 19.1040039c-2.0833334 0-3.7211101-.583903-4.9133301-1.751709-1.1922201-1.167806-1.7883301-2.7526855-1.7883301-4.7546387 0-2.0670572.6184896-3.68448888 1.8554687-4.85229487 1.2369792-1.16780599 2.9093425-1.75170899 5.0170899-1.75170899 2.0751953 0 3.7027995.583903 4.8828125 1.75170899s1.7700195 2.71199547 1.7700195 4.63256837c0 2.0751953-.608317 3.7150065-1.8249511 4.9194336-1.2166342 1.2044271-2.8828939 1.8066406-4.9987793 1.8066406zm.0976562-10.15624999c-.9114583 0-1.6194661.3133138-2.1240234.9399414-.5045573.62662759-.756836 1.51367189-.756836 2.66113279 0 2.4007162.9684245 3.6010742 2.9052735 3.6010742 1.8473307 0 2.7709961-1.2329101 2.7709961-3.6987304 0-2.335612-.9318034-3.50341799-2.7954102-3.50341799z"/><path d="m66.9677734 18.4692383v-3.125c.6347657.382487 1.2674968.6673177 1.8981934.8544922.6306966.1871744 1.2268066.2807617 1.7883301.2807617.6835937 0 1.2227376-.0935873 1.6174316-.2807617.394694-.1871745.592041-.4720052.592041-.8544922 0-.2441406-.0895182-.4475912-.2685547-.6103516-.1790364-.1627604-.4089355-.3051758-.6896972-.4272461s-.587972-.2319336-.9216309-.3295898c-.3336588-.0976563-.6551107-.2075196-.9643555-.3295899-.4964192-.1871744-.9338378-.3885905-1.3122558-.604248-.378418-.2156576-.6958008-.4659017-.9521484-.7507324-.2563477-.2848308-.4516602-.6144206-.5859375-.9887696-.1342774-.3743489-.2014161-.8178711-.2014161-1.33056637 0-.69986979.1525879-1.30208333.4577637-1.80664062.3051758-.5045573.7120768-.91756185 1.2207031-1.23901368.5086263-.32145182 1.0904948-.55745442 1.7456055-.70800781.6551107-.15055338 1.3366699-.22583008 2.0446777-.22583008.5533855 0 1.1149089.04272461 1.6845704.12817383.5696614.08544922 1.1311848.20955404 1.6845703.37231445v2.97851563c-.4882813-.28483073-1.0111491-.49845378-1.5686036-.64086914-.5574544-.14241537-1.1047363-.21362305-1.6418457-.21362305-.2522786 0-.4903157.02237956-.7141113.06713867-.2237956.04475912-.4211426.10986329-.592041.1953125-.1708984.08544922-.3051758.1953125-.402832.32958985-.0976563.13427734-.1464844.28686523-.1464844.45776367 0 .22786458.0732422.42317705.2197266.58593745.1464843.1627605.3377278.3031413.5737304.4211426s.4984538.2237956.7873535.3173828c.2888998.0935873.575765.189209.8605957.2868653.5126954.1790364.9765625.3743489 1.3916016.5859375.4150391.2115885.7710775.4597982 1.0681152.7446289.2970378.2848307.5249024.6184896.6835938 1.0009765.1586914.382487.2380371.8382162.2380371 1.3671875 0 .7405599-.1607259 1.3732911-.4821777 1.8981934-.3214519.5249023-.748698.9521484-1.2817383 1.2817383-.5330404.3295898-1.147461.5696614-1.8432617.7202148-.6958008.1505534-1.4180502.2258301-2.1667481.2258301-1.3753255 0-2.6489258-.2115885-3.8208008-.6347656z"/><path d="m84.7412109 19.1040039c-2.0833333 0-3.72111-.583903-4.91333-1.751709-1.1922201-1.167806-1.7883301-2.7526855-1.7883301-4.7546387 0-2.0670572.6184896-3.68448888 1.8554687-4.85229487 1.2369792-1.16780599 2.9093425-1.75170899 5.0170899-1.75170899 2.0751953 0 3.7027995.583903 4.8828125 1.75170899s1.7700195 2.71199547 1.7700195 4.63256837c0 2.0751953-.6083171 3.7150065-1.8249512 4.9194336s-2.8828938 1.8066406-4.9987793 1.8066406zm.0976563-10.15624999c-.9114583 0-1.6194662.3133138-2.1240234.9399414-.5045573.62662759-.756836 1.51367189-.756836 2.66113279 0 2.4007162.9684245 3.6010742 2.9052734 3.6010742 1.8473308 0 2.7709961-1.2329101 2.7709961-3.6987304 0-2.335612-.9318033-3.50341799-2.7954101-3.50341799z"/><path d="m101.843262 3.24707031c-.49642-.1953125-.972494-.29296875-1.428223-.29296875-1.2369791 0-1.8554687.67138672-1.8554687 2.01416016v1.3305664h2.8564457v2.84423829h-2.8564457v9.65576169h-3.8452148v-9.65576169h-2.0996094v-2.84423829h2.0996094v-1.55029296c0-1.42415365.4638672-2.57161459 1.3916015-3.44238282.9277344-.87076822 2.1891276-1.30615234 3.7841797-1.30615234.7812503 0 1.4322913.08138021 1.9531253.24414063z"/><path d="m111.303711 18.6523438c-.569662.3011067-1.428223.4516601-2.575684.4516601-2.718099 0-4.077148-1.4119466-4.077148-4.2358398v-5.72509769h-2.026367v-2.84423829h2.026367v-2.6977539l3.845215-1.09863281v3.79638671h2.807617v2.84423829h-2.807617v5.05371089c0 1.3020834.516764 1.953125 1.550293 1.953125.406901 0 .826009-.1180013 1.257324-.3540039z"/><path d="m131.25 18.7988281h-10.498047v-17.50488279h10.095215v3.21044922h-6.152344v3.89404297h5.725098v3.1982422h-5.725098v4.0039062h6.555176z"/><path d="m145.910645 18.7988281h-3.857422v-1.7211914h-.048828c-.878907 1.3509115-2.168783 2.0263672-3.869629 2.0263672-1.5625 0-2.819825-.5513509-3.771973-1.6540527-.952148-1.1027019-1.428223-2.6428223-1.428223-4.6203614 0-2.0670572.524903-3.72314449 1.574707-4.96826168 1.049805-1.24511718 2.425131-1.86767578 4.125977-1.86767578 1.611328 0 2.734375.57779948 3.369141 1.73339844h.048828v-7.43408203h3.857422zm-3.78418-6.0791015v-.9399414c0-.8138021-.236003-1.4892579-.708008-2.02636723-.472005-.53710938-1.086426-.80566406-1.843262-.80566406-.854492 0-1.52181.33569336-2.001953 1.00708007-.480143.67138672-.720215 1.59301762-.720215 2.76489262 0 1.0986328.231934 1.9449869.695801 2.5390625.463867.5940755 1.106771.8911132 1.928711.8911132.78125 0 1.41805-.3133138 1.9104-.9399414.492351-.6266276.738526-1.4567057.738526-2.4902343z"/><path d="m161.413574 17.3706055c0 2.3193359-.671386 4.115804-2.01416 5.3894043-1.342773 1.2736002-3.28776 1.9104004-5.834961 1.9104004-1.68457 0-3.019206-.2400717-4.003906-.7202149v-3.2470703c1.285807.7486979 2.583821 1.1230469 3.894043 1.1230469 1.302083 0 2.311198-.3438314 3.027344-1.0314942.716145-.6876627 1.074218-1.6215006 1.074218-2.8015136v-.9887696h-.048828c-.878906 1.3997396-2.17692 2.0996094-3.894043 2.0996094-1.595052 0-2.860514-.5615234-3.796386-1.6845703-.935873-1.1230469-1.403809-2.6285807-1.403809-4.5166016 0-2.1158854.520833-3.79638669 1.5625-5.04150388 1.041667-1.24511718 2.412923-1.86767578 4.113769-1.86767578 1.52181 0 2.661133.5859375 3.417969 1.7578125h.048828v-1.45263672h3.857422zm-3.808594-4.5776367v-.9887696c0-.789388-.233968-1.4628092-.701904-2.02026365-.467936-.55745443-1.076253-.83618164-1.824951-.83618164-.854492 0-1.525879.33365885-2.01416 1.00097656-.488281.66731773-.732422 1.60725913-.732422 2.81982423 0 1.0416667.231934 1.8656413.695801 2.4719238.463867.6062826 1.098633.9094238 1.904297.9094238.797526 0 1.442464-.3072102 1.934814-.9216308s.738525-1.4261882.738525-2.4353027z"/><path d="m175.866699 13.6474609h-8.154297c.130209 1.8147787 1.273601 2.722168 3.430176 2.722168 1.375326 0 2.583822-.3255208 3.625488-.9765625v2.7832031c-1.155599.6184896-2.657063.9277344-4.504394.9277344-2.018229 0-3.584798-.5594889-4.699707-1.6784668s-1.672363-2.6794433-1.672363-4.6813965c0-2.0751953.602213-3.7190755 1.80664-4.9316406s2.685547-1.81884766 4.44336-1.81884766c1.822916 0 3.232828.54117839 4.229736 1.62353516.996907 1.08235677 1.495361 2.5512695 1.495361 4.4067383zm-3.57666-2.368164c0-1.79036461-.724284-2.6855469-2.172851-2.6855469-.61849 0-1.153565.25634766-1.605225.76904297s-.726318 1.15152993-.823975 1.91650393z"/></g></g><g transform="translate(25 17)"><path d="m35.6796061 18.7268765c-.7065535.3695277-1.435258.6951675-2.1819731.9750562-2.3765702.8893507-4.8943269 1.3423068-7.4319573 1.3373383-9.7961066 0-18.32940138-6.738446-18.32940138-15.3856009.02546325-2.35855963 1.32947159-4.52624837 3.40131088-5.6536701-8.86038377.37263296-11.1375852 9.60564967-11.1375852 15.0150382 0 15.2945128 14.0958769 16.84508 17.1328355 16.84508 1.6375148 0 4.1072433-.4761421 5.5894944-.9440035l.271194-.0910881c5.7027334-1.9714353 10.5670427-5.8279795 13.7874196-10.9305668.0842564-.1326988.1289724-.2865134.1289724-.4438473 0-.4541982-.3738751-.8280732-.8280733-.8280732-.1407724 0-.2792677.0360212-.4022365.1043372z" fill="url(#a)" transform="translate(12.156115 20.718393)"/><path d="m35.6796061 18.7268765c-.7065535.3695277-1.435258.6951675-2.1819731.9750562-2.3765702.8893507-4.8943269 1.3423068-7.4319573 1.3373383-9.7961066 0-18.32940138-6.738446-18.32940138-15.3856009.02546325-2.35855963 1.32947159-4.52624837 3.40131088-5.6536701-8.86038377.37263296-11.1375852 9.60564967-11.1375852 15.0150382 0 15.2945128 14.0958769 16.84508 17.1328355 16.84508 1.6375148 0 4.1072433-.4761421 5.5894944-.9440035l.271194-.0910881c5.7027334-1.9714353 10.5670427-5.8279795 13.7874196-10.9305668.0842564-.1326988.1289724-.2865134.1289724-.4438473 0-.4541982-.3738751-.8280732-.8280733-.8280732-.1407724 0-.2792677.0360212-.4022365.1043372z" fill="url(#b)" transform="translate(12.156115 20.718393)"/><path d="m21.8663528 40.0124993c-1.8463964-1.1460534-3.4466479-2.6477642-4.7075964-4.4177708-2.0875727-2.8599579-3.2129242-6.3109532-3.2129242-9.8517944 0-6.3550481 3.6253046-12.1821996 9.3261749-14.990403.6458971-.3043169 1.7493047-.85498561 3.2170646-.82807323 2.0948183.01531936 4.0654256 1.01252653 5.3183004 2.69123803.83594 1.1160357 1.2969697 2.4686934 1.3166365 3.8629617 0-.0434738 5.0636679-16.4786576-16.561465-16.4786576-9.08810387 0-16.56146493 8.62438287-16.56146493 16.1909022-.03581417 4.002492.82062059 7.9629593 2.50699176 11.5930254 5.67727018 12.1132625 19.68226597 18.1236252 32.37352357 13.892999-4.3633249 1.3756366-9.1177075.7699011-12.9966096-1.6561465z" fill="url(#c)" transform="translate(.021693 9.965862)"/><path d="m21.8663528 40.0124993c-1.8463964-1.1460534-3.4466479-2.6477642-4.7075964-4.4177708-2.0875727-2.8599579-3.2129242-6.3109532-3.2129242-9.8517944 0-6.3550481 3.6253046-12.1821996 9.3261749-14.990403.6458971-.3043169 1.7493047-.85498561 3.2170646-.82807323 2.0948183.01531936 4.0654256 1.01252653 5.3183004 2.69123803.83594 1.1160357 1.2969697 2.4686934 1.3166365 3.8629617 0-.0434738 5.0636679-16.4786576-16.561465-16.4786576-9.08810387 0-16.56146493 8.62438287-16.56146493 16.1909022-.03581417 4.002492.82062059 7.9629593 2.50699176 11.5930254 5.67727018 12.1132625 19.68226597 18.1236252 32.37352357 13.892999-4.3633249 1.3756366-9.1177075.7699011-12.9966096-1.6561465z" fill="url(#d)" transform="translate(.021693 9.965862)"/><path d="m31.5350995 30.8167459c-.1676849.2173692-.6831605.5175458-.6831605 1.1717237 0 .5403177.3519312 1.0599337.9771265 1.4967423 2.9769233 2.0701832 8.5891897 1.796919 8.603681 1.796919 2.2055731-.0053825 4.3699495-.6024233 6.2664443-1.7286029 3.888425-2.2703698 6.2902514-6.4444801 6.2995672-10.9471283.0538248-4.6392804-1.6561465-7.7238533-2.3475876-9.0901741-4.3867181-8.58090904-13.8557356-13.5162256-24.1528265-13.5162256-14.3968815-.00144913-26.29587999 11.7302786-26.4983439 26.125711.09936879-7.5644492 7.61827388-13.6735595 16.561465-13.6735595.724564 0 4.8566495.0703862 8.6947691 2.0846744 3.3826792 1.7762171 5.1547559 3.9209268 6.3865149 6.0470049 1.2793731 2.2088853 1.5070933 4.9994922 1.5070933 6.1111805 0 1.1116884-.5672302 2.7595541-1.6147428 4.1217346z" fill="url(#e)"/><path d="m31.5350995 30.8167459c-.1676849.2173692-.6831605.5175458-.6831605 1.1717237 0 .5403177.3519312 1.0599337.9771265 1.4967423 2.9769233 2.0701832 8.5891897 1.796919 8.603681 1.796919 2.2055731-.0053825 4.3699495-.6024233 6.2664443-1.7286029 3.888425-2.2703698 6.2902514-6.4444801 6.2995672-10.9471283.0538248-4.6392804-1.6561465-7.7238533-2.3475876-9.0901741-4.3867181-8.58090904-13.8557356-13.5162256-24.1528265-13.5162256-14.3968815-.00144913-26.29587999 11.7302786-26.4983439 26.125711.09936879-7.5644492 7.61827388-13.6735595 16.561465-13.6735595.724564 0 4.8566495.0703862 8.6947691 2.0846744 3.3826792 1.7762171 5.1547559 3.9209268 6.3865149 6.0470049 1.2793731 2.2088853 1.5070933 4.9994922 1.5070933 6.1111805 0 1.1116884-.5672302 2.7595541-1.6147428 4.1217346z" fill="url(#f)"/></g></g></g></svg>