<?xml version="1.0" encoding="UTF-8"?>
<svg viewBox="0 0 243 87" version="1.1" xmlns="http://www.w3.org/2000/svg" xmlns:xlink="http://www.w3.org/1999/xlink">
    <title>firefox_download_dark</title>
    <defs>
        <linearGradient x1="87.2941014%" y1="15.4947533%" x2="9.33081156%" y2="93.1614982%" id="linearGradient-1">
            <stop stop-color="#FFF44F" offset="0%"></stop>
            <stop stop-color="#FFF44F" offset="5%"></stop>
            <stop stop-color="#FFE847" offset="11%"></stop>
            <stop stop-color="#FFC830" offset="23%"></stop>
            <stop stop-color="#FF980E" offset="37%"></stop>
            <stop stop-color="#FF8B16" offset="40%"></stop>
            <stop stop-color="#FF672A" offset="46%"></stop>
            <stop stop-color="#FF3647" offset="53%"></stop>
            <stop stop-color="#E31587" offset="71%"></stop>
            <stop stop-color="#E31587" offset="100%"></stop>
        </linearGradient>
        <radialGradient cx="86.5316433%" cy="-12.7477628%" fx="86.5316433%" fy="-12.7477628%" r="128.431326%" gradientTransform="translate(0.865316,-0.127478),scale(0.812678,1.000000),translate(-0.865316,0.127478)" id="radialGradient-2">
            <stop stop-color="#FFBD4F" offset="0%"></stop>
            <stop stop-color="#FFBD4F" offset="13%"></stop>
            <stop stop-color="#FFAC31" offset="19%"></stop>
            <stop stop-color="#FF9D17" offset="25%"></stop>
            <stop stop-color="#FF980E" offset="28%"></stop>
            <stop stop-color="#FF563B" offset="40%"></stop>
            <stop stop-color="#FF3750" offset="47%"></stop>
            <stop stop-color="#F5156C" offset="71%"></stop>
            <stop stop-color="#EB0878" offset="78%"></stop>
            <stop stop-color="#E50080" offset="86%"></stop>
            <stop stop-color="#E50080" offset="100%"></stop>
        </radialGradient>
        <radialGradient cx="47.7791907%" cy="39.7056252%" fx="47.7791907%" fy="39.7056252%" r="128.431326%" gradientTransform="translate(0.477792,0.397056),scale(0.812678,1.000000),translate(-0.477792,-0.397056)" id="radialGradient-3">
            <stop stop-color="#960E18" offset="0%"></stop>
            <stop stop-color="#960E18" offset="30%"></stop>
            <stop stop-color="#B11927" stop-opacity="0.74" offset="35%"></stop>
            <stop stop-color="#DB293D" stop-opacity="0.34" offset="44%"></stop>
            <stop stop-color="#F5334B" stop-opacity="0.09" offset="50%"></stop>
            <stop stop-color="#FF3750" stop-opacity="0" offset="53%"></stop>
            <stop stop-color="#FF3750" stop-opacity="0" offset="100%"></stop>
        </radialGradient>
        <radialGradient cx="51.4556315%" cy="-28.5198213%" fx="51.4556315%" fy="-28.5198213%" r="314.965291%" gradientTransform="translate(0.514556,-0.285198),scale(1.000000,0.588871),translate(-0.514556,0.285198)" id="radialGradient-4">
            <stop stop-color="#FFF44F" offset="0%"></stop>
            <stop stop-color="#FFF44F" offset="13%"></stop>
            <stop stop-color="#FFDC3E" offset="25%"></stop>
            <stop stop-color="#FF9D12" offset="51%"></stop>
            <stop stop-color="#FF980E" offset="100%"></stop>
        </radialGradient>
        <radialGradient cx="19.3185779%" cy="110.06288%" fx="19.3185779%" fy="110.06288%" r="111.740444%" gradientTransform="translate(0.193186,1.100629),scale(1.000000,0.912170),translate(-0.193186,-1.100629)" id="radialGradient-5">
            <stop stop-color="#3A8EE6" offset="0%"></stop>
            <stop stop-color="#3A8EE6" offset="35%"></stop>
            <stop stop-color="#5C79F0" offset="47%"></stop>
            <stop stop-color="#9059FF" offset="67%"></stop>
            <stop stop-color="#C139E6" offset="100%"></stop>
        </radialGradient>
        <radialGradient cx="56.8113164%" cy="36.0464476%" fx="56.8113164%" fy="36.0464476%" r="59.2543621%" gradientTransform="translate(0.568113,0.360464),scale(1.000000,0.912170),rotate(-13.591560),translate(-0.568113,-0.360464)" id="radialGradient-6">
            <stop stop-color="#9059FF" stop-opacity="0" offset="0%"></stop>
            <stop stop-color="#9059FF" stop-opacity="0" offset="21%"></stop>
            <stop stop-color="#8C4FF3" stop-opacity="0.06" offset="28%"></stop>
            <stop stop-color="#7716A8" stop-opacity="0.45" offset="75%"></stop>
            <stop stop-color="#6E008B" stop-opacity="0.6" offset="98%"></stop>
            <stop stop-color="#6E008B" stop-opacity="0.6" offset="100%"></stop>
        </radialGradient>
        <radialGradient cx="208.497563%" cy="-99.4194025%" fx="208.497563%" fy="-99.4194025%" r="293.282475%" gradientTransform="translate(2.084976,-0.994194),scale(1.000000,0.996305),translate(-2.084976,0.994194)" id="radialGradient-7">
            <stop stop-color="#FFE226" offset="0%"></stop>
            <stop stop-color="#FFDB27" offset="12%"></stop>
            <stop stop-color="#FFC82A" offset="29%"></stop>
            <stop stop-color="#FFA930" offset="50%"></stop>
            <stop stop-color="#FF7E37" offset="73%"></stop>
            <stop stop-color="#FF7139" offset="79%"></stop>
            <stop stop-color="#FF7139" offset="100%"></stop>
        </radialGradient>
        <radialGradient cx="79.697775%" cy="-40.9249474%" fx="79.697775%" fy="-40.9249474%" r="193.848967%" gradientTransform="translate(0.796978,-0.409249),scale(0.839454,1.000000),translate(-0.796978,0.409249)" id="radialGradient-8">
            <stop stop-color="#FFF44F" offset="0%"></stop>
            <stop stop-color="#FFF44F" offset="11%"></stop>
            <stop stop-color="#FF980E" offset="46%"></stop>
            <stop stop-color="#FF5634" offset="62%"></stop>
            <stop stop-color="#FF3647" offset="72%"></stop>
            <stop stop-color="#E31587" offset="90%"></stop>
            <stop stop-color="#E31587" offset="100%"></stop>
        </radialGradient>
        <radialGradient cx="7.99132871%" cy="-10.3669327%" fx="7.99132871%" fy="-10.3669327%" r="348.796223%" gradientTransform="translate(0.079913,-0.103669),scale(1.000000,0.473394),rotate(83.976007),translate(-0.079913,0.103669)" id="radialGradient-9">
            <stop stop-color="#FFF44F" offset="0%"></stop>
            <stop stop-color="#FFE847" offset="6%"></stop>
            <stop stop-color="#FFC830" offset="17%"></stop>
            <stop stop-color="#FF980E" offset="30%"></stop>
            <stop stop-color="#FF8B16" offset="36%"></stop>
            <stop stop-color="#FF672A" offset="46%"></stop>
            <stop stop-color="#FF3647" offset="57%"></stop>
            <stop stop-color="#E31587" offset="74%"></stop>
            <stop stop-color="#E31587" offset="100%"></stop>
        </radialGradient>
        <radialGradient cx="17.5428082%" cy="-42.1061148%" fx="17.5428082%" fy="-42.1061148%" r="238.662025%" gradientTransform="translate(0.175428,-0.421061),scale(0.981484,1.000000),translate(-0.175428,0.421061)" id="radialGradient-10">
            <stop stop-color="#FFF44F" offset="0%"></stop>
            <stop stop-color="#FFF44F" offset="14%"></stop>
            <stop stop-color="#FF980E" offset="48%"></stop>
            <stop stop-color="#FF5634" offset="59%"></stop>
            <stop stop-color="#FF3647" offset="66%"></stop>
            <stop stop-color="#E31587" offset="90%"></stop>
            <stop stop-color="#E31587" offset="100%"></stop>
        </radialGradient>
        <radialGradient cx="156.177083%" cy="-45.1042288%" fx="156.177083%" fy="-45.1042288%" r="312.868028%" gradientTransform="translate(1.561771,-0.451042),scale(0.895501,1.000000),translate(-1.561771,0.451042)" id="radialGradient-11">
            <stop stop-color="#FFF44F" offset="0%"></stop>
            <stop stop-color="#FFF44F" offset="9%"></stop>
            <stop stop-color="#FFE141" offset="23%"></stop>
            <stop stop-color="#FFAF1E" offset="51%"></stop>
            <stop stop-color="#FF980E" offset="63%"></stop>
            <stop stop-color="#FF980E" offset="100%"></stop>
        </radialGradient>
        <linearGradient x1="86.3392912%" y1="15.0803892%" x2="20.0250637%" y2="83.5698984%" id="linearGradient-12">
            <stop stop-color="#FFF44F" stop-opacity="0.8" offset="0%"></stop>
            <stop stop-color="#FFF44F" stop-opacity="0.8" offset="17%"></stop>
            <stop stop-color="#FFF44F" stop-opacity="0.63" offset="27%"></stop>
            <stop stop-color="#FFF44F" stop-opacity="0.22" offset="49%"></stop>
            <stop stop-color="#FFF44F" stop-opacity="0" offset="60%"></stop>
            <stop stop-color="#FFF44F" stop-opacity="0" offset="100%"></stop>
        </linearGradient>
    </defs>
    <g id="Page-1" stroke="none" stroke-width="1" fill="none" fill-rule="evenodd">
        <g id="firefox_download_dark" transform="translate(0.157895, 0.000000)">
            <rect id="Rectangle" stroke="#2E2343" fill="#20123A" x="0.5" y="0.5" width="241.684211" height="86" rx="20"></rect>
            <g id="text" transform="translate(93.842105, 42.000000)" fill="#FFFFFF" fill-rule="nonzero">
                <g id="Firefox">
                    <polygon id="Path" points="18.9734043 6.65782907 18.9734043 1.92857143 0 1.92857143 0 26.3571429 5.30824921 26.3571429 5.30824921 16.6852776 17.6822085 16.6852776 17.6822085 11.95602 5.30824921 11.95602 5.30824921 6.65782907"></polygon>
                    <path d="M25.2260975,5.58234393 C26.8286089,5.58234393 28.1329787,4.31041746 28.1329787,2.75584067 C28.1329787,1.30725776 26.8286089,0 25.2260975,0 C23.5490506,0 22.2446809,1.30725776 22.2446809,2.75584067 C22.2446809,4.31041746 23.5490506,5.58234393 25.2260975,5.58234393 Z M22.4682871,26.3571429 L27.9093725,26.3571429 L27.9093725,8.09086557 L22.4682871,8.09086557 L22.4682871,26.3571429 Z" id="Shape"></path>
                    <path d="M37.3816778,11.5203889 L37.3816778,8.13718607 L32.0585106,8.13718607 L32.0585106,26.3571429 L37.3816778,26.3571429 L37.3816778,17.652444 C37.3816778,14.2339995 39.8974211,12.0490143 43.8351064,12.0490143 L43.8351064,7.71428571 C40.9547625,7.71428571 38.6213194,9.15919525 37.3816778,11.5203889 Z" id="Path"></path>
                    <path d="M55.7017717,22.4013731 C53.4888125,22.4013731 51.8563016,21.0467388 51.2395753,19.0504357 L64.7712766,19.0504357 C64.7712766,12.099023 61.3248647,7.71428571 55.4478256,7.71428571 C49.9698446,7.71428571 45.7978723,11.7425403 45.7978723,17.3036705 C45.7978723,22.9717454 50.1512347,27 55.7380497,27 C58.4951792,27 61.7239229,25.8592553 63.3927119,24.1481384 L60.018856,20.7615527 C59.0030715,21.724056 57.1891705,22.4013731 55.7017717,22.4013731 Z M55.6654937,12.3129126 C57.8058968,12.3129126 59.1844616,13.4893055 59.6923539,15.3073673 L51.3121313,15.3073673 C52.0014137,13.4536572 53.6702026,12.3129126 55.6654937,12.3129126 Z" id="Shape"></path>
                    <path d="M74.9909343,6.89285714 C74.9909343,5.67857143 75.7836263,4.82142857 76.7564755,4.82142857 C77.4771045,4.82142857 78.1977336,5.07142857 78.5580481,5.42857143 L79.8191489,2.25 C78.7382054,1.28571429 77.0447271,0.642857143 75.5314061,0.642857143 C72.2525439,0.642857143 69.946531,2.96428571 69.946531,6.28571429 L69.946531,7.89285714 L67.3882979,7.89285714 L67.3882979,12.1071429 L69.946531,12.1071429 L69.946531,26.3571429 L74.9909343,26.3571429 L74.9909343,12.1071429 L79.026457,12.1071429 L79.026457,7.89285714 L74.9909343,7.89285714 L74.9909343,6.89285714 Z" id="Path"></path>
                    <path d="M91.3045779,27 C96.8065867,27 101.409574,22.5796145 101.409574,17.3393187 C101.409574,12.099023 96.8065867,7.71428571 91.3045779,7.71428571 C85.7666082,7.71428571 81.1276596,12.099023 81.1276596,17.3393187 C81.1276596,22.5796145 85.7666082,27 91.3045779,27 Z M91.3045779,22.6152627 C88.4996322,22.6152627 86.1621775,20.1911804 86.1621775,17.3393187 C86.1621775,14.4874571 88.4996322,12.099023 91.3045779,12.099023 C94.0735627,12.099023 96.4110174,14.4874571 96.4110174,17.3393187 C96.4110174,20.1911804 94.0735627,22.6152627 91.3045779,22.6152627 Z" id="Shape"></path>
                    <polygon id="Path" points="123 26.3571429 116.042434 16.7652666 122.670431 7.71428571 117.031141 7.71428571 113.222789 12.9068804 109.451056 7.71428571 103.665291 7.71428571 110.329906 16.8734457 103.37234 26.3571429 109.011631 26.3571429 113.149551 20.731832 117.250853 26.3571429"></polygon>
                </g>
            </g>
            <g id="Firefox-icon" transform="translate(25.842105, 16.000000)" fill-rule="nonzero">
                <path d="M51.0788247,18.3791285 C49.9260325,15.6053079 47.5875895,12.6103758 45.7564024,11.6636349 C47.0625351,14.1923845 47.9688871,16.9080179 48.4432844,19.7140126 L48.4480763,19.7585087 C45.4483522,12.283158 40.3634708,9.26426643 36.2082164,2.69937514 C35.9980577,2.36736552 35.787899,2.03467134 35.5832168,1.68349415 C35.4661578,1.48291927 35.3723736,1.3021965 35.2909115,1.13584941 C35.1184034,0.80247068 34.9855995,0.449239824 34.8952381,0.0850560733 C34.8952381,0.0501437213 34.869225,0.0207078166 34.8349972,0.0166004811 C34.8185679,0.0118085897 34.801454,0.0118085897 34.7850246,0.0166004811 C34.7816018,0.0166004811 34.7761254,0.0227614844 34.7720181,0.0241305963 C34.7679107,0.0254997081 34.7590115,0.0316607114 34.7528505,0.0343989351 L34.7631188,0.0166004811 C28.0989669,3.91856924 25.8365096,11.1406342 25.6311428,14.7550895 C22.9689049,14.9378659 20.4230414,15.9188346 18.3269311,17.5692989 C18.1085578,17.3837842 17.8799161,17.2105916 17.6423752,17.0504055 C17.0379123,14.9344431 17.0118992,12.6945762 17.5677586,10.5656072 C15.1204712,11.7512581 12.945637,13.4318429 11.1815364,15.5012554 L11.1692144,15.5012554 C10.1177365,14.1684251 10.1916686,9.77357604 10.2519095,8.85558655 C9.9411211,8.98086028 9.64402383,9.13830814 9.36609413,9.32587647 C8.4378363,9.9885266 7.56981939,10.7319543 6.77299629,11.5472604 C5.86459058,12.4679881 5.03490881,13.4633325 4.29285019,14.523025 L4.29285019,14.5271324 L4.29285019,14.5223405 C2.58762139,16.940192 1.37732652,19.6715701 0.733159393,22.559027 L0.697562485,22.7342733 C0.647589902,22.9677069 0.467551695,24.1369284 0.436746678,24.3908986 C0.436746678,24.4107508 0.432639343,24.4292338 0.430585675,24.4490859 C0.198521217,25.655958 0.0547644738,26.8785749 0,28.1066682 L0,28.2435794 C0.026013125,42.7814935 11.9954734,54.7304171 26.5333875,54.7304171 C39.3852404,54.7304171 50.4805228,45.3930743 52.6765782,32.7301589 C52.7210743,32.3878809 52.7573558,32.0490257 52.79706,31.703325 C53.3433357,27.186625 52.7518794,22.6048922 51.0760865,18.3750212 L51.0788247,18.3791285 Z M20.4997116,39.1485552 C20.6236163,39.2081116 20.7399908,39.2724598 20.8673182,39.329278 L20.8858012,39.3409154 C20.7571047,39.2793054 20.6284082,39.2149571 20.4997116,39.1485552 Z" id="Shape" fill="url(#linearGradient-1)"></path>
                <path d="M51.0788247,18.3791285 C49.9260325,15.6053079 47.5875895,12.6103758 45.7564024,11.6636349 C47.0625351,14.1923845 47.9688871,16.9080179 48.4432844,19.7140126 L48.4432844,19.7393412 L48.4480763,19.7674079 C50.4928448,25.6176229 50.1964321,32.0380728 47.6225018,37.6753909 C44.5817044,44.1998934 37.2240974,50.8873202 25.7030212,50.5587333 C13.2577945,50.206187 2.29120867,40.9681049 0.244386464,28.8720017 C-0.128696513,26.9641444 0.244386464,25.9968668 0.431954787,24.4463477 C0.175930872,25.6504815 0.0335432402,26.8765212 0.00547644738,28.1073527 L0.00547644738,28.2442639 C0.0314895724,42.782178 12.0009499,54.7311017 26.538864,54.7311017 C39.3907169,54.7311017 50.4859993,45.3937589 52.6820547,32.7308434 C52.7265508,32.3885655 52.7628322,32.0497103 52.8025365,31.7040096 C53.3488121,27.1873096 52.7573558,22.6055768 51.0815629,18.3757058 L51.0788247,18.3791285 Z" id="Path" fill="url(#radialGradient-2)"></path>
                <path d="M51.0788247,18.3791285 C49.9260325,15.6053079 47.5875895,12.6103758 45.7564024,11.6636349 C47.0625351,14.1923845 47.9688871,16.9080179 48.4432844,19.7140126 L48.4432844,19.7393412 L48.4480763,19.7674079 C50.4928448,25.6176229 50.1964321,32.0380728 47.6225018,37.6753909 C44.5817044,44.1998934 37.2240974,50.8873202 25.7030212,50.5587333 C13.2577945,50.206187 2.29120867,40.9681049 0.244386464,28.8720017 C-0.128696513,26.9641444 0.244386464,25.9968668 0.431954787,24.4463477 C0.175930872,25.6504815 0.0335432402,26.8765212 0.00547644738,28.1073527 L0.00547644738,28.2442639 C0.0314895724,42.782178 12.0009499,54.7311017 26.538864,54.7311017 C39.3907169,54.7311017 50.4859993,45.3937589 52.6820547,32.7308434 C52.7265508,32.3885655 52.7628322,32.0497103 52.8025365,31.7040096 C53.3488121,27.1873096 52.7573558,22.6055768 51.0815629,18.3757058 L51.0788247,18.3791285 Z" id="Path" fill="url(#radialGradient-3)"></path>
                <path d="M38.1817911,21.493858 C38.2392938,21.5342468 38.2926892,21.5746356 38.3467691,21.6150244 C37.6800116,20.4334809 36.8510144,19.3511979 35.8823678,18.4010343 C27.6334689,10.1521355 33.7212247,0.52043364 34.747374,0.0275533759 L34.7576424,0.0124931456 C28.0934905,3.9144619 25.8310332,11.1365269 25.6256664,14.7509821 C25.9350857,14.7297609 26.2417667,14.7037478 26.5580316,14.7037478 C31.3649832,14.7133316 35.8118585,17.3105367 38.1817911,21.4924889 L38.1817911,21.493858 Z" id="Path" fill="url(#radialGradient-4)"></path>
                <path d="M26.5717227,23.1436378 C26.5279111,23.8035497 24.1963136,26.0796981 23.3810075,26.0796981 C15.8372013,26.0796981 14.6118462,30.6436324 14.6118462,30.6436324 C14.9459094,34.4867294 17.6238922,37.6534851 20.8611572,39.3238015 C21.0090212,39.4004718 21.158939,39.4696119 21.3088567,39.537383 C21.5683034,39.6523884 21.8284347,39.7584945 22.0878814,39.856386 C23.1989156,40.2493211 24.3626607,40.4738555 25.5400969,40.5224589 C38.7657173,41.1426666 41.3259565,24.7092171 31.7825623,19.9378624 C34.0333822,19.6448724 36.3143226,20.1986782 38.1797374,21.4911198 C35.8098048,17.3091676 31.3629296,14.7119625 26.5559779,14.7023787 C26.2410822,14.7023787 25.933032,14.7283918 25.6236127,14.749613 C22.9613747,14.9323895 20.4155113,15.9133581 18.319401,17.5638224 C18.7239736,17.9061004 19.1805724,18.3633837 20.1423735,19.3114937 C21.9427555,21.0851781 26.5600852,22.9225262 26.5703536,23.1381613 L26.5717227,23.1436378 Z" id="Path" fill="url(#radialGradient-5)"></path>
                <path d="M26.5717227,23.1436378 C26.5279111,23.8035497 24.1963136,26.0796981 23.3810075,26.0796981 C15.8372013,26.0796981 14.6118462,30.6436324 14.6118462,30.6436324 C14.9459094,34.4867294 17.6238922,37.6534851 20.8611572,39.3238015 C21.0090212,39.4004718 21.158939,39.4696119 21.3088567,39.537383 C21.5683034,39.6523884 21.8284347,39.7584945 22.0878814,39.856386 C23.1989156,40.2493211 24.3626607,40.4738555 25.5400969,40.5224589 C38.7657173,41.1426666 41.3259565,24.7092171 31.7825623,19.9378624 C34.0333822,19.6448724 36.3143226,20.1986782 38.1797374,21.4911198 C35.8098048,17.3091676 31.3629296,14.7119625 26.5559779,14.7023787 C26.2410822,14.7023787 25.933032,14.7283918 25.6236127,14.749613 C22.9613747,14.9323895 20.4155113,15.9133581 18.319401,17.5638224 C18.7239736,17.9061004 19.1805724,18.3633837 20.1423735,19.3114937 C21.9427555,21.0851781 26.5600852,22.9225262 26.5703536,23.1381613 L26.5717227,23.1436378 Z" id="Path" fill="url(#radialGradient-6)"></path>
                <path d="M17.0837776,16.6882754 C17.2987282,16.8251866 17.4760281,16.9442993 17.6314223,17.0517746 C17.0269594,14.9358122 17.0009463,12.6959453 17.5568057,10.5669764 C15.1095183,11.7526272 12.9346841,13.433212 11.1705835,15.5026246 C11.2999646,15.4992018 15.148538,15.4300616 17.0837776,16.6882754 Z" id="Path" fill="url(#radialGradient-7)"></path>
                <path d="M0.239594573,28.8733708 C2.28710134,40.969474 13.2530027,50.2109789 25.6982293,50.5601024 C37.2193055,50.8859511 44.5782816,44.1978397 47.6177099,37.67676 C50.1916402,32.039442 50.4880529,25.618992 48.4432844,19.7687771 L48.4432844,19.7434485 C48.4432844,19.7235964 48.439177,19.7119589 48.4432844,19.7181199 L48.4480763,19.7626161 C49.3893407,25.9078746 46.2636583,31.8587192 41.3766136,35.8907536 L41.3615534,35.9249814 C31.8393805,43.681 22.7279412,40.6032365 20.8864857,39.347761 C20.7577892,39.286151 20.6290927,39.2218027 20.5003962,39.1554008 C14.9493322,36.502062 12.6553853,31.4473011 13.1482656,27.1072165 C10.4613836,27.1469208 7.99082128,25.5929788 6.86335767,23.1539061 C9.82337748,21.3405175 13.5227177,21.1919688 16.6182796,22.7623401 C19.7590221,24.1875855 23.3358268,24.3286041 26.5785682,23.1539061 C26.5682999,22.938271 21.9509702,21.1002383 20.1505881,19.3272385 C19.1887871,18.3791285 18.7321883,17.9225297 18.3276157,17.5795672 C18.1092424,17.3940526 17.8806007,17.2208599 17.6430598,17.0606738 C17.4856119,16.9531985 17.3083119,16.836824 17.095415,16.6971746 C15.1601755,15.4389608 11.3116021,15.508101 11.1842747,15.5115238 L11.1719526,15.5115238 C10.1204748,14.1786934 10.1944068,9.78384438 10.2546477,8.86585489 C9.94385932,8.99112862 9.64676205,9.14857648 9.36883235,9.3361448 C8.44057452,9.99879494 7.57255761,10.7422227 6.77573452,11.5575288 C5.86390603,12.4762028 5.03080147,13.4688089 4.28532007,14.5264478 L4.28532007,14.5305551 L4.28532007,14.5257632 C2.58009127,16.9436148 1.3697964,19.6749929 0.725629277,22.5624498 C0.712622715,22.6165297 -0.23001079,26.7375563 0.234802681,28.8747399 L0.239594573,28.8733708 Z" id="Path" fill="url(#radialGradient-8)"></path>
                <path d="M35.8816832,18.3996652 C36.8503298,19.3511979 37.6800116,20.4341654 38.3460845,21.617078 C38.4918949,21.7272915 38.6281216,21.8368205 38.7438115,21.9429267 C44.7590044,27.4878296 41.6073089,35.3259949 41.3725063,35.8804852 C46.2588664,31.8546119 49.3818106,25.8996599 48.4439689,19.7523477 C45.4428758,12.2701515 40.3525179,9.25125987 36.2041091,2.68636858 C35.9939504,2.35435895 35.7837917,2.02166478 35.5791095,1.67048759 C35.4620504,1.4699127 35.3682663,1.28918994 35.2868041,1.12284285 C35.114296,0.789464117 34.9814922,0.436233261 34.8911308,0.0720495108 C34.8911308,0.0371371588 34.8651177,0.00770125412 34.8308899,0.00359391859 C34.8144605,-0.00119797286 34.7973466,-0.00119797286 34.7809173,0.00359391859 C34.7774945,0.00359391859 34.7720181,0.00975492189 34.7679107,0.0111240337 C34.7638034,0.0124931456 34.7549042,0.0186541489 34.7487432,0.0213923726 C33.7225938,0.508111633 27.6362071,10.1459745 35.885106,18.3880278 L35.8816832,18.3996652 Z" id="Path" fill="url(#radialGradient-9)"></path>
                <path d="M38.743127,21.9456649 C38.627437,21.8395587 38.4912104,21.7300298 38.3454,21.6198163 C38.2913201,21.5794275 38.2379247,21.5390387 38.180422,21.4986499 C36.3150071,20.2062083 34.0340668,19.6524025 31.7832469,19.9453925 C41.3259565,24.7167473 38.7657173,41.1460894 25.5407815,40.5299891 C24.3633453,40.4813856 23.1996002,40.2568512 22.0885659,39.8639161 C21.8291192,39.7667092 21.568988,39.660603 21.3095413,39.5449131 C21.1596236,39.4764575 21.0097058,39.4080019 20.8618417,39.3313316 L20.8803247,39.3429691 C22.7245184,40.6018674 31.8332195,43.6775772 41.3553924,35.9201895 L41.3704526,35.8859617 C41.6079935,35.3314714 44.759689,27.4933061 38.7417579,21.9484031 L38.743127,21.9456649 Z" id="Path" fill="url(#radialGradient-10)"></path>
                <path d="M14.6125307,30.6395251 C14.6125307,30.6395251 15.8372013,26.0755908 23.3816921,26.0755908 C24.1969982,26.0755908 26.5306493,23.7994423 26.5724072,23.1395304 C23.3296658,24.3142284 19.7528611,24.1732099 16.6121186,22.7479644 C13.5165567,21.1775931 9.81721648,21.3261418 6.85719667,23.1395304 C7.98466028,25.5786032 10.4552226,27.1325451 13.1421046,27.0928409 C12.6505934,31.4308717 14.9438558,36.4849481 20.4942352,39.1410251 C20.6181398,39.2005815 20.7345143,39.2649297 20.8618417,39.3217479 C17.6218385,37.6480086 14.946594,34.482622 14.6125307,30.6415788 L14.6125307,30.6395251 Z" id="Path" fill="url(#radialGradient-11)"></path>
                <path d="M51.0788247,18.3791285 C49.9260325,15.6053079 47.5875895,12.6103758 45.7564024,11.6636349 C47.0625351,14.1923845 47.9688871,16.9080179 48.4432844,19.7140126 L48.4480763,19.7585087 C45.4483522,12.283158 40.3634708,9.26426643 36.2082164,2.69937514 C35.9980577,2.36736552 35.787899,2.03467134 35.5832168,1.68349415 C35.4661578,1.48291927 35.3723736,1.3021965 35.2909115,1.13584941 C35.1184034,0.80247068 34.9855995,0.449239824 34.8952381,0.0850560733 C34.8952381,0.0501437213 34.869225,0.0207078166 34.8349972,0.0166004811 C34.8185679,0.0118085897 34.801454,0.0118085897 34.7850246,0.0166004811 C34.7816018,0.0166004811 34.7761254,0.0227614844 34.7720181,0.0241305963 C34.7679107,0.0254997081 34.7590115,0.0316607114 34.7528505,0.0343989351 L34.7631188,0.0166004811 C28.0989669,3.91856924 25.8365096,11.1406342 25.6311428,14.7550895 C25.9405621,14.7338682 26.2472432,14.7078551 26.563508,14.7078551 C31.3704597,14.7174389 35.817335,17.3146441 38.1872676,21.4965962 C36.3218527,20.2041546 34.0409123,19.6503489 31.7900925,19.9433388 C41.332802,24.7146936 38.7725629,41.1440357 25.547627,40.5279354 C24.3701908,40.4793319 23.2064458,40.2547976 22.0954115,39.8618625 C21.8359648,39.7646555 21.5758336,39.6585494 21.3163869,39.5428594 C21.1664691,39.4744038 21.0165514,39.4059482 20.8686873,39.329278 L20.8871703,39.3409154 C20.7584738,39.2793054 20.6297773,39.2149571 20.5010808,39.1485552 C20.6249854,39.2081116 20.7413599,39.2724598 20.8686873,39.329278 C17.6286841,37.6548542 14.9534396,34.4894676 14.6193763,30.6491089 C14.6193763,30.6491089 15.8440468,26.0851745 23.3885376,26.0851745 C24.2038437,26.0851745 26.5374949,23.8090261 26.5792528,23.1491142 C26.5689844,22.9334791 21.9516548,21.0954464 20.1512727,19.3224466 C19.1894716,18.3743366 18.7328728,17.9177378 18.3283003,17.5747753 C18.1099269,17.3892607 17.8812852,17.216068 17.6437443,17.0558819 C17.0392815,14.9399196 17.0132683,12.7000526 17.5691277,10.5710837 C15.1218403,11.7567345 12.9470062,13.4373193 11.1829055,15.5067319 L11.1705835,15.5067319 C10.1191056,14.1739015 10.1930377,9.77905249 10.2532786,8.86106299 C9.94249021,8.98633673 9.64539294,9.14378459 9.36746324,9.33135291 C8.43920541,9.99400305 7.5711885,10.7374308 6.7743654,11.5527369 C5.8659597,12.4734646 5.03627792,13.4688089 4.2942193,14.5285015 L4.2942193,14.5326088 L4.2942193,14.5278169 C2.5889905,16.9456684 1.37869563,19.6770466 0.734528504,22.5645034 L0.698931596,22.7397498 C0.648959014,22.9731833 0.425109228,24.1588342 0.392935099,24.413489 C0.188252879,25.637475 0.0575026975,26.8724139 0.00136911184,28.1121446 L0.00136911184,28.2490558 C0.0273822369,42.7869699 11.9968425,54.7358936 26.5347567,54.7358936 C39.3866095,54.7358936 50.4818919,45.3985508 52.6779473,32.7356353 C52.7224435,32.3933574 52.7587249,32.0545022 52.7984292,31.7088014 C53.3447048,27.1921015 52.7532485,22.6103687 51.0774556,18.3804976 L51.0788247,18.3791285 Z" id="Shape" fill="url(#linearGradient-12)"></path>
            </g>
            <g id="Download-for" transform="translate(95.033170, 18.686364)" fill="#FFFFFF" fill-rule="nonzero">
                <path d="M4.84416282,14.3136364 L5.68434189e-14,14.3136364 L5.68434189e-14,0.640909091 L4.88693182,0.640909091 C6.26131185,0.640909091 7.44498735,0.913517992 8.43795832,1.4587358 C9.43092929,2.0039536 10.1955555,2.78640026 10.731837,3.80607577 C11.2681186,4.82575129 11.5362593,6.04593691 11.5362593,7.46663263 C11.5362593,8.89087506 11.2678925,10.1146074 10.731159,11.1378296 C10.1944255,12.1610518 9.42623513,12.9461585 8.42658802,13.4931496 C7.42694092,14.0401408 6.23279918,14.3136364 4.84416282,14.3136364 Z M2.88941096,11.835538 L4.72128018,11.835538 C5.57944188,11.835538 6.30070801,11.6828735 6.88507857,11.3775446 C7.46944913,11.0722157 7.91007413,10.5981926 8.20695357,9.95547541 C8.50383301,9.3127582 8.65227273,8.48314394 8.65227273,7.46663263 C8.65227273,6.45359848 8.50339836,5.62707889 8.20564964,4.98707386 C7.90790091,4.34706883 7.46816258,3.87572317 6.88643466,3.57303689 C6.30470674,3.2703506 5.58657005,3.11900746 4.73202459,3.11900746 L2.88941096,3.11900746 L2.88941096,11.835538 Z" id="Shape"></path>
                <path d="M18.2498381,14.5112083 C17.2119075,14.5112083 16.3159666,14.2902351 15.5620152,13.8482888 C14.8080638,13.4063425 14.2263533,12.7885912 13.8168836,11.9950351 C13.4074139,11.2014789 13.202679,10.2777033 13.202679,9.22370827 C13.202679,8.16623609 13.4074139,7.23981786 13.8168836,6.44445357 C14.2263533,5.64908928 14.8080638,5.03043398 15.5620152,4.58848766 C16.3159666,4.14654134 17.2119075,3.92556818 18.2498381,3.92556818 C19.2877687,3.92556818 20.1837097,4.14654134 20.937661,4.58848766 C21.6916124,5.03043398 22.273323,5.64908928 22.6827927,6.44445357 C23.0922624,7.23981786 23.2969972,8.16623609 23.2969972,9.22370827 C23.2969972,10.2777033 23.0922624,11.2014789 22.6827927,11.9950351 C22.273323,12.7885912 21.6916124,13.4063425 20.937661,13.8482888 C20.1837097,14.2902351 19.2877687,14.5112083 18.2498381,14.5112083 Z M18.2659026,12.3107955 C18.7340666,12.3107955 19.1270546,12.175934 19.4448665,11.9062112 C19.7626784,11.6364883 20.0025847,11.2679621 20.1645853,10.8006325 C20.3265859,10.333303 20.4075863,9.80234153 20.4075863,9.20774814 C20.4075863,8.61044256 20.3265859,8.07789898 20.1645853,7.61011741 C20.0025847,7.14233583 19.7626784,6.77269694 19.4448665,6.50120073 C19.1270546,6.22970452 18.7340666,6.09395641 18.2659026,6.09395641 C17.7869593,6.09395641 17.3859217,6.22970452 17.0627898,6.50120073 C16.7396578,6.77269694 16.4970915,7.14233583 16.3350909,7.61011741 C16.1730903,8.07789898 16.09209,8.61044256 16.09209,9.20774814 C16.09209,9.80234153 16.1730903,10.333303 16.3350909,10.8006325 C16.4970915,11.2679621 16.7396578,11.6364883 17.0627898,11.9062112 C17.3859217,12.175934 17.7869593,12.3107955 18.2659026,12.3107955 Z" id="Shape"></path>
                <polygon id="Path" points="26.9234367 14.3136364 24.1355238 4.05909091 27.0088704 4.05909091 28.600503 10.9488636 28.6912567 10.9488636 30.3523629 4.05909091 33.1723003 4.05909091 34.8546867 10.906199 34.9454404 10.906199 36.5050484 4.05909091 39.3783949 4.05909091 36.5904821 14.3136364 33.5836129 14.3136364 31.8210086 7.86177646 31.6929102 7.86177646 29.9303059 14.3136364"></polygon>
                <path d="M43.7259288,8.38522727 L43.7259288,14.3136364 L40.8846069,14.3136364 L40.8846069,4.05909091 L43.5924061,4.05909091 L43.5924061,5.86967995 L43.7098644,5.86967995 C43.9394957,5.27147032 44.3211481,4.79789928 44.8548218,4.44896684 C45.3884954,4.1000344 46.035872,3.92556818 46.7969516,3.92556818 C47.5099073,3.92556818 48.1314313,4.08157071 48.6615234,4.39357577 C49.1916156,4.70558083 49.6033107,5.1495439 49.8966087,5.72546498 C50.1899066,6.30138605 50.3352343,6.98678533 50.3326271,7.78166282 L50.3326271,14.3136364 L47.4912698,14.3136364 L47.4912698,8.28904918 C47.4939124,7.66239643 47.3334591,7.17192642 47.0099099,6.81763916 C46.6863607,6.4633519 46.2397376,6.28620827 45.6700406,6.28620827 C45.2872755,6.28620827 44.9496785,6.36920795 44.6572499,6.5352073 C44.3648212,6.70120665 44.1371545,6.94066088 43.9742498,7.25357 C43.8113451,7.56647912 43.7285715,7.94369821 43.7259288,8.38522727 Z" id="Path"></path>
                <polygon id="Path" points="55.4171508 0.640909091 55.4171508 14.3136364 52.5758289 14.3136364 52.5758289 0.640909091"></polygon>
                <path d="M62.3229195,14.5112083 C61.284989,14.5112083 60.389048,14.2902351 59.6350966,13.8482888 C58.8811452,13.4063425 58.2994347,12.7885912 57.889965,11.9950351 C57.4804953,11.2014789 57.2757604,10.2777033 57.2757604,9.22370827 C57.2757604,8.16623609 57.4804953,7.23981786 57.889965,6.44445357 C58.2994347,5.64908928 58.8811452,5.03043398 59.6350966,4.58848766 C60.389048,4.14654134 61.284989,3.92556818 62.3229195,3.92556818 C63.3608501,3.92556818 64.2567911,4.14654134 65.0107425,4.58848766 C65.7646938,5.03043398 66.3464044,5.64908928 66.7558741,6.44445357 C67.1653438,7.23981786 67.3700786,8.16623609 67.3700786,9.22370827 C67.3700786,10.2777033 67.1653438,11.2014789 66.7558741,11.9950351 C66.3464044,12.7885912 65.7646938,13.4063425 65.0107425,13.8482888 C64.2567911,14.2902351 63.3608501,14.5112083 62.3229195,14.5112083 Z M62.338984,12.3107955 C62.807148,12.3107955 63.200136,12.175934 63.5179479,11.9062112 C63.8357599,11.6364883 64.0756661,11.2679621 64.2376667,10.8006325 C64.3996674,10.333303 64.4806677,9.80234153 64.4806677,9.20774814 C64.4806677,8.61044256 64.3996674,8.07789898 64.2376667,7.61011741 C64.0756661,7.14233583 63.8357599,6.77269694 63.5179479,6.50120073 C63.200136,6.22970452 62.807148,6.09395641 62.338984,6.09395641 C61.8600407,6.09395641 61.4590031,6.22970452 61.1358712,6.50120073 C60.8127392,6.77269694 60.570173,7.14233583 60.4081723,7.61011741 C60.2461717,8.07789898 60.1651714,8.61044256 60.1651714,9.20774814 C60.1651714,9.80234153 60.2461717,10.333303 60.4081723,10.8006325 C60.570173,11.2679621 60.8127392,11.6364883 61.1358712,11.9062112 C61.4590031,12.175934 61.8600407,12.3107955 62.338984,12.3107955 Z" id="Shape"></path>
                <path d="M72.1501792,14.5058882 C71.497726,14.5058882 70.9153548,14.3917333 70.4030656,14.1634233 C69.8907765,13.9351133 69.4868702,13.5948564 69.1913469,13.1426525 C68.8958235,12.6904486 68.7480619,12.126541 68.7480619,11.45093 C68.7480619,10.8794249 68.851768,10.4007424 69.0591802,10.0148826 C69.2665925,9.62902277 69.5505543,9.31814779 69.9110657,9.08225763 C70.271577,8.84636748 70.6825941,8.66743312 71.1441168,8.54545455 C71.6056395,8.42347597 72.090546,8.33800752 72.5988364,8.28904918 C73.1925953,8.23035482 73.6721645,8.1731904 74.0375438,8.11755593 C74.4029232,8.06192146 74.6684039,7.97824374 74.833986,7.86652277 C74.9995681,7.7548018 75.0823592,7.58944573 75.0823592,7.37045455 L75.0823592,7.33310991 C75.0823592,6.90938388 74.9492885,6.58180117 74.6831471,6.35036177 C74.4170057,6.11892238 74.04269,6.00320268 73.5602001,6.00320268 C73.048363,6.00320268 72.6408926,6.11513228 72.3377891,6.33899148 C72.0346855,6.56285067 71.8350447,6.84436109 71.7388666,7.18352273 L69.105861,6.96988636 C69.2393838,6.3467803 69.5017524,5.80712595 69.8929671,5.3509233 C70.2841817,4.89472064 70.7904554,4.5431108 71.4117881,4.29609375 C72.0331208,4.0490767 72.7528048,3.92556818 73.5708402,3.92556818 C74.1431798,3.92556818 74.6901709,3.99255556 75.2118136,4.12653032 C75.7334563,4.26050508 76.1976738,4.46701327 76.6044661,4.74605491 C77.0112584,5.02509655 77.3328256,5.38381718 77.5691678,5.8222168 C77.80551,6.26061642 77.9236811,6.78559718 77.9236811,7.39715909 L77.9236811,14.3136364 L75.226522,14.3136364 L75.226522,12.8929754 L75.1464084,12.8929754 C74.9808958,13.2116218 74.7608267,13.4924542 74.4862011,13.7354725 C74.2115754,13.9784908 73.879994,14.167648 73.4914567,14.3029441 C73.1029195,14.4382402 72.655827,14.5058882 72.1501792,14.5058882 Z M72.96738,12.5458163 C73.3848472,12.5458163 73.753582,12.4621386 74.0735845,12.2947832 C74.3935871,12.1274277 74.6443942,11.9008737 74.826006,11.6151212 C75.0076177,11.3293686 75.0984236,11.0075928 75.0984236,10.6497936 L75.0984236,9.56022727 C75.0129552,9.616279 74.8925587,9.66789736 74.7372342,9.71508234 C74.5819097,9.76226733 74.4092169,9.80454952 74.2191556,9.84192893 C74.0290943,9.87930834 73.8385984,9.91268902 73.6476679,9.94207098 C73.4567374,9.97145293 73.2833838,9.9972708 73.1276073,10.0195246 C72.7928964,10.0675789 72.5006938,10.1452411 72.2509993,10.2525113 C72.0013049,10.3597815 71.8072449,10.5035445 71.6688194,10.6838002 C71.5303938,10.8640558 71.4611811,11.0877064 71.4611811,11.3547519 C71.4611811,11.74468 71.6027187,12.0406727 71.8857938,12.2427302 C72.1688689,12.4447876 72.5293977,12.5458163 72.96738,12.5458163 Z" id="Shape"></path>
                <path d="M83.9108487,14.4791837 C83.131062,14.4791837 82.4267296,14.2775609 81.7978515,13.8743153 C81.1689734,13.4710697 80.6704885,12.8768936 80.3023969,12.0917869 C79.9343054,11.3066802 79.7502596,10.3417525 79.7502596,9.19700373 C79.7502596,8.02381185 79.9396428,7.04643592 80.3184092,6.26487593 C80.6971757,5.48331595 81.201902,4.89804133 81.8325883,4.50905207 C82.4632745,4.12006281 83.1542546,3.92556818 83.9055286,3.92556818 C84.4770337,3.92556818 84.9554901,4.02237216 85.3408979,4.21598011 C85.7263057,4.40958807 86.0378587,4.64947695 86.275557,4.93564675 C86.5132553,5.22181655 86.6952843,5.50468306 86.8216441,5.78424627 L86.9070778,5.78424627 L86.9070778,0.640909091 L89.7483997,0.640909091 L89.7483997,14.3136364 L86.9445267,14.3136364 L86.9445267,12.674019 L86.8216441,12.674019 C86.6899295,12.9570594 86.5019024,13.2372137 86.2575627,13.514482 C86.0132231,13.7917503 85.6989927,14.021851 85.3148714,14.204784 C84.9307502,14.3877171 84.4627426,14.4791837 83.9108487,14.4791837 Z M84.8134832,12.2147217 C85.269199,12.2147217 85.6570756,12.0889878 85.9771129,11.83752 C86.2971501,11.5860522 86.5419592,11.2335383 86.71154,10.7799782 C86.8811208,10.3264182 86.9659112,9.79521336 86.9659112,9.18636364 C86.9659112,8.57570579 86.8820075,8.04627427 86.7142,7.59806907 C86.5463926,7.14986387 86.3024876,6.80313943 85.9824851,6.55789573 C85.6624825,6.31265203 85.2728152,6.19003018 84.8134832,6.19003018 C84.3434414,6.19003018 83.9484193,6.31621612 83.6284168,6.56858798 C83.3084143,6.82095984 83.0663,7.17213505 82.902074,7.62211359 C82.737848,8.07209214 82.655735,8.59350882 82.655735,9.18636364 C82.655735,9.78276515 82.7387347,10.3086326 82.904734,10.763966 C83.0707334,11.2192993 83.3137343,11.5749253 83.6337368,11.8308438 C83.9537394,12.0867624 84.3469881,12.2147217 84.8134832,12.2147217 Z" id="Shape"></path>
                <path d="M101.947125,4.05909091 L101.947125,6.19545455 L95.6181481,6.19545455 L95.6181481,4.05909091 L101.947125,4.05909091 Z M97.0655136,14.3136364 L97.0655136,3.31668368 C97.0655136,2.57431123 97.2115019,1.9578813 97.5034786,1.46739391 C97.7954552,0.976906516 98.1951367,0.609719016 98.7025231,0.36583141 C99.2099095,0.121943803 99.7858305,0 100.430286,0 C100.865557,0 101.265012,0.0338327119 101.628653,0.101498136 C101.992294,0.169163559 102.262225,0.229700817 102.438447,0.283109908 L101.936381,2.41404918 C101.824278,2.37934718 101.686773,2.34664455 101.523869,2.31594127 C101.360964,2.285238 101.194043,2.26988636 101.023106,2.26988636 C100.606543,2.26988636 100.316357,2.36646433 100.152549,2.55962025 C99.9887399,2.75277617 99.9068355,3.02293368 99.9068355,3.37009277 L99.9068355,14.3136364 L97.0655136,14.3136364 Z" id="Shape"></path>
                <path d="M107.950286,14.5112083 C106.912355,14.5112083 106.016414,14.2902351 105.262463,13.8482888 C104.508511,13.4063425 103.926801,12.7885912 103.517331,11.9950351 C103.107861,11.2014789 102.903127,10.2777033 102.903127,9.22370827 C102.903127,8.16623609 103.107861,7.23981786 103.517331,6.44445357 C103.926801,5.64908928 104.508511,5.03043398 105.262463,4.58848766 C106.016414,4.14654134 106.912355,3.92556818 107.950286,3.92556818 C108.988216,3.92556818 109.884157,4.14654134 110.638109,4.58848766 C111.39206,5.03043398 111.973771,5.64908928 112.38324,6.44445357 C112.79271,7.23981786 112.997445,8.16623609 112.997445,9.22370827 C112.997445,10.2777033 112.79271,11.2014789 112.38324,11.9950351 C111.973771,12.7885912 111.39206,13.4063425 110.638109,13.8482888 C109.884157,14.2902351 108.988216,14.5112083 107.950286,14.5112083 Z M107.96635,12.3107955 C108.434514,12.3107955 108.827502,12.175934 109.145314,11.9062112 C109.463126,11.6364883 109.703032,11.2679621 109.865033,10.8006325 C110.027034,10.333303 110.108034,9.80234153 110.108034,9.20774814 C110.108034,8.61044256 110.027034,8.07789898 109.865033,7.61011741 C109.703032,7.14233583 109.463126,6.77269694 109.145314,6.50120073 C108.827502,6.22970452 108.434514,6.09395641 107.96635,6.09395641 C107.487407,6.09395641 107.086369,6.22970452 106.763237,6.50120073 C106.440105,6.77269694 106.197539,7.14233583 106.035538,7.61011741 C105.873538,8.07789898 105.792538,8.61044256 105.792538,9.20774814 C105.792538,9.80234153 105.873538,10.333303 106.035538,10.8006325 C106.197539,11.2679621 106.440105,11.6364883 106.763237,11.9062112 C107.086369,12.175934 107.487407,12.3107955 107.96635,12.3107955 Z" id="Shape"></path>
                <path d="M114.85611,14.3136364 L114.85611,4.05909091 L117.611894,4.05909091 L117.611894,5.84829545 L117.718712,5.84829545 C117.905644,5.21274118 118.219214,4.73162472 118.659421,4.40494607 C119.099629,4.07826742 119.606807,3.91492809 120.180954,3.91492809 C120.323379,3.91492809 120.476704,3.92315156 120.64093,3.9395985 C120.805156,3.95604544 120.949127,3.97939453 121.072845,4.00964577 L121.072845,6.53718928 C120.942034,6.49448982 120.758684,6.45801447 120.522794,6.42776323 C120.286903,6.39751199 120.069686,6.38238636 119.87114,6.38238636 C119.455481,6.38238636 119.083634,6.4725142 118.755599,6.65276989 C118.427565,6.83302557 118.169195,7.08315467 117.980489,7.40315718 C117.791784,7.7231597 117.697432,8.09325062 117.697432,8.51342995 L117.697432,14.3136364 L114.85611,14.3136364 Z" id="Path"></path>
            </g>
        </g>
    </g>
</svg>