<?xml version="1.0" encoding="UTF-8"?>
<svg width="288px" height="87px" viewBox="0 0 288 87" version="1.1" xmlns="http://www.w3.org/2000/svg" xmlns:xlink="http://www.w3.org/1999/xlink">
    <title>Forge</title>
    <g id="Page-1" stroke="none" stroke-width="1" fill="none" fill-rule="evenodd">
        <g id="Forge">
            <rect id="Rectangle" stroke="#26303D" fill="#26303D" x="0.5" y="0.5" width="287" height="86" rx="20"></rect>
            <g id="Group-12" transform="translate(25.000000, 12.000000)" fill-rule="nonzero">
                <path d="M80.6756757,14.6756757 L42.3648649,12.75 L89.1891892,12.75 L89.1891892,9 L36.2837838,9 L36.2837838,16.9054054 L36.2837838,23.1891892 C36.2837838,23.2905405 34.7635135,13.9662162 34.3581081,11.3310811 L30.2027027,11.3310811 L30.2027027,18.222973 L30.2027027,24.5067568 C30.2027027,24.6081081 28.3783784,13.4594595 28.277027,12.0405405 C17.7364865,12.0405405 0,12.0405405 0,12.0405405 C1.92567568,13.6621622 12.5675676,22.7837838 20.1689189,26.5337838 C23.9189189,28.3581081 28.5810811,28.4594595 32.7364865,28.5608108 C34.8648649,28.6621622 36.9932432,28.7635135 38.6148649,30.3851351 C40.9459459,32.6148649 41.4527027,36.1621622 39.4256757,38.7972973 C37.5,41.4324324 32.027027,42.0405405 32.027027,42.0405405 L27.3648649,47.5135135 L27.3648649,54 L37.8040541,54 L38.1081081,47.6148649 L47.1283784,41.2297297 C46.2162162,42.0405405 43.9864865,44.0675676 40.8445946,49.0337838 C40.1351351,50.1486486 39.527027,51.3648649 39.1216216,52.5810811 C41.3513514,50.6554054 46.0135135,49.3378378 51.4864865,49.3378378 C56.8581081,49.3378378 61.5202703,50.6554054 63.75,52.5810811 C63.3445946,51.3648649 62.7364865,50.1486486 62.027027,49.0337838 C58.7837838,44.0675676 56.6554054,42.0405405 55.7432432,41.2297297 L64.7635135,47.6148649 L65.0675676,54 L74.7972973,54 L74.7972973,47.5135135 L70.2364865,41.9391892 C70.2364865,41.9391892 63.4459459,41.5337838 61.722973,38.6959459 C56.4527027,30.7905405 63.6486486,18.4256757 80.6756757,14.6756757 Z" id="Path" fill="#FAF4F3"></path>
                <g id="Group-11" transform="translate(108.000000, 0.000000)">
                    <g id="Created-for" fill="#FFFFFF">
                        <path d="M8.00656252,19.4029851 C10.2526279,19.4029851 12.1551774,18.5031573 13.5820896,16.7853042 L11.5209943,14.2766935 C10.6754167,15.2037887 9.56559614,15.9400115 8.16510831,15.9400115 C5.62837563,15.9400115 3.99006911,13.8131458 3.99006911,10.1592997 C3.99006911,6.58725603 5.86619432,4.43312285 8.21795691,4.43312285 C9.45989895,4.43312285 10.3847494,5.03300804 11.2567513,5.8510333 L13.3178466,3.28788749 C12.1551774,2.0608496 10.3583251,0.970149254 8.13868401,0.970149254 C3.77867472,0.970149254 0,4.40585534 0,10.2956372 C0,16.2672216 3.64655323,19.4029851 8.00656252,19.4029851 Z" id="Path"></path>
                        <path d="M15.5223881,19.4029851 L19.3652248,19.4029851 L19.3652248,11.7029028 C20.0449102,9.91156423 21.2474305,9.2698907 22.2146751,9.2698907 C22.7636518,9.2698907 23.155778,9.35009989 23.6263294,9.48378188 L24.2537313,6.08825949 C23.8877469,5.92784111 23.4433372,5.82089552 22.7113683,5.82089552 C21.3781392,5.82089552 19.9664849,6.67646022 19.0253821,8.4677988 L18.9208151,8.4677988 L18.6593976,6.14173228 L15.5223881,6.14173228 L15.5223881,19.4029851 Z" id="Path"></path>
                        <path d="M31.790374,19.4029851 C33.3338923,19.4029851 35.06054,18.8544776 36.3947677,17.9402985 L35.1128627,15.6156716 C34.1710548,16.1902985 33.2815697,16.4776119 32.3136005,16.4776119 C30.5869529,16.4776119 29.2788865,15.6156716 28.9387892,13.7350746 L36.7087037,13.7350746 C36.7871877,13.4216418 36.8656716,12.7164179 36.8656716,12.0373134 C36.8656716,8.51119403 35.0343787,5.82089552 31.3456314,5.82089552 C28.2324333,5.82089552 25.2238806,8.40671642 25.2238806,12.6119403 C25.2238806,16.8955224 28.0754654,19.4029851 31.790374,19.4029851 Z M28.9126279,11.2014925 C29.1742412,9.55597015 30.2206943,8.74626866 31.4241154,8.74626866 C32.9676337,8.74626866 33.5955056,9.76492537 33.5955056,11.2014925 L28.9126279,11.2014925 Z" id="Shape"></path>
                        <path d="M43.8206853,19.4029851 C45.3510616,19.4029851 46.6081564,18.7238806 47.7559386,17.7574627 L47.8652512,17.7574627 L48.1385327,19.0895522 L51.4179104,19.0895522 L51.4179104,11.6716418 C51.4179104,7.70149254 49.5049401,5.82089552 46.0342653,5.82089552 C43.9026697,5.82089552 41.9623712,6.5261194 40.2406979,7.51865672 L41.6890898,10.0522388 C43.0008409,9.32089552 44.1212949,8.87686567 45.2690771,8.87686567 C46.7447971,8.87686567 47.3186882,9.60820896 47.4006727,10.7574627 C42.0443557,11.2798507 39.7761194,12.7686567 39.7761194,15.4850746 C39.7761194,17.6791045 41.3338238,19.4029851 43.8206853,19.4029851 Z M45.1870927,16.4253731 C44.2306075,16.4253731 43.6293883,16.0335821 43.6293883,15.1977612 C43.6293883,14.2052239 44.5585453,13.4216418 47.4006727,13.0559701 L47.4006727,15.3283582 C46.6901408,16.0074627 46.0889216,16.4253731 45.1870927,16.4253731 Z" id="Shape"></path>
                        <path d="M59.0317752,19.4029851 C60.3660779,19.4029851 61.3668049,19.1301306 62.0895522,18.911847 L61.4501989,15.9923041 C61.0888252,16.1287313 60.5884617,16.2651586 60.1436941,16.2651586 C59.0595732,16.2651586 58.3646239,15.6375933 58.3646239,14.1096082 L58.3646239,8.6798041 L61.6725826,8.6798041 L61.6725826,5.54197761 L58.3646239,5.54197761 L58.3646239,1.94029851 L54.9732712,1.94029851 L54.5007056,5.54197761 L52.3880597,5.7056903 L52.3880597,8.6798041 L54.2783219,8.6798041 L54.2783219,14.1641791 C54.2783219,17.3020056 55.6126246,19.4029851 59.0317752,19.4029851 Z" id="Path"></path>
                        <path d="M69.6261949,19.4029851 C71.1697132,19.4029851 72.8963609,18.8544776 74.2305886,17.9402985 L72.9486835,15.6156716 C72.0068757,16.1902985 71.1173906,16.4776119 70.1494214,16.4776119 C68.4227738,16.4776119 67.1147074,15.6156716 66.7746101,13.7350746 L74.5445246,13.7350746 C74.6230086,13.4216418 74.7014925,12.7164179 74.7014925,12.0373134 C74.7014925,8.51119403 72.8701996,5.82089552 69.1814523,5.82089552 C66.0682542,5.82089552 63.0597015,8.40671642 63.0597015,12.6119403 C63.0597015,16.8955224 65.9112863,19.4029851 69.6261949,19.4029851 Z M66.7484488,11.2014925 C67.010062,9.55597015 68.0565152,8.74626866 69.2599363,8.74626866 C70.8034546,8.74626866 71.4313265,9.76492537 71.4313265,11.2014925 L66.7484488,11.2014925 Z" id="Shape"></path>
                        <path d="M81.1305413,19.4029851 C82.4213156,19.4029851 83.738981,18.6954428 84.6801706,17.7429821 L84.7877351,17.7429821 L85.0566464,19.0764271 L88.2835821,19.0764271 L88.2835821,0 L84.3305859,0 L84.3305859,4.59902451 L84.4919327,6.66722489 C83.5776342,5.79640368 82.6902269,5.25214042 81.2112147,5.25214042 C78.387646,5.25214042 75.6716418,7.91903037 75.6716418,12.3275627 C75.6716418,16.7360951 77.8229322,19.4029851 81.1305413,19.4029851 Z M82.1524043,16.1374055 C80.6196098,16.1374055 79.7322025,14.9400264 79.7322025,12.2731364 C79.7322025,9.71509912 80.86163,8.51771996 82.1255132,8.51771996 C82.8515737,8.51771996 83.6314165,8.73542526 84.3305859,9.38854117 L84.3305859,14.9128132 C83.6851987,15.8108476 83.0129205,16.1374055 82.1524043,16.1374055 Z" id="Shape"></path>
                        <path d="M97.8847144,19.4029851 L101.982759,19.4029851 L101.982759,9.03477005 L104.463887,9.03477005 L104.463887,5.90525633 L101.982759,5.90525633 L101.982759,5.08886144 C101.982759,3.70099014 102.568194,3.15672688 103.571796,3.15672688 C104.017842,3.15672688 104.519643,3.26557954 104.993567,3.42885851 L105.746269,0.48983693 C105.132956,0.272131628 104.129353,0 102.986361,0 C99.2507291,0 97.8847144,2.340332 97.8847144,5.19771409 L97.8847144,5.93246949 L96.0447761,6.0685353 L96.0447761,9.03477005 L97.8847144,9.03477005 L97.8847144,19.4029851 Z" id="Path"></path>
                        <path d="M112.065295,19.4029851 C115.329254,19.4029851 118.358209,16.9216418 118.358209,12.6119403 C118.358209,8.30223881 115.329254,5.82089552 112.065295,5.82089552 C108.775223,5.82089552 105.746269,8.30223881 105.746269,12.6119403 C105.746269,16.9216418 108.775223,19.4029851 112.065295,19.4029851 Z M112.065295,16.2947761 C110.472482,16.2947761 109.689132,14.858209 109.689132,12.6119403 C109.689132,10.3656716 110.472482,8.92910448 112.065295,8.92910448 C113.631995,8.92910448 114.441457,10.3656716 114.441457,12.6119403 C114.441457,14.858209 113.631995,16.2947761 112.065295,16.2947761 Z" id="Shape"></path>
                        <path d="M121.268657,19.4029851 L125.111493,19.4029851 L125.111493,11.7029028 C125.791179,9.91156423 126.993699,9.2698907 127.960944,9.2698907 C128.50992,9.2698907 128.902047,9.35009989 129.372598,9.48378188 L130,6.08825949 C129.634016,5.92784111 129.189606,5.82089552 128.457637,5.82089552 C127.124408,5.82089552 125.712754,6.67646022 124.771651,8.4677988 L124.667084,8.4677988 L124.405666,6.14173228 L121.268657,6.14173228 L121.268657,19.4029851 Z" id="Path"></path>
                    </g>
                    <g id="Group" transform="translate(0.000000, 31.000000)" fill="#DFA86A">
                        <polygon id="Path" points="0 30.6770833 7.36869475 30.6770833 7.36869475 19.3077257 19.5371815 19.3077257 19.5371815 12.3784722 7.36869475 12.3784722 7.36869475 7.66927083 20.2808112 7.66927083 20.2808112 0.740017361 0 0.740017361"></polygon>
                        <path d="M48.1331253,4.23828125 C46.7134685,2.82552083 45.0234009,1.81640625 43.0629225,1.07638889 C41.2376495,0.403645833 39.1419657,0.0672743056 36.9786791,0.0672743056 L36.7082683,0.0672743056 C34.4097764,0.0672743056 32.3140926,0.470920139 30.4212168,1.2109375 C28.4607384,1.95095486 26.7706708,3.02734375 25.4186167,4.44010417 C23.99896,5.85286458 22.9173167,7.53472222 22.1060842,9.48567708 C21.2948518,11.4366319 20.9568383,13.5894097 20.9568383,15.9440104 C20.9568383,18.2313368 21.3624545,20.3841146 22.1736869,22.2677951 C22.9849194,24.1514757 24.0665627,25.8333333 25.4862194,27.1788194 C26.9058762,28.5243056 28.5959438,29.6006944 30.4888196,30.3407118 C32.3816953,31.0807292 34.5449818,31.484375 36.775871,31.484375 L36.775871,31.484375 L36.775871,31.484375 C39.074363,31.484375 41.2376495,31.0807292 43.1305252,30.2734375 C45.0910036,29.5334201 46.7810712,28.3897569 48.200728,27.0442708 C49.6203848,25.6987847 50.7020281,24.0169271 51.5132605,22.0659722 C52.324493,20.1822917 52.7301092,18.0295139 52.7301092,15.7421875 C52.7301092,13.3875868 52.324493,11.234809 51.5808632,9.28385417 C50.6344254,7.33289931 49.4851794,5.65104167 48.1331253,4.23828125 Z M44.9557982,15.5403646 C44.9557982,16.8858507 44.7529901,18.0967882 44.3473739,19.1731771 C43.9417577,20.249566 43.400936,21.1914063 42.6573063,21.9986979 C41.9812793,22.7387153 41.1024441,23.4114583 40.0884035,23.8151042 C39.074363,24.2860243 37.925117,24.4878472 36.7082683,24.4878472 C35.4914197,24.4878472 34.3421737,24.2860243 33.3281331,23.8151042 C32.3140926,23.344184 31.5028601,22.7387153 30.7592304,21.9986979 C30.0156006,21.1914063 29.474779,20.249566 29.0691628,19.1731771 C28.6635465,18.0967882 28.4607384,16.8185764 28.4607384,15.5403646 C28.4607384,14.3294271 28.6635465,13.1857639 29.0691628,12.1766493 C29.474779,11.1675347 30.0156006,10.2256944 30.7592304,9.48567708 C31.4352574,8.74565972 32.3140926,8.14019097 33.3281331,7.66927083 C34.3421737,7.265625 35.423817,6.99652778 36.7082683,6.99652778 C37.925117,6.99652778 39.074363,7.19835069 40.0884035,7.66927083 C41.1024441,8.07291667 41.9812793,8.67838542 42.6573063,9.48567708 C43.400936,10.2256944 43.9417577,11.1675347 44.3473739,12.1766493 C44.7529901,13.1857639 44.9557982,14.3294271 44.9557982,15.5403646 Z" id="Shape"></path>
                        <path d="M74.4305772,15.6749132 C75.7150286,14.1276042 76.3910556,12.1766493 76.3910556,9.88932292 C76.3910556,8.14019097 76.0530421,6.66015625 75.3770151,5.44921875 C74.700988,4.23828125 73.7545502,3.29644097 72.6729069,2.62369792 C71.5912637,1.95095486 70.374415,1.48003472 68.9547582,1.2109375 C67.6703068,0.941840278 66.25065,0.807291667 64.8985959,0.807291667 L54.0821633,0.807291667 L54.0821633,30.7443576 L61.5184607,30.7443576 L61.5184607,19.0386285 L63.0733229,19.0386285 L69.4279771,30.6770833 L78.2839314,30.6770833 L70.7124285,18.1640625 C72.199688,17.6258681 73.4841394,16.8185764 74.4305772,15.6749132 Z M61.3832553,7.40017361 L64.3577743,7.40017361 C64.8985959,7.40017361 65.5070203,7.46744792 66.1154446,7.53472222 C66.6562663,7.60199653 67.1294852,7.73654514 67.5351014,7.93836806 C67.8731149,8.07291667 68.1435257,8.34201389 68.3463339,8.61111111 C68.549142,8.88020833 68.6167447,9.28385417 68.6167447,9.82204861 C68.6167447,10.4275174 68.4815393,10.8984375 68.2787311,11.234809 C68.075923,11.5711806 67.7379095,11.7730035 67.399896,11.9075521 C66.9266771,12.109375 66.3858554,12.2439236 65.8450338,12.3111979 C65.1690068,12.3784722 64.4929797,12.3784722 63.8845554,12.3784722 L61.3156526,12.3784722 L61.3156526,7.40017361 L61.3832553,7.40017361 Z" id="Shape"></path>
                        <path d="M86.9370775,9.41840278 C87.6131045,8.67838542 88.4919397,8.07291667 89.5059802,7.60199653 C90.5200208,7.19835069 91.6016641,6.92925347 92.8861154,6.92925347 C94.1029641,6.92925347 95.3198128,7.13107639 96.4690588,7.53472222 C97.550702,7.93836806 98.4971399,8.4765625 99.2407696,9.21657986 L100.119605,10.0911458 L105.527821,4.64192708 L104.513781,3.76736111 C102.891316,2.35460069 101.066043,1.34548611 99.0379615,0.807291667 C97.0774831,0.269097222 94.9817993,0 92.8185127,0 C90.5200208,0 88.424337,0.403645833 86.5314613,1.14366319 C84.5709828,1.88368056 82.8809152,2.96006944 81.5288612,4.37282986 C80.1092044,5.78559028 79.0275611,7.46744792 78.2163287,9.41840278 C77.4050962,11.3693576 77.0670827,13.5221354 77.0670827,15.8767361 C77.0670827,18.1640625 77.4726989,20.3168403 78.2839314,22.2005208 C79.0951638,24.0842014 80.1768071,25.766059 81.5964639,27.1115451 C83.0161206,28.4570312 84.7061882,29.5334201 86.599064,30.2734375 C88.4919397,31.0134549 90.6552262,31.4171007 92.8861154,31.4171007 C97.2802912,31.4171007 101.336453,30.4752604 104.919397,28.5243056 L105.595424,28.187934 L105.595424,12.109375 L92.5481019,12.109375 L92.5481019,19.0386285 L98.2267291,19.0386285 L98.2267291,23.5460069 C97.6183047,23.8151042 97.0098804,24.0169271 96.2662507,24.1514757 C95.2522101,24.3532986 94.1705668,24.4878472 93.0213209,24.4878472 C91.8044722,24.4878472 90.6552262,24.2860243 89.6411856,23.8151042 C88.6271451,23.344184 87.8159126,22.7387153 87.0722829,21.9986979 C86.3286531,21.1914062 85.7878315,20.249566 85.3822153,19.1731771 C84.9765991,18.0967882 84.773791,16.8185764 84.773791,15.5403646 C84.773791,14.3294271 84.9765991,13.1857639 85.3822153,12.1766493 C85.7202288,11.1002604 86.2610504,10.1584201 86.9370775,9.41840278 Z" id="Path"></path>
                        <polygon id="Path" points="115.938638 23.7478299 115.938638 18.8368056 128.580343 18.8368056 128.580343 11.9075521 115.938638 11.9075521 115.938638 7.66927083 129.323973 7.66927083 129.323973 0.740017361 108.50234 0.740017361 108.50234 30.6770833 130 30.6770833 130 23.7478299"></polygon>
                    </g>
                </g>
            </g>
        </g>
    </g>
</svg>