<?xml version="1.0" encoding="UTF-8"?>
<svg viewBox="0 0 248 87" version="1.1" xmlns="http://www.w3.org/2000/svg" xmlns:xlink="http://www.w3.org/1999/xlink">
    <title>modrinth_download</title>
    <g id="Page-1" stroke="none" stroke-width="1" fill="none" fill-rule="evenodd">
        <g id="modrinth_download">
            <g id="modrinth" fill="#0E1115" stroke="#23272D">
                <rect id="Rectangle" x="0.5" y="0.5" width="247" height="86" rx="20"></rect>
            </g>
            <g id="Group-3" transform="translate(19.000000, 16.000000)">
                <g id="Group" fill="#36DD71">
                    <path d="M2.75328903,40.2445178 L20.6211854,29.5338244 L18.9929472,25.221099 L24.096026,19.9857082 L30.5453682,18.5974431 L32.4128577,20.8932013 L29.4393056,23.9011091 L26.8474162,24.7166201 L24.9941679,26.6178986 L25.9018039,29.1402929 L27.7436593,31.0937262 L30.3412451,30.4033867 L32.1897464,28.3759885 L36.2256883,27.0986707 L37.4285908,29.8012361 L33.2635291,34.9010245 L26.2853655,37.1076454 L23.1551607,33.6274998 L5.22745151,44.3732791 C4.37678014,43.2799255 3.3865455,41.7314029 2.75328903,40.2445178 Z M54.3091008,18.4106342 L40.1154211,22.234053 C40.897735,24.3126577 41.1550251,25.5340276 41.3714906,26.880569 L55.5395361,23.0628397 C55.3135766,21.5512996 54.9081785,20.0122598 54.3091008,18.4106342 Z" id="Shape"></path>
                    <path d="M4.86857453,29.9776141 C5.87399973,41.8309711 15.8380578,51.1524511 27.9648718,51.1524511 C37.1276278,51.1524511 45.0561508,45.8307679 48.8167639,38.1175514 L53.4318459,39.7134874 C48.9905059,49.323241 39.2524074,56 27.9648718,56 C13.1588227,56 1.01681812,44.5098298 0,29.9776141 L4.86857453,29.9776141 Z M0.0740539807,25.1518754 C1.50576428,11.034053 13.4559881,0 27.9658212,0 C43.4383562,0 56,12.5465414 56,28.0004741 C56,30.4792482 55.6772006,32.883109 55.0695782,35.1722293 L50.4668385,33.5810346 C50.9191036,31.7552714 51.1470579,29.8812882 51.1456666,28.0004741 C51.1456666,15.2225552 40.7591211,4.84849716 27.9658212,4.84849716 C16.1380713,4.84849716 6.36769293,13.7148082 4.95971789,25.1518754 L0.0759528008,25.1518754 L0.0740539807,25.1518754 Z" id="Shape"></path>
                    <path d="M27.8908178,14.5246296 C20.4388987,14.5312675 14.3902075,20.5774278 14.3902075,28.0222843 C14.3902075,35.4718821 20.446494,41.519939 27.905059,41.519939 C28.2829242,41.519939 28.6579411,41.5047667 29.028211,41.4734739 L30.3782721,46.1920583 C29.5584939,46.3022795 28.7322314,46.3570586 27.905059,46.3570586 C17.7729554,46.3570586 9.54726706,38.1412581 9.54726706,28.0222843 C9.54726706,17.9023622 17.7729554,9.68751164 27.905059,9.68751164 C28.1557032,9.68751164 28.4063475,9.69225298 28.6550929,9.70268394 L27.8908178,14.5246296 L27.8908178,14.5246296 Z M33.4163841,10.5295741 C40.8588092,12.8689527 46.2619015,19.8207095 46.2619015,28.0222843 C46.2619015,35.6150707 41.6316289,42.1353653 35.0398752,44.9185336 L33.6945612,40.2198628 C38.2593246,38.0530692 41.4189611,33.4027601 41.4189611,28.0222843 C41.4189611,22.2387943 37.769429,17.3002117 32.647362,15.3799678 L33.4163841,10.5295741 L33.4163841,10.5295741 Z" id="Shape"></path>
                </g>
                <g id="Group-2" transform="translate(66.000000, 3.000000)" fill="#FFFFFF" fill-rule="nonzero">
                    <g id="Download-on">
                        <path d="M5.87870622,17 L0,17 L0,0 L5.93060918,0 C7.59850862,0 9.03497572,0.338948568 10.2400105,1.0168457 C11.4450453,1.69474284 12.3729689,2.66759872 13.0237813,3.93541336 C13.6745938,5.203228 14,6.72034709 14,8.48677063 C14,10.257604 13.6743195,11.7791328 13.0229585,13.0513573 C12.3715974,14.3235817 11.4393486,15.2997449 10.2262119,15.979847 C9.01307521,16.659949 7.56390665,17 5.87870622,17 Z M3.50648787,13.9188538 L5.72958016,13.9188538 C6.77101512,13.9188538 7.64631842,13.7290382 8.35549005,13.3494072 C9.06466168,12.9697762 9.59938874,12.3803991 9.95967122,11.5812759 C10.3199537,10.7821528 10.5000949,9.75065104 10.5000949,8.48677063 C10.5000949,7.22721354 10.3194262,6.19955953 9.95808881,5.40380859 C9.59675139,4.60805766 9.06310037,4.02200953 8.35713575,3.64566422 C7.65117113,3.2693189 6.77966561,3.08114624 5.7426192,3.08114624 L3.50648787,3.08114624 L3.50648787,13.9188538 Z" id="Shape"></path>
                        <path d="M23,17 C21.766121,17 20.7010375,16.7286276 19.8047495,16.1858827 C18.9084615,15.6431378 18.2169312,14.8844906 17.7301587,13.9099411 C17.2433862,12.9353916 17,11.8009224 17,10.5065334 C17,9.20787428 17.2433862,8.07015971 17.7301587,7.0933897 C18.2169312,6.11661969 18.9084615,5.35686224 19.8047495,4.81411735 C20.7010375,4.27137245 21.766121,4 23,4 C24.233879,4 25.2989625,4.27137245 26.1952505,4.81411735 C27.0915385,5.35686224 27.7830688,6.11661969 28.2698413,7.0933897 C28.7566138,8.07015971 29,9.20787428 29,10.5065334 C29,11.8009224 28.7566138,12.9353916 28.2698413,13.9099411 C27.7830688,14.8844906 27.0915385,15.6431378 26.1952505,16.1858827 C25.2989625,16.7286276 24.233879,17 23,17 Z M23.0190972,14.2977197 C23.5756448,14.2977197 24.0428241,14.1320992 24.4206349,13.8008583 C24.7984458,13.4696174 25.0836434,13.0170382 25.2762277,12.4431207 C25.468812,11.8692032 25.5651042,11.2171407 25.5651042,10.4869331 C25.5651042,9.75339482 25.468812,9.09938936 25.2762277,8.52491673 C25.0836434,7.9504441 24.7984458,7.49649842 24.4206349,7.16307968 C24.0428241,6.82966094 23.5756448,6.66295158 23.0190972,6.66295158 C22.4497354,6.66295158 21.9729869,6.82966094 21.5888517,7.16307968 C21.2047164,7.49649842 20.9163566,7.9504441 20.7237723,8.52491673 C20.531188,9.09938936 20.4348958,9.75339482 20.4348958,10.4869331 C20.4348958,11.2171407 20.531188,11.8692032 20.7237723,12.4431207 C20.9163566,13.0170382 21.2047164,13.4696174 21.5888517,13.8008583 C21.9729869,14.1320992 22.4497354,14.2977197 23.0190972,14.2977197 Z" id="Shape"></path>
                        <polygon id="Path" points="33.4750896 17 30 4 33.5815814 4 35.5655265 12.734375 35.6786496 12.734375 37.7491925 4 41.2642003 4 43.3612685 12.6802877 43.4743916 12.6802877 45.4184186 4 49 4 45.5249104 17 41.776895 17 39.5798363 8.82078044 39.4201637 8.82078044 37.223105 17"></polygon>
                        <path d="M53.6087839,9.58097686 L53.6087839,17 L50,17 L50,4.16709512 L53.4391957,4.16709512 L53.4391957,6.43293099 L53.5883803,6.43293099 C53.8800367,5.68431006 54.3647763,5.09166633 55.0425991,4.6549998 C55.720422,4.21833327 56.5426598,4 57.5093125,4 C58.4148428,4 59.204245,4.19522714 59.877519,4.58568143 C60.550793,4.97613572 61.0736899,5.53172698 61.4462098,6.25245521 C61.8187297,6.97318344 62.0033115,7.83091661 62,8.82565472 L62,17 L58.3911711,17 L58.3911711,9.46061616 C58.3945276,8.67640049 58.1907347,8.06260879 57.7797924,7.61924104 C57.3688502,7.1758733 56.8015909,6.95418943 56.0780146,6.95418943 C55.5918618,6.95418943 55.1630774,7.05805819 54.7916616,7.26579571 C54.4202458,7.47353323 54.1310846,7.77319482 53.9241782,8.16478049 C53.7172718,8.55636615 53.6121403,9.02843161 53.6087839,9.58097686 Z" id="Path"></path>
                        <polygon id="Path" points="68 0 68 17 65 17 65 0"></polygon>
                        <path d="M77,17 C75.766121,17 74.7010375,16.7286276 73.8047495,16.1858827 C72.9084615,15.6431378 72.2169312,14.8844906 71.7301587,13.9099411 C71.2433862,12.9353916 71,11.8009224 71,10.5065334 C71,9.20787428 71.2433862,8.07015971 71.7301587,7.0933897 C72.2169312,6.11661969 72.9084615,5.35686224 73.8047495,4.81411735 C74.7010375,4.27137245 75.766121,4 77,4 C78.233879,4 79.2989625,4.27137245 80.1952505,4.81411735 C81.0915385,5.35686224 81.7830688,6.11661969 82.2698413,7.0933897 C82.7566138,8.07015971 83,9.20787428 83,10.5065334 C83,11.8009224 82.7566138,12.9353916 82.2698413,13.9099411 C81.7830688,14.8844906 81.0915385,15.6431378 80.1952505,16.1858827 C79.2989625,16.7286276 78.233879,17 77,17 Z M77.0190972,14.2977197 C77.5756448,14.2977197 78.0428241,14.1320992 78.4206349,13.8008583 C78.7984458,13.4696174 79.0836434,13.0170382 79.2762277,12.4431207 C79.468812,11.8692032 79.5651042,11.2171407 79.5651042,10.4869331 C79.5651042,9.75339482 79.468812,9.09938936 79.2762277,8.52491673 C79.0836434,7.9504441 78.7984458,7.49649842 78.4206349,7.16307968 C78.0428241,6.82966094 77.5756448,6.66295158 77.0190972,6.66295158 C76.4497354,6.66295158 75.9729869,6.82966094 75.5888517,7.16307968 C75.2047164,7.49649842 74.9163566,7.9504441 74.7237723,8.52491673 C74.531188,9.09938936 74.4348958,9.75339482 74.4348958,10.4869331 C74.4348958,11.2171407 74.531188,11.8692032 74.7237723,12.4431207 C74.9163566,13.0170382 75.2047164,13.4696174 75.5888517,13.8008583 C75.9729869,14.1320992 76.4497354,14.2977197 77.0190972,14.2977197 Z" id="Shape"></path>
                        <path d="M89.0785575,17 C88.2963776,17 87.598214,16.8597382 86.9840668,16.5792146 C86.3699196,16.298691 85.885705,15.8806186 85.531423,15.3249973 C85.177141,14.769376 85,14.0765049 85,13.2463841 C85,12.5441779 85.1243259,11.9560226 85.3729778,11.481918 C85.6216297,11.0078135 85.9620514,10.6258426 86.3942429,10.3360052 C86.8264344,10.0461679 87.3191736,9.82631186 87.8724605,9.67643724 C88.4257474,9.52656262 89.0070675,9.42154785 89.6164209,9.36139292 C90.3282364,9.28927537 90.9031578,9.21903767 91.3411853,9.1506798 C91.7792128,9.08232193 92.0974788,8.97950743 92.2959834,8.84223629 C92.4944881,8.70496515 92.5937404,8.50179275 92.5937404,8.2327191 L92.5937404,8.18683388 C92.5937404,7.66620328 92.4342114,7.26370362 92.1151533,6.97933489 C91.7960952,6.69496617 91.3473547,6.5527818 90.7689317,6.5527818 C90.1553264,6.5527818 89.6668391,6.69030929 89.3034697,6.96536425 C88.9401003,7.24041922 88.7007651,7.58631002 88.585464,8.00303667 L85.4289401,7.74054246 C85.589011,6.97493435 85.9035463,6.31186305 86.3725458,5.75132854 C86.8415453,5.19079404 87.448481,4.75877232 88.1933527,4.45526339 C88.9382245,4.15175446 89.8010027,4 90.7816873,4 C91.4678248,4 92.1235737,4.08230714 92.7489342,4.24692143 C93.3742947,4.41153572 93.9308121,4.66527157 94.4184866,5.008129 C94.9061611,5.35098642 95.2916652,5.79174513 95.5749991,6.33040512 C95.858333,6.86906511 96,7.51410703 96,8.26553087 L96,16.7637808 L92.766567,16.7637808 L92.766567,15.01822 L92.6705244,15.01822 C92.4721032,15.4097397 92.2082779,15.7547974 91.8790487,16.0533931 C91.5498194,16.3519888 91.1523099,16.5844055 90.6865202,16.7506433 C90.2207304,16.9168811 89.6847429,17 89.0785575,17 Z M90.0582417,14.5916669 C90.5587135,14.5916669 91.0007636,14.4888524 91.3843919,14.2832234 C91.7680203,14.0775944 92.0686952,13.7992283 92.2864167,13.4481253 C92.5041382,13.0970222 92.6129989,12.7016573 92.6129989,12.2620308 L92.6129989,10.9232847 C92.5105369,10.9921553 92.3662021,11.0555786 92.1799945,11.1135546 C91.993787,11.1715306 91.7867578,11.2234826 91.5589068,11.2694105 C91.3310558,11.3153385 91.1026838,11.3563532 90.8737907,11.3924547 C90.6448975,11.4285562 90.4370763,11.4602785 90.2503268,11.4876216 C89.8490657,11.5466657 89.4987646,11.6420891 89.1994236,11.7738916 C88.9000826,11.9056941 88.6674378,12.0823351 88.5014893,12.3038146 C88.3355408,12.5252941 88.2525665,12.8000927 88.2525665,13.1282104 C88.2525665,13.6073136 88.4222458,13.9709988 88.7616046,14.2192661 C89.1009633,14.4675333 89.5331757,14.5916669 90.0582417,14.5916669 Z" id="Shape"></path>
                        <path d="M102.993636,17 C102.057718,17 101.212361,16.7523111 100.457567,16.2569332 C99.7027732,15.7615553 99.1044801,15.0316237 98.6626881,14.0671383 C98.220896,13.1026529 98,11.9172616 98,10.5109642 C98,9.06972513 98.2273021,7.86904143 98.6819064,6.90891308 C99.1365107,5.94878473 99.7422949,5.2297884 100.499259,4.75192411 C101.256224,4.27405981 102.085554,4.03512766 102.98725,4.03512766 C103.673184,4.03512766 104.247439,4.1540491 104.710014,4.39189199 C105.172589,4.62973488 105.546523,4.92443282 105.831814,5.2759858 C106.117105,5.62753878 106.33558,5.97503373 106.48724,6.31847067 L106.589779,6.31847067 L106.589779,0 L110,0 L110,16.796629 L106.634727,16.796629 L106.634727,14.782397 L106.48724,14.782397 C106.329153,15.1301055 106.103478,15.4742686 105.810216,15.8148863 C105.516954,16.155504 105.139808,16.4381773 104.678776,16.6629064 C104.217745,16.8876355 103.656032,17 102.993636,17 Z M104.076999,14.2181608 C104.623959,14.2181608 105.089498,14.0636997 105.473614,13.7547773 C105.85773,13.4458549 106.151556,13.0127997 106.35509,12.4556118 C106.558625,11.8984238 106.660393,11.2458509 106.660393,10.4978931 C106.660393,9.74771406 106.55969,9.09731969 106.358283,8.54670999 C106.156877,7.99610028 105.864136,7.57015732 105.480062,7.26888112 C105.095987,6.96760491 104.6283,6.81696681 104.076999,6.81696681 C103.512844,6.81696681 103.038729,6.97198331 102.654654,7.2820163 C102.27058,7.59204929 101.979989,8.0234599 101.782881,8.57624812 C101.585773,9.12903635 101.487219,9.76958467 101.487219,10.4978931 C101.487219,11.2305585 101.586837,11.8765745 101.786073,12.435941 C101.98531,12.9953075 102.276965,13.4321858 102.66104,13.7465758 C103.045114,14.0609658 103.5171,14.2181608 104.076999,14.2181608 Z" id="Shape"></path>
                        <path d="M124,17 C122.766121,17 121.701038,16.7286276 120.80475,16.1858827 C119.908461,15.6431378 119.216931,14.8844906 118.730159,13.9099411 C118.243386,12.9353916 118,11.8009224 118,10.5065334 C118,9.20787428 118.243386,8.07015971 118.730159,7.0933897 C119.216931,6.11661969 119.908461,5.35686224 120.80475,4.81411735 C121.701038,4.27137245 122.766121,4 124,4 C125.233879,4 126.298962,4.27137245 127.19525,4.81411735 C128.091539,5.35686224 128.783069,6.11661969 129.269841,7.0933897 C129.756614,8.07015971 130,9.20787428 130,10.5065334 C130,11.8009224 129.756614,12.9353916 129.269841,13.9099411 C128.783069,14.8844906 128.091539,15.6431378 127.19525,16.1858827 C126.298962,16.7286276 125.233879,17 124,17 Z M124.019097,14.2977197 C124.575645,14.2977197 125.042824,14.1320992 125.420635,13.8008583 C125.798446,13.4696174 126.083643,13.0170382 126.276228,12.4431207 C126.468812,11.8692032 126.565104,11.2171407 126.565104,10.4869331 C126.565104,9.75339482 126.468812,9.09938936 126.276228,8.52491673 C126.083643,7.9504441 125.798446,7.49649842 125.420635,7.16307968 C125.042824,6.82966094 124.575645,6.66295158 124.019097,6.66295158 C123.449735,6.66295158 122.972987,6.82966094 122.588852,7.16307968 C122.204716,7.49649842 121.916357,7.9504441 121.723772,8.52491673 C121.531188,9.09938936 121.434896,9.75339482 121.434896,10.4869331 C121.434896,11.2171407 121.531188,11.8692032 121.723772,12.4431207 C121.916357,13.0170382 122.204716,13.4696174 122.588852,13.8008583 C122.972987,14.1320992 123.449735,14.2977197 124.019097,14.2977197 Z" id="Shape"></path>
                        <path d="M135.608784,9.58097686 L135.608784,17 L132,17 L132,4.16709512 L135.439196,4.16709512 L135.439196,6.43293099 L135.58838,6.43293099 C135.880037,5.68431006 136.364776,5.09166633 137.042599,4.6549998 C137.720422,4.21833327 138.54266,4 139.509313,4 C140.414843,4 141.204245,4.19522714 141.877519,4.58568143 C142.550793,4.97613572 143.07369,5.53172698 143.44621,6.25245521 C143.81873,6.97318344 144.003311,7.83091661 144,8.82565472 L144,17 L140.391171,17 L140.391171,9.46061616 C140.394528,8.67640049 140.190735,8.06260879 139.779792,7.61924104 C139.36885,7.1758733 138.801591,6.95418943 138.078015,6.95418943 C137.591862,6.95418943 137.163077,7.05805819 136.791662,7.26579571 C136.420246,7.47353323 136.131085,7.77319482 135.924178,8.16478049 C135.717272,8.55636615 135.61214,9.02843161 135.608784,9.58097686 Z" id="Path"></path>
                    </g>
                    <g id="Group" transform="translate(0.000000, 26.000000)">
                        <path d="M20.6153575,7.14715905 C22.6648005,7.14715905 24.3163325,7.73299176 25.5089136,8.93423883 C26.7020707,10.1668076 27.3136212,11.9533074 27.3136212,14.3563816 L27.3136212,23.7836479 L23.4899906,23.7836479 L23.4899906,14.8494091 C23.4899906,13.4016483 23.1847912,12.3233681 22.5421449,11.5838268 C21.9000744,10.8750272 21.0132685,10.5049665 19.8201115,10.5049665 C18.5359705,10.5049665 17.4954132,10.9370907 16.7306871,11.7688571 C15.9665368,12.6313653 15.5686259,13.863354 15.5686259,15.4346618 L15.5686259,23.7836479 L11.7449953,23.7836479 L11.7449953,14.8494091 C11.7449953,13.4016483 11.4397959,12.3233681 10.7971496,11.5838268 C10.1550791,10.8750272 9.26769733,10.5049665 8.07511617,10.5049665 C6.75987939,10.5049665 5.75041789,10.9370907 4.98569178,11.7688571 C4.22154151,12.6006235 3.82363056,13.8326123 3.82363056,15.4346618 L3.82363056,23.7836479 L0,23.7836479 L0,7.33218938 L3.63993506,7.33218938 L3.63993506,9.42726636 C4.25206146,8.68772506 5.01621172,8.13379414 5.93411339,7.73299176 C6.85143922,7.33276941 7.86090072,7.14715905 8.992442,7.14715905 C10.2161189,7.14715905 11.3171403,7.3629311 12.2655619,7.82521691 C13.2134077,8.31824444 13.9476138,8.99572226 14.4981245,9.88955217 C15.1712908,9.02646398 16.0275767,8.34898615 17.0980781,7.85595862 C18.1685795,7.39367281 19.3306407,7.14715905 20.6153575,7.14715905 Z M39.6091272,23.99942 C37.9575952,23.99942 36.4592388,23.6299393 35.144002,22.9211398 C33.849199,22.2324604 32.7771658,21.1848408 32.0545776,19.9020712 C31.2898515,18.6387607 30.9230363,17.1909998 30.9230363,15.5576286 C30.9230363,13.9254175 31.2898515,12.4776567 32.0545776,11.2143461 C32.7871509,9.94705185 33.8573525,8.91167027 35.144002,8.22543925 C36.4592388,7.51721971 37.9575952,7.14715905 39.6091272,7.14715905 C41.291755,7.14715905 42.7901114,7.51721971 44.1053482,8.22601929 C45.420585,8.93423883 46.4605664,9.9510356 47.2252925,11.2143461 C47.9594987,12.4770766 48.3263139,13.9254175 48.3263139,15.5582087 C48.3263139,17.1909998 47.9594987,18.6387607 47.2252925,19.9020712 C46.4605664,21.1955434 45.420585,22.2123402 44.1053482,22.9211398 C42.7901114,23.6299393 41.291755,24 39.6091272,24 L39.6091272,23.99942 Z M39.6091272,20.7030959 C41.0164996,20.7030959 42.1785609,20.2408101 43.0958867,19.2860768 C44.0137884,18.3307635 44.4721633,17.0981946 44.4721633,15.5582087 C44.4721633,14.0176427 44.0137884,12.7856539 43.0958867,11.8303405 C42.1785609,10.8750272 41.0164996,10.4133214 39.6091272,10.4133214 C38.2023306,10.4133214 37.0402694,10.8750272 36.1528876,11.8303405 C35.2355618,12.7850738 34.776611,14.0176427 34.776611,15.5582087 C34.776611,17.0981946 35.2355618,18.3307635 36.1528876,19.2860768 C37.0396935,20.2408101 38.2029064,20.7030959 39.6091272,20.7030959 Z M67.90169,0.92399159 L67.90169,23.7836479 L64.231235,23.7836479 L64.231235,21.6578292 C63.6048742,22.4199423 62.8082373,23.0218112 61.9065367,23.4141673 C60.9586909,23.8143896 59.9486536,24 58.8171123,24 C57.257716,24 55.8503435,23.6606811 54.5961466,22.9518815 C53.3425256,22.2436619 52.3330641,21.2576069 51.6293778,19.9635546 C50.9262675,18.7002441 50.5588765,17.2217415 50.5588765,15.5582087 C50.5588765,13.8946758 50.9262675,12.4155932 51.6299537,11.1522827 C52.3330641,9.88955217 53.3425256,8.90349711 54.5967225,8.19469754 C55.8503435,7.486478 57.2571401,7.14715905 58.8176881,7.14715905 C59.8881895,7.14715905 60.8970752,7.33276941 61.7844569,7.70167001 C62.6673614,8.06863135 63.452816,8.63851436 64.0780594,9.36578292 L64.0780594,0.92399159 L67.90169,0.92399159 Z M59.2760631,20.7030959 C60.1939648,20.7030959 61.0197308,20.4873239 61.753937,20.0557798 C62.4875673,19.6555574 63.0685979,19.039563 63.4970288,18.26928 C63.9254597,17.498997 64.1390993,16.5750054 64.1390993,15.5582087 C64.1390993,14.5414119 63.9254597,13.6174203 63.4970288,12.8471373 C63.0685979,12.0768543 62.4875673,11.4608599 61.753937,11.0293158 C61.0197308,10.6290935 60.1933889,10.4133214 59.2760631,10.4133214 C58.3587373,10.4133214 57.5329713,10.6285134 56.7987651,11.0293158 C56.064559,11.4602799 55.4835283,12.0768543 55.0550975,12.8471373 C54.6272424,13.6174203 54.413027,14.5408319 54.413027,15.5582087 C54.413027,16.5750054 54.6272424,17.498997 55.0550975,18.26928 C55.4835283,19.039563 56.064559,19.6555574 56.7987651,20.0557798 C57.5329713,20.4873239 58.3587373,20.7030959 59.2760631,20.7030959 Z M76.4657011,9.73526355 C77.5667224,8.01024724 79.4935097,7.14715905 82.2771588,7.14715905 L82.2771588,10.8135438 C81.9850095,10.75527 81.6881555,10.724204 81.3903529,10.7207386 C79.8914207,10.7207386 78.7287836,11.1522827 77.9030176,12.0153709 C77.0772516,12.9086207 76.6488207,14.1719313 76.6488207,15.8047224 L76.6488207,23.7836479 L72.825766,23.7836479 L72.825766,7.33218938 L76.4651252,7.33218938 L76.4651252,9.73526355 L76.4657011,9.73526355 Z M85.4276231,7.33218938 L89.2506778,7.33218938 L89.2506778,23.7836479 L85.4270473,23.7836479 L85.4270473,7.33218938 L85.4276231,7.33218938 Z M87.3544104,4.62111801 C86.6507242,4.62111801 86.0696936,4.40534597 85.6107428,3.94364019 C85.1549058,3.52577061 84.8988943,2.93103914 84.9076324,2.31026899 C84.9076324,1.66353288 85.1523678,1.10902192 85.6107428,0.646736109 C86.0696936,0.215772047 86.6507242,0 87.3544104,0 C88.0575208,0 88.6385514,0.215772047 89.0975023,0.615994393 C89.5564531,1.04753849 89.8011885,1.57130773 89.8011885,2.21804384 C89.8011885,2.8961017 89.586973,3.45061266 89.1280222,3.91231844 C88.6696472,4.37460425 88.0575208,4.62111801 87.3544104,4.62111801 L87.3544104,4.62111801 Z M103.442451,7.14715905 C105.491894,7.14715905 107.143426,7.76373348 108.397623,8.96498054 C109.65182,10.1668076 110.26337,11.9840491 110.26337,14.3563816 L110.26337,23.7836479 L106.43974,23.7836479 L106.43974,14.8494091 C106.43974,13.4016483 106.103445,12.3233681 105.430854,11.5838268 C104.757688,10.8750272 103.809842,10.5049665 102.555645,10.5049665 C101.148849,10.5049665 100.047827,10.9370907 99.2214855,11.7688571 C98.3957195,12.6313653 97.9983844,13.863354 97.9983844,15.4654035 L97.9983844,23.7836479 L94.1747539,23.7836479 L94.1747539,7.33218938 L97.8146889,7.33218938 L97.8146889,9.45800807 C98.4573353,8.68772506 99.2525813,8.1332141 100.200427,7.73299176 C101.148849,7.33276941 102.24987,7.14715905 103.442451,7.14715905 L103.442451,7.14715905 Z M124.853055,22.890398 C124.374401,23.2756576 123.82285,23.5586668 123.232043,23.7221645 C122.564608,23.9090802 121.874769,24.0023777 121.182024,23.9994881 C119.377892,23.9994881 118.001616,23.5371342 117.022674,22.5824009 C116.043732,21.6270875 115.554262,20.2715518 115.554262,18.4543104 L115.554262,10.5362883 L112.863324,10.5362883 L112.863324,7.45573628 L115.554838,7.45573628 L115.554838,3.69712642 L119.378468,3.69712642 L119.378468,7.45573628 L123.752033,7.45573628 L123.752033,10.5362883 L119.377892,10.5362883 L119.377892,18.3615052 C119.377892,19.1625299 119.561588,19.7785243 119.959499,20.1793267 C120.356834,20.6108708 120.907344,20.8260628 121.640975,20.8260628 C122.497837,20.8260628 123.201523,20.6108708 123.782553,20.148585 L124.853055,22.890398 L124.853055,22.890398 Z M137.179081,7.14715905 C139.228524,7.14715905 140.880056,7.76373348 142.134253,8.96498054 C143.387874,10.1668076 144,11.9840491 144,14.3563816 L144,23.7836479 L140.176369,23.7836479 L140.176369,14.8494091 C140.176369,13.4016483 139.840074,12.3233681 139.166908,11.5838268 C138.494318,10.8750272 137.545896,10.5049665 136.292275,10.5049665 C134.884902,10.5049665 133.783881,10.9370907 132.958115,11.7688571 C132.132349,12.6313653 131.735014,13.863354 131.735014,15.4654035 L131.735014,23.7836479 L127.911383,23.7836479 L127.911383,0.924571622 L131.735014,0.924571622 L131.735014,9.24223602 C132.377084,8.5647582 133.141811,8.04098896 134.090232,7.67092829 C135.007558,7.33218938 136.047539,7.14715905 137.179081,7.14715905 Z" id="Shape"></path>
                    </g>
                </g>
            </g>
        </g>
    </g>
</svg>