<svg viewBox="0 0 243 87" xmlns="http://www.w3.org/2000/svg" xmlns:xlink="http://www.w3.org/1999/xlink"><linearGradient id="a" x1="49.998215%" x2="49.998215%" y1="99.998956%" y2="-.000265%"><stop offset="0" stop-color="#bdbdbd"/><stop offset="1" stop-color="#fff"/></linearGradient><radialGradient id="b" cx="50.225354%" cy="42.709306%" r="54.250943%"><stop offset="0" stop-color="#06c2e7"/><stop offset=".25" stop-color="#0db8ec"/><stop offset=".5" stop-color="#12aef1"/><stop offset=".75" stop-color="#1f86f9"/><stop offset="1" stop-color="#107ddd"/></radialGradient><g fill="none" fill-rule="evenodd"><rect fill="#031e36" height="86" rx="20" stroke="#162c40" width="241.684211" x=".657895" y=".5"/><g fill-rule="nonzero"><g transform="translate(25 17)"><path d="m51.8602151 29.0645161c0 13.5339457-11.4817298 24.5053764-25.6451613 24.5053764s-25.64516133-10.9714307-25.64516133-24.5053764c0-13.5339456 11.48172983-24.50537632 25.64516133-24.50537632s25.6451613 10.97143072 25.6451613 24.50537632z" fill="#000" opacity=".53"/><path d="m53 26.5c0 14.6355459-11.8644731 26.5-26.5000423 26.5-14.6355362 0-26.4999577-11.8644872-26.4999577-26.5s11.8644215-26.5 26.4999577-26.5c14.6355692 0 26.5000423 11.8644541 26.5000423 26.5z" fill="url(#a)" stroke="#cdcdcd" stroke-linecap="round" stroke-linejoin="round" stroke-width="1.297832"/><path d="m50.7204301 26.7849462c0 13.5339457-10.9714497 24.5053764-24.5054188 24.5053764-13.5339359 0-24.50533388-10.9714639-24.50533388-24.5053764s10.97139798-24.50537631 24.50533388-24.50537631c13.5339691 0 24.5054188 10.97143071 24.5054188 24.50537631z" fill="url(#b)"/><path d="m26.2151392 3.41935585c-.0954992-.00022641-.1871526.03757303-.2546809.10503584s-.1053645.15902727-.1051368.25443382v4.14550159c-.0002277.09540655.0376085.186971.1051368.25443381s.1591817.10526225.2546809.10503584c.0954696.00018093.187079-.0376386.2545703-.10509646s.105304-.1589963.1050765-.25437319v-4.14558698c.0002048-.09537694-.0376297-.1869064-.105137-.25434823-.0675073-.06744184-.1591257-.10523962-.2545952-.10503604zm-2.3535156.14857c-.024324-.00259628-.0488615-.00248173-.0731601.00034154-.0949823.00968344-.1821899.0567702-.2423363.13084671-.0601464.07407652-.0882755.16903897-.0781665.26388572l.1813619 1.73432943c.0096928.0948901.0568253.18201311.1309737.24210113.0741485.06008802.1692032.08818988.264142.07809065.0949987-.00968269.1822204-.05678158.2423692-.1308771.0601488-.07409553.0882668-.16908016.0781336-.26394071l-.1811909-1.73424405c-.0173378-.16984725-.1521277-.30393491-.3222121-.32053332zm4.723441.00170769c-.1700935.01650792-.304955.15052423-.322383.32036255l-.1825583 1.73415867c-.0101609.09486609.017918.18986858.0780293.26400539.0601112.07413682.1473039.12130191.2423025.13106857.0949174.01017464.1899813-.01785023.2641636-.07787557.0741822-.06002533.1213692-.14710411.1311231-.24197467l.1825583-1.73432944c.0101593-.09484759-.0179245-.18983058-.0780397-.26394027s-.1473078-.12123872-.2422921-.13096292c-.0242598-.00247865-.0487019-.00262162-.0729891-.00042692zm-7.1410573.34853943c-.1082422.00027734-.2105798.04933606-.2785216.13351807-.0679418.08418202-.0942326.19449777-.0715528.30023505l.8592892 4.05567713c.019572.09336084.0755682.17508516.1556037.2270978.0800354.05201265.1775149.07002751.2708786.0500602.0934309-.01953574.1752256-.07544399.2273017-.15536507.0520762-.07992109.0701446-.17727249.0502109-.27053268l-.8593746-4.05576251c-.0349804-.16707262-.182985-.28636147-.3538351-.28519278zm9.5585026.00340213c-.1708678-.00144591-.3190227.11776346-.3540059.28485585l-.8623661 4.05507944c-.020044.09326172-.0020709.19065853.0499443.27064857.0520151.07999004.1337859.13598161.2272265.15559072.0933401.0200268.1908207.00208264.2708862-.04986456.0800655-.05194719.1361195-.13361768.155767-.2269519l.8623661-4.05516482c.0227298-.10571865-.0035015-.21603946-.071392-.30025279-.0678906-.08421334-.1701917-.13332764-.2784261-.13367111zm-11.8657804.64654448c-.047986-.00434683-.0963529.00129341-.1420468.01656459-.0908575.0292676-.1663032.09348599-.2096555.17845602-.0433523.08497002-.0510398.18369202-.0213628.27433785l.5392992 1.65850802c.0293136.09079564.0936244.16618475.1787107.20949576.0850862.04331102.1839375.05097548.2746939.02129847.0908818-.02928324.1663388-.09353605.2096781-.17854398.0433392-.08500793.0509881-.18376398.0212548-.27442065l-.5393848-1.65842264c-.0443674-.13754573-.1670549-.23503497-.3111868-.24727344zm14.1599817.00085385c-.144123.01226069-.2667997.10974131-.3111868.24727343l-.5397266 1.65833726c-.029707.09064564-.0220446.18937981.0212926.27436779s.1187785.14922723.2096403.17851146c.0907225.02968184.1895428.02203874.2746113-.02123937.0850685-.04327812.1493775-.11862611.1787078-.2093841l.5397266-1.65850802c.0297107-.09063443.0220601-.1893589-.02126-.27434488-.0433201-.08498597-.1187413-.14923252-.2095874-.17853437-.0458308-.01491637-.0941861-.02051945-.1422178-.0164792zm-16.4416192.83335246c-.0481504.00095573-.0956157.01158368-.1395683.03125072-.0872977.03856233-.1556273.11027164-.1898846.19927656s-.0316209.18797548.0073262.27503419l1.6854171 3.78825296c.0385817.08722863.1103594.15550707.1994573.18973362s.1881737.03158068.2753141-.00735239c.0873282-.03853048.1556963-.11022637.1899869-.1992346.0342906-.08900824.0316789-.1879962-.0072576-.27507615l-1.6855026-3.78816757c-.0584087-.13226998-.1906052-.21656744-.3352885-.21380272zm18.7489825.0126369c-.144602-.00277327-.2767991.08125831-.335545.21329042l-1.6905451 3.78594757c-.03906.08702318-.0418134.18600573-.0076512.27506172.0341622.089056.1024257.16084909.1896968.19950519.0871077.03902216.1861863.04177281.2753288.00764376s.1610053-.10232629.1996989-.18951269l1.6905451-3.7857768c.0390871-.08703255.0418548-.18603649.0076909-.27511282-.0341638-.08907633-.1024437-.16088394-.1897364-.19953947-.043935-.01966266-.0913542-.03037386-.1394828-.03150688zm-20.8667791 1.10675356c-.0715641-.00514176-.1430108.01146734-.2049509.04764453-.082782.04751998-.1432043.12602856-.1679044.21816331-.0247.09213476-.0116426.19030405.0362847.27279742l.8727075 1.51019519c.0475662.08270172.126151.14306544.2183752.16774153s.1904889.01163131.2730624-.03624944c.082782-.04751998.1432043-.12602856.1679044-.21816331.0247001-.09213476.0116426-.19030405-.0362847-.27279742l-.8726221-1.5101098c-.0596035-.10373162-.1670498-.17094852-.2864867-.17922201zm22.9555168 0c-.1194209.0081163-.226872.07534429-.2863158.17913662l-.8728785 1.51019519c-.0479131.08251412-.0609446.18069904-.0362118.27283627s.0851915.17063314.1680025.21812446c.0825735.04788075.1808381.06092553.2730623.03624944.0922243-.02467609.1708091-.08503981.2183752-.16774153l.8727076-1.51028058c.0479273-.08249337.0609847-.18066266.0362847-.27279741-.0247001-.09213476-.0851225-.17064334-.1679045-.21816331-.0620872-.03595766-.1335283-.05252187-.2051217-.04755915zm-25.0120333 1.2813648c-.071671.00258363-.1409438.02645481-.1989681.06856373-.0774049.0558458-.1293502.14019848-.1443468.23440139s.0081911.1904932.0644348.26757393l2.43659 3.3556098c.0559301.0773164.1403776.129198.234679.1441787.0943014.0149806.1906922-.0081731.2678692-.0643442.0773803-.0558445.1293087-.1401805.1443045-.2343626.0149959-.0941821-.0081759-.1904525-.0643924-.2675273l-2.4366755-3.35560985c-.0700315-.09692533-.1838281-.15258352-.3034092-.14839822zm27.0942754.01827227c-.1195483-.00438853-.2334018.05112164-.3034947.1479713l-2.4412052 3.35236518c-.0563325.0770132-.0796333.1732736-.064749.2674921.0148843.0942184.0667271.178631.1440627.2345686.0770747.056273.1734081.0795652.2677096.0647287.0943014-.0148365.1788064-.06658.2348387-.1437947l2.4410343-3.35227981c.0563099-.07702094.079597-.17327499.0647138-.26748648s-.066711-.17862219-.1440276-.23457423c-.0579094-.04232431-.1271793-.06635341-.1988826-.06899066zm-28.9324227 1.52180748c-.0953795-.00514591-.1888526.02806218-.2595645.09221523-.0710835.06366128-.1138561.15298795-.1188601.24822892-.0050041.09524097.0281726.18855034.0921943.2592964l1.167912 1.29613635c.0637226.071023.1531457.1137529.2484859.1187364s.1887386-.0281901.2595323-.0921819c.0710889-.0636762.1138634-.1530172.1188674-.2482721.0050039-.0952549-.0281749-.1885782-.0922016-.2593386l-1.167741-1.29605089c-.0637182-.07106352-.1531705-.11381024-.2485392-.11876981zm30.7474938.00256154c-.0953712.00511753-.1848026.04787026-.2486247.11885518l-1.1678264 1.29579478c-.064096.0707325-.0973354.1640664-.092363.2593488.0049725.0952824.0477468.1846571.1188578.2483473.070819.0639862.1642379.0971471.2595923.0921477.0953545-.0049995.1847857-.0477473.2485114-.1187877l1.1679974-1.29579475c.0640317-.07077463.0972127-.1641118.0922089-.25938068-.0050039-.09526888-.0477805-.18462425-.1188747-.2483154-.0707291-.06401025-.1640889-.09719994-.2593935-.09221523zm-32.5092332 1.68805106c-.09532038.0051249-.1846958.0478803-.24845372.1188552-.06404832.0707502-.0972415.1640785-.0922372.2593404s.04779366.1846064.11890303.2482703l3.08409099 2.7735438c.0708147.0639596.1642147.0971041.2595482.0921049.0953334-.0049992.1847469-.0477302.24847-.1187448.0640538-.070725.0972597-.1640328.0922714-.2592805-.0049884-.0952477-.0477598-.184584-.1188518-.2482448l-3.08417642-2.7735439c-.07081274-.0640417-.16426365-.097231-.25964995-.0922152zm34.2795194.01221c-.0954223-.0052272-.1889746.027884-.2598209.091959l-3.0858003 2.7714093c-.0711561.0635904-.1140242.1528795-.1191246.2481221-.0051004.0952425.0279873.1885913.0919459.2594032.0637058.0710735.1531229.1138723.2484853.1189354s.1888165-.0280264.2597039-.0919539l3.0860567-2.7714092c.0711319-.0636141.1139681-.1529157.1190364-.2481577.0050682-.095242-.0280491-.1885777-.0920287-.2593677-.0636741-.0710987-.1530921-.1139051-.2484537-.1189405zm-35.74460149 1.8699199c-.11959571-.0043299-.23345876.051281-.30349472.1482275-.05631981.0770473-.07957888.1733426-.06462886.267571.01495003.0942284.06687611.1786182.14428447.2344897l1.41209231 1.0248698c.07708746.0562783.17344863.0795403.26775307.0646367.09430445-.0149035.17877371-.0667434.23470974-.1440442.05629228-.0770419.07955157-.1733102.06463607-.2675232-.01491551-.094213-.06677737-.1786114-.14412074-.2345375l-1.41217778-1.0249553c-.05799189-.0422557-.12732058-.0661954-.19905356-.0687345zm37.20823059.0130639c-.0716787.0025423-.1409632.0264176-.1989681.0685637l-1.412776 1.024016c-.0774049.0558629-.129354.1402223-.1443653.234433-.0150114.0942107.008151.1905151.0643678.2676277.0559.0773298.1403346.1292247.234629.1442068.0942944.014982.1906782-.0081832.2678338-.0643723l1.4128615-1.0241014c.0773668-.0558575.1292782-.1401996.1442579-.2343809s-.008206-.1904447-.0644313-.267509c-.0700126-.0969576-.1838124-.1526494-.3034093-.1484836zm-38.57724733 1.9944105c-.11941599.0081313-.22686063.0753552-.28631578.1791366-.04792725.0824934-.0609847.1806627-.03628465.2727975.02470006.0921347.08512241.1706433.16790444.2181633l3.59364758 2.0727935c.08257348.0478807.18083811.0609255.27306234.0362494.0922242-.0246761.1708091-.0850398.2183752-.1677415.0479272-.0824934.0609847-.1806627.0362846-.2727975-.0247-.0921347-.0851224-.1706433-.1679044-.2181633l-3.59364758-2.0727935c-.0620799-.0359824-.13352008-.0525761-.20512175-.0476445zm39.93669173 0c-.0716181-.005139-.1431187.0114687-.2051218.0476445l-3.5935621 2.0727935c-.082782.04752-.1432043.1260286-.1679044.2181633-.0247001.0921348-.0116426.1903041.0362846.2727975.0475662.0827017.126151.1430654.2183752.1677415.0922243.0246761.1904889.0116313.2730624-.0362494l3.593733-2.0727082c.0827821-.0475199.1432044-.1260285.1679045-.2181633.0247-.0921347.0116426-.190304-.0362847-.2727974-.0596242-.1036988-.1670669-.1708814-.2864867-.1791366zm-40.97195829 2.1398203c-.14466708-.003168-.27702645.0809545-.33545953.213205-.03909237.087022-.04187238.1860172-.0077252.2750919.03414717.0890747.1024078.160889.18968528.1995604l1.59422333.7103989c.08710644.0390544.18619783.0418317.27535901.0077177.08916118-.0341141.16104525-.1023085.19975424-.1895013.03908704-.0870325.04185473-.1860365.00769088-.2751128s-.10244367-.1608839-.18973643-.1995395l-1.59413786-.7103988c-.04397209-.0197098-.09146828-.0303672-.13965372-.0313361zm42.01406219.0148569c-.0482115.0009807-.0957333.0116373-.1397391.0313361l-1.5945652.7092035c-.0873258.0385771-.1556689.1103221-.1899128.199366-.0342439.089044-.0315666.1880486.0074399.2751155.0386829.0872438.1105518.1555051.1997219.1896966.0891702.0341914.188299.0314976.2754768-.0074862l1.5944797-.7092888c.0872952-.0386089.1555999-.1103674.1898105-.199408s.0315086-.1880279-.0075085-.2750735c-.0584645-.1321384-.1906192-.216296-.3352032-.2134612zm-42.93659726 2.221704c-.1440929.0121076-.2668191.1094661-.31127225.2469319-.02977815.0906117-.02220167.1893411.02105425.274359s.11862802.1493207.20945131.178691l3.94543138 1.2843533c.09072188.0297719.1895788.0222043.27470123-.0210286.08512242-.043233.14949402-.1185679.17887423-.2093387.02977447-.0906229.02218616-.189362-.02108682-.2743819-.04327297-.0850199-.11866522-.1493154-.20950421-.1786681l-3.94543137-1.2844387c-.04581649-.0149838-.09417976-.0206168-.14221775-.0165646zm43.85742306.0153692c-.0479861-.0043468-.096353.0012934-.1420468.0165646l-3.9463716 1.2815356c-.0908661.0293008-.166303.093561-.2096251.1785669-.0433222.0850059-.0509594.1837523-.0212223.2743977.0293469.0907623.0936768.1661059.1787633.209369.0850864.043263.183919.050881.2746412.0211691l3.9462006-1.2814502c.0908838-.0292852.1663462-.0935335.2096992-.1785372.0433531-.0850037.051025-.1837591.0213192-.2744274-.0444504-.1375586-.1671881-.2350341-.3113577-.2472735zm-44.43219129 2.3321915c-.1709114-.0013989-.31909557.1178122-.35417689.284928-.02004408.0932618-.00207093.1906586.04994422.2706486s.13378591.1359816.22722654.1555907l1.70738216.3625425c.0933523.0200246.19084369.0020689.27091141-.0498958.08006773-.0519646.13611368-.1336561.15574183-.227006.02004625-.0932496.00208466-.1906356-.04991298-.2706234-.05199765-.0799878-.13374745-.1359874-.22717232-.1556159l-1.70729669-.3625425c-.02388445-.0050654-.04823062-.0076408-.07264728-.0076846zm45.00251519.0034154c-.0243292.0005656-.0485703.0031359-.0724764.0076846l-1.7074676.3623717c-.0934.0196097-.1751344.0755795-.2271313.1555341-.0519969.0799547-.0699731.1773079-.049954.2705345.0196312.0933583.0756698.1750626.1557303.2270547.0800604.051992.1775505.0699906.270923.0500179l1.7072967-.3623717c.0934332-.0196315.1751959-.0756238.2272209-.1556044.052025-.0799805.0700296-.1773652.0500353-.2706349-.0351718-.1670605-.1833004-.2862269-.3541769-.2849385zm-45.4376297 2.358063c-.1700133.0163706-.30490682.1502046-.32246849.3199357-.01028495.0948497.01768548.1898841.07772281.2640767.06003732.0741927.14719223.1214274.24218165.1312534l4.12653679.4358023c.09495519.0102741.19009378-.0176807.26436092-.0776778.07426714-.059997.12153869-.1470889.13135312-.2420016.0102589-.0948627-.01774573-.1898987-.07781663-.2640772-.06007091-.0741785-.14725492-.121383-.24225877-.1311676l-4.12662225-.4358877c-.02426141-.0024958-.04871079-.0025816-.07298915-.0002562zm45.8757356.0309946c-.0243208-.0026246-.0488584-.0025387-.0731601.0002562l-4.1270496.4303377c-.0949823.0096834-.1821899.0567702-.2423363.1308467-.0601463.0740765-.0882755.169039-.0781664.2638857.009692.0949066.0568367.1820436.1310042.2421341.0741674.0600904.1692443.0881811.264197.0780577l4.1270496-.4303377c.0949822-.0096835.1821898-.0567702.2423362-.1308467.0601464-.0740766.0882756-.169039.0781665-.2638858-.0172918-.1698048-.1520082-.3038904-.3220411-.3205333zm-45.94556247 2.3862399c-.0954992-.0002274-.18715258.037572-.2546809.1050348-.06752833.0674628-.10536448.1590273-.10513785.2544338-.0001811.095377.03767515.1868975.10519852.2543233.06752338.0674258.15915072.1052019.25462023.1049746h1.74550062c.09547739.0002045.18710447-.0375905.25462535-.1050299.06752089-.0674393.10537442-.1589685.10519321-.2543533.00020397-.0953996-.03763952-.1869508-.10516288-.2544087-.06752336-.0674578-.15916345-.1052646-.25465568-.10506zm44.26612807 0c-.0954992-.0002274-.1871525.037572-.2546809.1050348-.0675283.0674628-.1053644.1590273-.1051378.2544338-.0001811.095377.0376751.1868975.1051985.2543233s.1591507.1052019.2546202.1049746h1.7455007c.0954695.0002046.1870879-.0375932.2545952-.105035s.1053418-.1589713.105138-.2543482c.0002267-.0954066-.0376095-.1869711-.1051378-.2544339s-.1591817-.1052622-.2546809-.1050348zm-40.00156144 1.9591468c-.02426686-.0025956-.0487477-.0024811-.07298915.0003415l-4.12722053.4302524c-.09498225.0096834-.18218987.0567702-.24233624.1308467-.06014638.0740765-.08827553.1690389-.07816649.2638857.00969284.0948901.05682533.1820131.13097378.2421011.07414846.060088.16920313.0881899.26414199.0780907l4.12722052-.4303378c.09498226-.0096834.18218987-.0567702.24233625-.1308467s.08827553-.169039.07816649-.2638857c-.01737588-.169814-.15215642-.3038566-.32221208-.3204479zm37.48010234.0254445c-.170042.0163776-.3049449.1502566-.3224684.320021-.0102617.0948226.0177084.1898229.0777253.2639941s.1471362.1214028.2420937.1312507l4.1266222.4358023c.0949414.0102499.1900578-.0177161.2643059-.0777107.0742481-.0599947.1215075-.1470725.1313227-.2419687.0102355-.0948355-.0177687-.1898375-.0778192-.2639945-.0600505-.0741571-.1471988-.1213585-.2421707-.1311649l-4.1264514-.4358877c-.0243157-.0025238-.0488218-.0026382-.0731601-.0003416zm-39.53730254 2.4280783c-.0244111.0001453-.04874701.0027196-.07264729.0076846l-1.70738216.3623717c-.09344063.0196091-.17521139.0756007-.22722654.1555907-.05201515.0799901-.0699883.1773869-.04994422.2706486.01962815.09335.0756741.1750414.15574182.2270061.08006773.0519647.17755912.0699204.27091142.0498958l1.70746762-.362201c.09342487-.0196285.17517467-.0756281.22717231-.1556159s.06995924-.1773738.04991299-.2706234c-.03506357-.1670679-.1831441-.2862889-.35400595-.2850235zm41.59638304.0034154c-.1708417-.0014674-.3189874.1176988-.3540059.2847572-.0200999.0932399-.0021836.1906379.0497851.2706466.0519687.0800086.1337061.1360328.2271292.1556781l1.7074677.3624571c.0933304.0200803.190823.0021815.2709094-.0497368.0800863-.0519183.1361649-.1335764.1558293-.2269089.0200728-.0932952.0021166-.1907355-.0498977-.2707723s-.133801-.1360754-.2272731-.1557232l-1.7072967-.3624571c-.0238844-.0050654-.0482306-.0076407-.0726473-.0076846zm-38.72125986 1.4155892c-.04798602-.0043468-.09635297.0012934-.14204681.0165646l-3.94637152 1.2815355c-.09084613.0293019-.1662673.0935484-.20958744.1785344-.04332015.084986-.05097067.1837105-.02125999.2743449.02931266.0907737.0936143.1661418.17868481.2094369.08507052.0432952.18390058.0509501.27463425.0212719l3.94620058-1.2816209c.09086385-.0292862.16631042-.093521.20966149-.1785047.04335108-.0849838.05103634-.1837173.02135688-.2743746-.04443844-.1375317-.16713479-.2350012-.31127225-.2472734zm35.84254706.0127223c-.1440929.0121076-.2668191.1094661-.3112722.2469319-.0297745.0906228-.0221862.1893619.0210868.2743818s.1186652.1493155.2095042.1786682l3.9453459 1.2843532c.0907219.029772.1895788.0222044.2747012-.0210286.0851225-.043233.1494941-.1185678.1788743-.2093387.0297744-.0906228.0221861-.1893619-.0210868-.2743818-.043273-.0850199-.1186653-.1493155-.2095043-.1786682l-3.9454313-1.2843532c-.0458165-.0149838-.0941798-.0206169-.1422178-.0165646zm-37.3483971 2.7942069c-.04817422.0009104-.09567082.0115098-.13965373.0311653l-1.59473613.7092888c-.08727993.0386249-.15556544.1103901-.18975933.199429-.03419389.089039-.03147957.1880175.00754285.2750526.03864643.0872105.11047458.1554489.19960167.1896263s.18821047.031478.27534064-.0075013l1.59473613-.7092034c.08727993-.0386248.15556545-.11039.18975934-.199429.03419388-.0890389.03147956-.1880175-.00754285-.2750525-.05852495-.1321654-.19074139-.2163194-.33537406-.2134612zm38.8524523.0136615c-.1446774-.0032175-.2770738.0808734-.3355449.2131196-.0390871.0870326-.0418548.1860365-.0076909.2751129.0341638.0890763.1024436.1608839.1897364.1995394l1.5939669.7103989c.0871265.039076.186248.0418554.2754312.007723.0891832-.0341323.161075-.1023622.1997675-.189592.0390601-.0870231.0418134-.1860057.0076512-.2750617s-.1024256-.1608491-.1896967-.1995052l-1.5939669-.7103988c-.0439714-.0197121-.091468-.0303696-.1396538-.0313361zm-35.74767823.7787918c-.07161812-.0051391-.14311866.0114687-.20512175.0476445l-3.59356211 2.0727935c-.08278203.04752-.14320438.1260286-.16790443.2181633-.02470006.0921348-.01164261.1903041.03628465.2727974.04756591.0826785.12613516.1430255.21833873.1677004.09220357.0246748.19044749.0116453.27301332-.0362083l3.59356212-2.0726227c.0827704-.0475527.1431791-.1260763.1678768-.2182181.0246976-.0921419.0116509-.1903162-.036257-.272828-.0595479-.1037053-.1669314-.170923-.2863158-.179222zm32.64880143 0c-.1194684.0081058-.2269758.0753289-.2864867.1791366-.0479352.0825194-.0609971.1807145-.0362982.2728769.0246989.0921625.0851244.1707017.167918.2182546l3.5936476 2.0726227c.0825919.0478615.1808616.0608956.2730929.0362219s.1708312-.0850239.2184301-.167714c.0479272-.0824933.0609847-.1806626.0362846-.2727974-.0247-.0921347-.0851224-.1706433-.1679044-.2181633l-3.5937331-2.0727935c-.0620189-.0359785-.1334037-.0525732-.2049508-.0476445zm-33.545098 3.0418219c-.07175274.002574-.1410988.0265094-.19913904.0687345l-1.41277604 1.024016c-.07740491.0558458-.12935015.1401984-.1443468.2344014-.01499664.0942029.00819113.1904932.06443478.2675739.05589875.0773052.14031667.1291832.2345902.1441645s.19063746-.008168.26778715-.06433l1.41294698-1.0241014c.07739369-.0558316.12933911-.1401614.14435114-.2343443.01501204-.0941828-.00814592-.1904603-.06435365-.2675456-.07007828-.0969814-.18392422-.1526964-.30358019-.148569zm34.4326769.0121246c-.1195957-.00433-.2334587.0512809-.3034947.1482274-.0562972.0770551-.0795425.173344-.0645936.2675655.0149489.0942214.0668599.1786093.1442492.2344952l1.4120923 1.0250406c.0771163.0562381.1734852.0794586.2677843.0645239.094299-.0149348.178754-.0667936.2346785-.1441022.0562607-.0770224.0795018-.1732574.0645867-.2674356-.014915-.0941782-.0667582-.1785451-.1440713-.2344543l-1.4120923-1.0250407c-.0580034-.0423186-.1273614-.0663176-.1991391-.0689052zm-31.233034.1240636c-.0953697-.0052193-.1888661.0278939-.25965.0919591l-3.08597122 2.7714092c-.07113189.0636141-.11396815.1529157-.11903641.2481577-.00506825.095242.02804906.1885777.09202872.2593676.06367581.0710629.15306418.1138576.24839868.118921.09533451.0050633.18876079-.0280219.25961952-.0919395l3.08597121-2.7714092c.0711319-.063614.1139682-.1529157.1190364-.2481577.0050683-.095242-.028049-.1885776-.0920287-.2593676-.0636419-.0710937-.153032-.1139016-.2483682-.1189406zm28.0333057.0099046c-.0953284.0051177-.1847232.0478369-.2485392.1187698-.0640483.0707503-.0972415.1640785-.0922372.2593404s.0477936.1846064.118903.2482703l3.084091 2.7735439c.0708391.0639429.1642481.0970753.2595885.0920766.0953404-.0049988.1847648-.0477171.2485151-.1187166.0640217-.070746.0971984-.1640554.0921944-.2592964s-.0477766-.1845676-.1188602-.2482289l-3.0841764-2.7736293c-.0707426-.0639793-.1641009-.0971377-.2593936-.0921298zm-25.1055346 2.6328303c-.1196047-.004431-.2335285.0510822-.3036657.1479712l-2.4410343 3.3522799c-.0563501.0769921-.0796786.1732384-.0648267.2674553.014852.0942169.0666608.1786418.1439695.2346054.077067.0562955.1734067.0796014.2677151.0647638.0943084-.0148375.1788153-.0665961.2348332-.1438298l2.4411198-3.3523653c.0563502-.0769921.0796787-.1732384.0648267-.2674553s-.0666607-.1786418-.1439695-.2346054c-.0579286-.0423264-.1272438-.0663014-.1989681-.0688198zm22.1666527.0150276c-.0717375.0025086-.1410863.0263855-.199139.0685638-.0773803.0558445-.1293086.1401805-.1443045.2343626-.0149959.094182.0081759.1904525.0643925.2675273l2.4365045 3.3556098c.0558871.0773432.1403155.1292551.2346106.1442534.0942952.0149982.1906861-.0081532.2678522-.0643335.0774183-.0558329.1293806-.1401794.1443934-.234383.0150128-.0942037-.0081611-.1905011-.0643959-.2675923l-2.43659-3.3556099c-.0700417-.0969133-.1838314-.1525682-.3034093-.1483982zm-25.3178356.5177715c-.0953585.0050954-.184788.0478165-.2486246.1187698l-1.167912 1.2960509c-.0640372.0707494-.0972309.1640661-.092243.2593207.0049879.0952547.0477465.184602.1188234.24829.0708156.0639707.1642271.0971147.2595679.0920991.0953407-.0050156.1847513-.0477773.2484503-.1188244l1.1680828-1.2957948c.0640317-.0707746.0972127-.1641118.0922089-.2593807-.0050039-.0952689-.0477805-.1846242-.1188747-.2483154-.0707639-.0640008-.1641572-.0971608-.259479-.0921298zm28.4868812.0017077c-.0953164-.0051709-.1887355.0280092-.2593936.0921298-.0710956.0636495-.1138841.1529699-.1189042.2482111s.0281417.1885572.0921529.2593142l1.1677411 1.2961363c.0637107.0710351.1531276.1137809.2484681.1187805.0953404.0049995.1887454-.0281593.2595501-.0921405.0711146-.0636789.113906-.1530377.1189102-.2483135.0050042-.0952759-.0281911-.188618-.0922444-.2593826l-1.167741-1.2959655c-.0637241-.0711156-.1532131-.1138959-.2486247-.1188552zm-21.9268313 1.437533c-.1446288-.0031942-.2769634.0809003-.335374.2131196l-1.690716 3.7859476c-.0390601.0870232-.0418134.1860057-.0076512.2750617s.1024257.1608491.1896967.1995052c.0871065.0390544.1861978.0418317.275359.0077177s.1610453-.1023084.1997543-.1895013l1.6906305-3.7858621c.0390871-.0870326.0418547-.1860365.0076909-.2751129-.0341639-.0890763-.1024437-.1608839-.1897364-.1995394-.0439781-.0196921-.0914706-.0303487-.1396538-.0313361zm15.3461837.0104169c-.0482006.0009199-.0957233.0115186-.1397392.0311653-.0873346.0385458-.1556998.1102629-.1899754.1992899-.0342756.0890269-.0316373.1880275.0073316.2751062l1.685417 3.7881676c.0386347.087225.1104453.1554909.1995643.1897132s.1882102.031584.275378-.007332c.0872977-.0385623.1556274-.1102716.1898846-.1992765.0342573-.0890049.031621-.1879755-.0073262-.2750342l-1.685417-3.7881676c-.0584549-.1321294-.1905433-.2163336-.3351177-.2136319zm-18.3170303 1.1601188c-.1194209.0081163-.226872.0753443-.2863158.1791366l-.8727076 1.5101952c-.0479272.0824934-.0609847.1806627-.0362846.2727975.0247.0921347.0851224.1706433.1679044.2181633.0825735.0478807.1808381.0609255.2730624.0362494.0922242-.0246761.170809-.0850398.2183751-.1677415l.8727931-1.5102806c.0479202-.0825037.0609646-.1806809.0362482-.2728168-.0247164-.092136-.0851569-.1706383-.1679535-.2181439-.0620872-.0359577-.1335283-.0525219-.2051217-.0475592zm21.3106113 0c-.0715602-.0050934-.1429929.0115124-.2049508.0476446-.0827821.0475199-.1432044.1260285-.1679045.2181633-.0247.0921347-.0116426.190304.0362847.2727974l.8727076 1.5101952c.0475661.0827017.1261509.1430654.2183751.1677415.0922243.0246761.1904889.0116313.2730624-.0362494.082782-.04752.1432044-.1260286.1679044-.2181633.0247001-.0921348.0116426-.1903041-.0362846-.2727975l-.8727076-1.5101098c-.0596035-.1037316-.1670499-.1709485-.2864867-.179222zm-14.576037.0541204c-.1708417-.0014541-.3189874.1177122-.3540059.2847706l-.862366 4.0551648c-.0200441.0932617-.002071.1906585.0499442.2706486.0520151.07999.1337859.1359816.2272265.1555907.0933649.0200501.1908784.0021066.2709657-.0498603.0800872-.051967.1361459-.1336734.155773-.2270415l.8623661-4.0550795c.0227329-.1057332-.003509-.216069-.071419-.3002858-.06791-.0842169-.1702352-.1333203-.2784846-.1336381zm7.8288135.0025749c-.1081866.0003079-.2104609.0493571-.2783638.1334989-.067903.0841419-.0941876.1943963-.0715398.3000835l.8592892 4.0557625c.0195527.0933766.0755407.1751218.1555784.227152.0800378.0520301.1775281.0700565.2709039.0500914.0934673-.0195337.175292-.0754674.2273726-.1554275.0520807-.0799601.0701246-.1773558.0501401-.2706411l-.8595456-4.0555063c-.0349804-.1670726-.182985-.2863615-.353835-.2851928zm-3.9080822.4089908c-.0954844-.0002038-.1871157.0376056-.2546256.105066-.0675098.0674603-.1053342.1590118-.1051066.2544035v4.1455016c-.0002277.0954065.0376085.186971.1051368.2544338s.1591817.1052622.2546809.1050358c.0954696.0001809.187079-.0376386.2545703-.1050964.0674913-.0674579.105304-.1589963.1050765-.2543732v-4.1454162c.0002276-.0953918-.0375969-.1869432-.1051067-.2544035-.0675098-.0674604-.1591412-.1052699-.2546256-.1050652zm-6.6036383 1.3396832c-.1441474.012226-.266879.1096631-.3113577.2471881l-.5395557 1.6584226c-.0297334.0906567-.0220844.1894127.0212548.2744207.0433393.0850079.1187963.1492607.2096781.178544.0907454.0296506.1895748.0219728.274641-.0213362.0850663-.043309.1493635-.1186824.1786781-.2094581l.5395557-1.6583372c.0297106-.0906345.0220601-.1893589-.02126-.2743449-.0433202-.084986-.1187413-.1492325-.2095875-.1785344-.0457675-.0149383-.0940658-.0205705-.1420468-.0165646zm13.2045417.0008539c-.0479737-.0043621-.0963323.001219-.1420468.0163938-.0908838.0292852-.1663462.0935336-.2096992.1785372-.0433531.0850037-.051025.1837591-.0213192.2744274l.5392993 1.6584227c.0293116.0907936.0936269.1661775.1787173.2094746.0850905.0432972.1839425.0509388.2746872.0212342.0908733-.02925.1663391-.093461.2097084-.1784331.0433694-.084972.0510687-.1837037.0213954-.2743607l-.5395556-1.6585081c-.0444034-.1374718-.1670327-.2349078-.3111014-.247188zm-8.8590374.9236038c-.1700694.0164557-.3049573.1503913-.3224685.3201918l-.1824729 1.7343294c-.0101845.0948254.0178676.189797.0779512.2639073s.147247.1212515.2422097.1309959c.0949405.0101997.1900363-.0178116.2642512-.0778374.0742149-.0600257.121432-.1471186.1312064-.2420128l.1824729-1.7341587c.0102095-.0948484-.0178289-.1898519-.077913-.2639948s-.1472615-.1213142-.2422479-.1310791c-.0242586-.0025242-.0487079-.0026386-.0729891-.0003416zm4.5019096.0017077c-.024324-.0025963-.0488615-.0024817-.0731601.0003416-.0949823.0096834-.1821899.0567702-.2423363.1308467s-.0882755.1690389-.0781665.2638857l.1813619 1.7345002c.0096911.0948778.0568298.1819856.1309843.2420465s.1692102.0881224.2641314.0779745c.0949987-.0096827.1822204-.0567816.2423692-.1308771s.0882668-.1690802.0781336-.2639407l-.1811909-1.7343294c-.0173759-.169814-.1521564-.3038566-.3222121-.320448z" fill="#f4f2f3"/><path d="m43.311828 12.5376344-19.5518794 11.342381-12.3620991 19.4318126 18.084746-13.3747668z" fill="#000" opacity=".409"/><path d="m28.9884367 29.6344086-5.6228453-5.9097563 19.9462366-13.4665878z" fill="#ff5150"/><path d="m29.0645161 29.8452141-5.6228693-5.9097302-14.32336723 19.3763441z" fill="#f1f1f1"/><path d="m9.11827957 42.7419355 19.90187043-13.3193621 14.291678-19.1645089z" fill="#000" opacity=".243"/></g><g fill="#fff" transform="translate(94.331299 14.345703)"><path d="m0 14.6542969h5.0949707c4.30419922 0 6.8366699-2.6826172 6.8366699-7.24707034v-.02001953c0-4.54443359-2.55249021-7.17700195-6.8366699-7.17700195h-5.0949707zm2.2421875-1.9418946v-10.57031246h2.64257812c3.04296876 0 4.75463868 1.87182618 4.75463868 5.26513672v.02001953c0 3.41333011-1.69165039 5.28515621-4.75463868 5.28515621z"/><path d="m18.3378906 14.864502c3.0129395 0 4.9948731-2.0820313 4.9948731-5.47534184v-.02001954c0-3.37329101-2.0019532-5.4453125-5.0048828-5.4453125-2.99292 0-4.9848633 2.08203126-4.9848633 5.4453125v.02001954c0 3.38330074 1.9719238 5.47534184 4.994873 5.47534184zm.0100098-1.8117676c-1.6916504 0-2.7927246-1.3312989-2.7927246-3.66357424v-.02001954c0-2.30224609 1.111084-3.63354492 2.7727051-3.63354492 1.6916503 0 2.7927246 1.33129883 2.7927246 3.63354492v.02001954c0 2.32226564-1.0810547 3.66357424-2.7727051 3.66357424z"/><path d="m27.036377 14.6542969h2.2321777l2.1921387-7.88769534h.0500488l2.2121582 7.88769534h2.2521973l2.8828125-10.53027346h-2.1420899l-1.921875 8.28808596h-.0500488l-2.2021485-8.28808596h-2.0820312l-2.1921387 8.28808596h-.040039l-1.921875-8.28808596h-2.1621094z"/><path d="m40.1791992 14.6542969h2.1621094v-6.13598635c0-1.64160157.980957-2.74267578 2.5024414-2.74267578 1.5014648 0 2.2421875.89086914 2.2421875 2.47241211v6.40625002h2.1721191v-6.81665042c0-2.42236328-1.3312988-3.91381836-3.6435546-3.91381836-1.5915528 0-2.6726075.72070313-3.2231446 1.79174805h-.0500488v-1.59155273h-2.1621094z"/><path d="m51.420166 14.6542969h2.1621094v-14.44409182h-2.1621094z"/><path d="m60.3288574 14.864502c3.0129395 0 4.9948731-2.0820313 4.9948731-5.47534184v-.02001954c0-3.37329101-2.0019532-5.4453125-5.0048828-5.4453125-2.99292 0-4.9848633 2.08203126-4.9848633 5.4453125v.02001954c0 3.38330074 1.9719238 5.47534184 4.994873 5.47534184zm.0100098-1.8117676c-1.6916504 0-2.7927246-1.3312989-2.7927246-3.66357424v-.02001954c0-2.30224609 1.111084-3.63354492 2.7727051-3.63354492 1.6916503 0 2.7927246 1.33129883 2.7927246 3.63354492v.02001954c0 2.32226564-1.0810547 3.66357424-2.7727051 3.66357424z"/><path d="m70.0883789 14.8444824c1.3913574 0 2.6125488-.7207031 3.2231445-1.8518066h.0400391v1.6616211h2.1721191v-7.2570801c0-2.11206055-1.6315918-3.47338868-4.2041015-3.47338868-2.5925293 0-4.1640625 1.39135743-4.314209 3.203125l-.0100098.11010743h2.0419922l.0200195-.09008789c.1801758-.84082032.9509278-1.43139649 2.2021485-1.43139649 1.3413086 0 2.092041.7006836 2.092041 1.86181641v.79077148l-2.862793.17016602c-2.4924316.15014648-3.9138183 1.27124023-3.9138183 3.10302732v.0200196c0 1.8918457 1.4113769 3.1831054 3.5134277 3.1831054zm-1.3312988-3.2331543v-.0200195c0-.8908691.7207031-1.4614258 2.0219726-1.5415039l2.5725098-.16015626v.82080076c0 1.3713379-1.151123 2.4023438-2.6726074 2.4023438-1.1611328 0-1.921875-.5805664-1.921875-1.5014649z"/><path d="m81.5495605 14.864502c1.5114747 0 2.6726075-.7607422 3.3032227-1.9919434h.0400391v1.7817383h2.1721191v-14.44409182h-2.1721191v5.7055664h-.0400391c-.6306152-1.24121093-1.8317871-1.99194336-3.3232422-1.99194336-2.6425781 0-4.3842773 2.10205079-4.3842773 5.45532227v.01000977c0 3.35327144 1.7216797 5.47534184 4.4042968 5.47534184zm.5705567-1.8618165c-1.7116699 0-2.7626953-1.3713378-2.7626953-3.61352534v-.01000977c0-2.22216797 1.0610351-3.60351562 2.7626953-3.60351562 1.621582 0 2.7827148 1.42138671 2.7827148 3.60351562v.01000977c0 2.19213864-1.151123 3.61352534-2.7827148 3.61352534z"/><path d="m94.0617676 14.6542969h2.1721191v-8.80859378h2.1020508v-1.72167968h-2.1420898v-1.08105469c0-.9309082.4604492-1.40136719 1.4313964-1.40136719.2702637 0 .5405274.02001953.7507325.05004883v-1.6015625c-.2902832-.05004883-.770752-.09008789-1.2111817-.09008789-2.1420898 0-3.1030273.9609375-3.1030273 3.00292969v1.12109375h-1.451416v1.72167968h1.451416z"/><path d="m103.651123 14.864502c3.012939 0 4.994873-2.0820313 4.994873-5.47534184v-.02001954c0-3.37329101-2.001953-5.4453125-5.004883-5.4453125-2.99292 0-4.984863 2.08203126-4.984863 5.4453125v.02001954c0 3.38330074 1.971924 5.47534184 4.994873 5.47534184zm.01001-1.8117676c-1.691651 0-2.792725-1.3312989-2.792725-3.66357424v-.02001954c0-2.30224609 1.111084-3.63354492 2.772705-3.63354492 1.691651 0 2.792725 1.33129883 2.792725 3.63354492v.02001954c0 2.32226564-1.081055 3.66357424-2.772705 3.66357424z"/><path d="m110.317627 14.6542969h2.162109v-6.27612307c0-1.57153321.86084-2.48242188 2.252198-2.48242188.42041 0 .800781.05004883.970947.12011719v-2.01196289c-.170166-.0300293-.44043-.08007813-.750733-.08007813-1.201171 0-2.082031.77075196-2.422363 2.00195313h-.050049v-1.80175781h-2.162109z"/></g><g fill="#fff" transform="translate(93 38)"><path d="m12.9141645 34.04c8.017259 0 12.8458355-3.8987542 12.8458355-10.0318821v-.0227997c0-5.1299398-2.9836958-7.9115071-9.8165871-9.3250905l-3.5531034-.7295914c-3.96307696-.8207904-5.76240499-2.1887743-5.76240499-4.51434695v-.02279973c0-2.62196919 2.39151194-4.42314803 6.24070729-4.44594776 3.6897613 0 6.2179311 1.70997991 6.6051283 4.58274615l.0455526.27359679h5.6257471l-.0227763-.38759545c-.3416446-5.63153382-5.0335632-9.41628935-12.208099-9.41628935-7.08343064 0-12.16254646 3.92155392-12.18532277 9.71268587v.02279973c0 4.9019424 3.18868258 7.911507 9.65715297 9.2566912l3.5303271.7295915c4.2363926.8891895 5.9446154 2.211574 5.9446154 4.673945v.0227998c0 2.8271667-2.5964987 4.673945-6.741786 4.673945-4.12251106 0-7.01510169-1.7555793-7.44785147-4.5827461l-.0455526-.2735968h-5.62574713l.0227763.341996c.38719718 5.9051306 5.35243148 9.4618888 12.8913882 9.4618888z"/><path d="m36.6058988 34.04c3.1888052 0 5.8765124-1.5807273 7.2659204-4.0873091h.136663v3.6808364h5.6715178v-16.4621455c0-4.8099273-3.8948977-7.9713818-9.9308504-7.9713818-6.1270613 0-9.8397416 3.1840364-10.1813993 7.4294182l-.0227772.2709818h5.2615285l.0455544-.2032364c.3644349-1.7613818 2.0043918-3.0033818 4.692099-3.0033818 2.8699247 0 4.4643272 1.4678182 4.4643272 3.8840727v1.6484728l-6.3092788.3838909c-5.8537352.3613091-9.1792034 2.9130545-9.1792034 7.1584363v.0451637c0 4.2679636 3.2571367 7.2261818 8.0858988 7.2261818zm-2.4371582-7.452v-.0225818c0-1.8968727 1.526071-3.0937091 4.3276641-3.2743637l5.5120775-.3387272v1.8065454c0 2.8453091-2.4599354 4.9905818-5.7170721 4.9905818-2.4827126 0-4.1226695-1.1968363-4.1226695-3.1614545z"/><path d="m55.7419802 34.04h5.670297v-19.6367213h4.7366337v-4.3436066h-4.8504951v-2.12655735c0-1.94557377 1.0247525-2.96360655 3.2336634-2.96360655.6148515 0 1.2524753.0452459 1.7079208.11311475v-3.93639344c-.7059406-.13573771-1.9128713-.22622951-3.0287129-.22622951-5.2376237 0-7.4693069 2.17180328-7.4693069 6.8547541v2.284918h-3.3019802v4.3436066h3.3019802z"/><path d="m75.2458988 34.04c3.1888052 0 5.8765124-1.5807273 7.2659204-4.0873091h.136663v3.6808364h5.6715178v-16.4621455c0-4.8099273-3.8948977-7.9713818-9.9308504-7.9713818-6.1270613 0-9.8397416 3.1840364-10.1813993 7.4294182l-.0227772.2709818h5.2615285l.0455544-.2032364c.3644349-1.7613818 2.0043918-3.0033818 4.692099-3.0033818 2.8699247 0 4.4643272 1.4678182 4.4643272 3.8840727v1.6484728l-6.3092788.3838909c-5.8537352.3613091-9.1792034 2.9130545-9.1792034 7.1584363v.0451637c0 4.2679636 3.2571367 7.2261818 8.0858988 7.2261818zm-2.4371582-7.452v-.0225818c0-1.8968727 1.526071-3.0937091 4.3276641-3.2743637l5.5120775-.3387272v1.8065454c0 2.8453091-2.4599354 4.9905818-5.7170721 4.9905818-2.4827126 0-4.1226695-1.1968363-4.1226695-3.1614545z"/><path d="m92.92 34.04h5.5679167v-14.118854c0-3.6043253 1.9006943-5.6475416 5.0536113-5.6475416.939166 0 1.788889.137745 2.258472.3214048v-5.16543434c-.424861-.11478743-1.073333-.22957486-1.766528-.22957486-2.728055 0-4.6958331 1.7677264-5.4337498 4.7062847h-.1118055v-4.20122h-5.5679167z"/><path d="m111.791625 6.08872727c1.813429 0 3.208375-1.38278788 3.208375-3.03321212 0-1.6950303-1.394946-3.05551515-3.208375-3.05551515-1.81343 0-3.231625 1.36048485-3.231625 3.05551515 0 1.65042424 1.418195 3.03321212 3.231625 3.03321212zm-2.906138 27.03127273h5.789026v-23.64121212h-5.789026z"/></g></g></g></svg>