<?xml version="1.0" encoding="UTF-8"?>
<svg viewBox="0 0 243 87" version="1.1" xmlns="http://www.w3.org/2000/svg" xmlns:xlink="http://www.w3.org/1999/xlink">
    <title>safari_download_dark</title>
    <defs>
        <linearGradient x1="49.9982147%" y1="99.9989561%" x2="49.9982147%" y2="-0.000264981548%" id="linearGradient-1">
            <stop stop-color="#BDBDBD" offset="0%"></stop>
            <stop stop-color="#FFFFFF" offset="100%"></stop>
        </linearGradient>
        <radialGradient cx="50.2253536%" cy="42.7093064%" fx="50.2253536%" fy="42.7093064%" r="54.2509431%" id="radialGradient-2">
            <stop stop-color="#06C2E7" offset="0%"></stop>
            <stop stop-color="#0DB8EC" offset="25%"></stop>
            <stop stop-color="#12AEF1" offset="50%"></stop>
            <stop stop-color="#1F86F9" offset="75%"></stop>
            <stop stop-color="#107DDD" offset="100%"></stop>
        </radialGradient>
    </defs>
    <g id="Page-1" stroke="none" stroke-width="1" fill="none" fill-rule="evenodd">
        <g id="safari_download_dark" transform="translate(0.157895, 0.000000)">
            <rect id="Rectangle" stroke="#162C40" fill="#031E36" x="0.5" y="0.5" width="241.684211" height="86" rx="20"></rect>
            <g id="Safari_(web_browser)-Logo.wine" transform="translate(24.842105, 17.000000)" fill-rule="nonzero">
                <path d="M51.8602151,29.0645161 C51.8602151,42.5984618 40.3784853,53.5698925 26.2150538,53.5698925 C12.0516223,53.5698925 0.569892473,42.5984618 0.569892473,29.0645161 C0.569892473,15.5305705 12.0516223,4.55913978 26.2150538,4.55913978 C40.3784853,4.55913978 51.8602151,15.5305705 51.8602151,29.0645161 Z" id="Path" fill="#000000" opacity="0.53"></path>
                <path d="M53,26.5 C53,41.1355459 41.1355269,53 26.4999577,53 C11.8644215,53 0,41.1355128 0,26.5 C0,11.8644872 11.8644215,0 26.4999577,0 C41.1355269,0 53,11.8644541 53,26.5 L53,26.5 Z" id="Path" stroke="#CDCDCD" stroke-width="1.29783227" fill="url(#linearGradient-1)" stroke-linecap="round" stroke-linejoin="round"></path>
                <path d="M50.7204301,26.7849462 C50.7204301,40.3188919 39.7489804,51.2903226 26.2150113,51.2903226 C12.6810754,51.2903226 1.70967742,40.3188587 1.70967742,26.7849462 C1.70967742,13.2510337 12.6810754,2.27956989 26.2150113,2.27956989 C39.7489804,2.27956989 50.7204301,13.2510006 50.7204301,26.7849462 L50.7204301,26.7849462 Z" id="Path" fill="url(#radialGradient-2)"></path>
                <path d="M26.2151392,3.41935585 C26.11964,3.41912944 26.0279866,3.45692888 25.9604583,3.52439169 C25.89293,3.5918545 25.8550938,3.68341896 25.8553215,3.77882551 L25.8553215,7.9243271 C25.8550938,8.01973365 25.89293,8.1112981 25.9604583,8.17876091 C26.0279866,8.24622372 26.11964,8.28402316 26.2151392,8.28379675 C26.3106088,8.28397768 26.4022182,8.24615815 26.4697095,8.17870029 C26.5372008,8.11124243 26.5750135,8.01970399 26.574786,7.9243271 L26.574786,3.77874012 C26.5749908,3.68336318 26.5371563,3.59183372 26.469649,3.52439189 C26.4021417,3.45695005 26.3105233,3.41915227 26.2150538,3.41935585 L26.2151392,3.41935585 Z M23.8616236,3.56792585 C23.8372996,3.56532957 23.8127621,3.56544412 23.7884635,3.56826739 C23.6934812,3.57795083 23.6062736,3.62503759 23.5461272,3.6991141 C23.4859808,3.77319062 23.4578517,3.86815307 23.4679607,3.96299982 L23.6493226,5.69732925 C23.6590154,5.79221935 23.7061479,5.87934236 23.7802963,5.93943038 C23.8544448,5.9995184 23.9494995,6.02762026 24.0444383,6.01752103 C24.139437,6.00783834 24.2266587,5.96073945 24.2868075,5.88664393 C24.3469563,5.8125484 24.3750743,5.71756377 24.3649411,5.62270322 L24.1837502,3.88845917 C24.1664124,3.71861192 24.0316225,3.58452426 23.8615381,3.56792585 L23.8616236,3.56792585 Z M28.5850646,3.56963354 C28.4149711,3.58614146 28.2801096,3.72015777 28.2626816,3.88999609 L28.0801233,5.62415476 C28.0699624,5.71902085 28.0980413,5.81402334 28.1581526,5.88816015 C28.2182638,5.96229697 28.3054565,6.00946206 28.4004551,6.01922872 C28.4953725,6.02940336 28.5904364,6.00137849 28.6646187,5.94135315 C28.7388009,5.88132782 28.7859879,5.79424904 28.7957418,5.69937848 L28.9783001,3.96504904 C28.9884594,3.87020145 28.9603756,3.77521846 28.9002604,3.70110877 C28.8401452,3.62699908 28.7529526,3.57987005 28.6579683,3.57014585 C28.6337085,3.5676672 28.6092664,3.56752423 28.5849792,3.56971893 L28.5850646,3.56963354 Z M21.4440073,3.91817297 C21.3357651,3.91845031 21.2334275,3.96750903 21.1654857,4.05169104 C21.0975439,4.13587306 21.0712531,4.24618881 21.0939329,4.35192609 L21.9532221,8.40760322 C21.9727941,8.50096406 22.0287903,8.58268838 22.1088258,8.63470102 C22.1888612,8.68671367 22.2863407,8.70472853 22.3797044,8.68476122 C22.4731353,8.66522548 22.55493,8.60931723 22.6070061,8.52939615 C22.6590823,8.44947506 22.6771507,8.35212366 22.657217,8.25886347 L21.7978424,4.20310096 C21.762862,4.03602834 21.6148574,3.91673949 21.4440073,3.91790818 L21.4440073,3.91817297 Z M31.0025099,3.9215751 C30.8316421,3.92012919 30.6834872,4.03933856 30.648504,4.20643095 L29.7861379,8.26151039 C29.7660939,8.35477211 29.784067,8.45216892 29.8360822,8.53215896 C29.8880973,8.612149 29.9698681,8.66814057 30.0633087,8.68774968 C30.1566488,8.70777648 30.2541294,8.68983232 30.3341949,8.63788512 C30.4142604,8.58593793 30.4703144,8.50426744 30.4899619,8.41093322 L31.352328,4.3557684 C31.3750578,4.25004975 31.3488265,4.13972894 31.280936,4.05551561 C31.2130454,3.97130227 31.1107443,3.92218797 31.0025099,3.9218445 L31.0025099,3.9215751 Z M19.1367295,4.56811958 C19.0887435,4.56377275 19.0403766,4.56941299 18.9946827,4.58468417 C18.9038252,4.61395177 18.8283795,4.67817016 18.7850272,4.76314019 C18.7416749,4.84811021 18.7339874,4.94683221 18.7636644,5.03747804 L19.3029636,6.69598606 C19.3322772,6.7867817 19.396588,6.86217081 19.4816743,6.90548182 C19.5667605,6.94879284 19.6656118,6.9564573 19.7563682,6.92678029 C19.84725,6.89749705 19.922707,6.83324424 19.9660463,6.74823631 C20.0093855,6.66322838 20.0170344,6.56447233 19.9873011,6.47381566 L19.4479163,4.81539302 C19.4035489,4.67784729 19.2808614,4.58035805 19.1367295,4.56811958 L19.1367295,4.56811958 Z M33.2967112,4.56897343 C33.1525882,4.58123412 33.0299115,4.67871474 32.9855244,4.81624686 L32.4457978,6.47458412 C32.4160908,6.56522976 32.4237532,6.66396393 32.4670904,6.74895191 C32.5104276,6.83393989 32.5858689,6.89817914 32.6767307,6.92746337 C32.7674532,6.95714521 32.8662735,6.94950211 32.951342,6.906224 C33.0364105,6.86294588 33.1007195,6.78759789 33.1300498,6.6968399 L33.6697764,5.03833188 C33.6994871,4.94769745 33.6918365,4.84897298 33.6485164,4.763987 C33.6051963,4.67900103 33.5297751,4.61475448 33.438929,4.58545263 C33.3930982,4.57053626 33.3447429,4.56493318 33.2967112,4.56897343 L33.2967112,4.56897343 Z M16.855092,5.40232589 C16.8069416,5.40328162 16.7594763,5.41390957 16.7155237,5.43357661 C16.628226,5.47213894 16.5598964,5.54384825 16.5256391,5.63285317 C16.4913818,5.72185809 16.4940182,5.82082865 16.5329653,5.90788736 L18.2183824,9.69614032 C18.2569641,9.78336895 18.3287418,9.85164739 18.4178397,9.88587394 C18.5069376,9.92010049 18.6060134,9.91745462 18.6931538,9.87852155 C18.780482,9.83999107 18.8488501,9.76829518 18.8831407,9.67928695 C18.9174313,9.59027871 18.9148196,9.49129075 18.8758831,9.4042108 L17.1903805,5.61604323 C17.1319718,5.48377325 16.9997753,5.39947579 16.855092,5.40224051 L16.855092,5.40232589 Z M35.6040745,5.41496279 C35.4594725,5.41218952 35.3272754,5.4962211 35.2685295,5.62825321 L33.5779844,9.41420078 C33.5389244,9.50122396 33.536171,9.60020651 33.5703332,9.6892625 C33.6044954,9.7783185 33.6727589,9.85011159 33.76003,9.88876769 C33.8471377,9.92778985 33.9462163,9.9305405 34.0353588,9.89641145 C34.1245013,9.8622824 34.1963641,9.79408516 34.2350577,9.70689876 L35.9256028,5.92112196 C35.9646899,5.83408941 35.9674576,5.73508547 35.9332937,5.64600914 C35.8991299,5.55693281 35.83085,5.4851252 35.7435573,5.44646967 C35.6996223,5.42680701 35.6522031,5.41609581 35.6040745,5.41496279 L35.6040745,5.41496279 Z M14.7372954,6.52171635 C14.6657313,6.51657459 14.5942846,6.53318369 14.5323445,6.56936088 C14.4495625,6.61688086 14.3891402,6.69538944 14.3644401,6.78752419 C14.3397401,6.87965895 14.3527975,6.97782824 14.4007248,7.06032161 L15.2734323,8.5705168 C15.3209985,8.65321852 15.3995833,8.71358224 15.4918075,8.73825833 C15.5840317,8.76293442 15.6822964,8.74988964 15.7648699,8.70200889 C15.8476519,8.65448891 15.9080742,8.57598033 15.9327743,8.48384558 C15.9574744,8.39171082 15.9444169,8.29354153 15.8964896,8.21104816 L15.0238675,6.70093836 C14.964264,6.59720674 14.8568177,6.52998984 14.7373808,6.52171635 L14.7372954,6.52171635 Z M37.6928122,6.52171635 C37.5733913,6.52983265 37.4659402,6.59706064 37.4064964,6.70085297 L36.5336179,8.21104816 C36.4857048,8.29356228 36.4726733,8.3917472 36.4974061,8.48388443 C36.5221389,8.57602166 36.5825976,8.65451757 36.6654086,8.70200889 C36.7479821,8.74988964 36.8462467,8.76293442 36.9384709,8.73825833 C37.0306952,8.71358224 37.10928,8.65321852 37.1568461,8.5705168 L38.0295537,7.06023622 C38.077481,6.97774285 38.0905384,6.87957356 38.0658384,6.78743881 C38.0411383,6.69530405 37.9807159,6.61679547 37.8979339,6.5692755 C37.8358467,6.53331784 37.7644056,6.51675363 37.6928122,6.52171635 L37.6928122,6.52171635 Z M12.6807789,7.80308115 C12.6091079,7.80566478 12.5398351,7.82953596 12.4818108,7.87164488 C12.4044059,7.92749068 12.3524606,8.01184336 12.337464,8.10604627 C12.3224674,8.20024918 12.3456551,8.29653947 12.4018988,8.3736202 L14.8384888,11.72923 C14.8944189,11.8065464 14.9788664,11.858428 15.0731678,11.8734087 C15.1674692,11.8883893 15.26386,11.8652356 15.341037,11.8090645 C15.4184173,11.75322 15.4703457,11.668884 15.4853415,11.5747019 C15.5003374,11.4805198 15.4771656,11.3842494 15.4209491,11.3071746 L12.9842736,7.95156475 C12.9142421,7.85463942 12.8004455,7.79898123 12.6808644,7.80316653 L12.6807789,7.80308115 Z M39.7750543,7.82135342 C39.655506,7.81696489 39.5416525,7.87247506 39.4715596,7.96932472 L37.0303544,11.3216899 C36.9740219,11.3987031 36.9507211,11.4949635 36.9656054,11.589182 C36.9804897,11.6834004 37.0323325,11.767813 37.1096681,11.8237506 C37.1867428,11.8800236 37.2830762,11.9033158 37.3773777,11.8884793 C37.4716791,11.8736428 37.5561841,11.8218993 37.6122164,11.7446846 L40.0532507,8.39240479 C40.1095606,8.31538385 40.1328477,8.2191298 40.1179645,8.12491831 C40.1030813,8.03070682 40.0512535,7.94629612 39.9739369,7.89034408 C39.9160275,7.84801977 39.8467576,7.82399067 39.7750543,7.82135342 L39.7750543,7.82135342 Z M10.8426316,9.3431609 C10.7472521,9.33801499 10.653779,9.37122308 10.5830671,9.43537613 C10.5119836,9.49903741 10.469211,9.58836408 10.464207,9.68360505 C10.4592029,9.77884602 10.4923796,9.87215539 10.5564013,9.94290145 L11.7243133,11.2390378 C11.7880359,11.3100608 11.877459,11.3527907 11.9727992,11.3577742 C12.0681394,11.3627577 12.1615378,11.3295841 12.2323315,11.2655923 C12.3034204,11.2019161 12.3461949,11.1125751 12.3511989,11.0173202 C12.3562028,10.9220653 12.323024,10.828742 12.2589973,10.7579816 L11.0912563,9.46193071 C11.0275381,9.39086719 10.9380858,9.34812047 10.8427171,9.3431609 L10.8426316,9.3431609 Z M41.5901254,9.34572244 C41.4947542,9.35083997 41.4053228,9.3935927 41.3415007,9.46457762 L40.1736743,10.7603724 C40.1095783,10.8311049 40.0763389,10.9244388 40.0813113,11.0197212 C40.0862838,11.1150036 40.1290581,11.2043783 40.2001691,11.2680685 C40.2709881,11.3320547 40.364407,11.3652156 40.4597614,11.3602162 C40.5551159,11.3552167 40.6445471,11.3124689 40.7082728,11.2414285 L41.8762702,9.94563375 C41.9403019,9.87485912 41.9734829,9.78152195 41.9684791,9.68625307 C41.9634752,9.59098419 41.9206986,9.50162882 41.8496044,9.43793767 C41.7788753,9.37392742 41.6855155,9.34073773 41.5902109,9.34572244 L41.5901254,9.34572244 Z M9.0808922,11.0337735 C8.98557182,11.0388984 8.8961964,11.0816538 8.83243848,11.1526287 C8.76839016,11.2233789 8.73519698,11.3167072 8.74020128,11.4119691 C8.74520558,11.507231 8.78799494,11.5965755 8.85910431,11.6602394 L11.9431953,14.4337832 C12.01401,14.4977428 12.10741,14.5308873 12.2027435,14.5258881 C12.2980769,14.5208889 12.3874904,14.4781579 12.4512135,14.4071433 C12.5152673,14.3364183 12.5484732,14.2431105 12.5434849,14.1478628 C12.5384965,14.0526151 12.4957251,13.9632788 12.4246331,13.899618 L9.34045668,11.1260741 C9.26964394,11.0620324 9.17619303,11.0288431 9.08080673,11.0338589 L9.0808922,11.0337735 Z M43.3604116,11.0459835 C43.2649893,11.0407563 43.171437,11.0738675 43.1005907,11.1379425 L40.0147904,13.9093518 C39.9436343,13.9729422 39.9007662,14.0622313 39.8956658,14.1574739 C39.8905654,14.2527164 39.9236531,14.3460652 39.9876117,14.4168771 C40.0513175,14.4879506 40.1407346,14.5307494 40.236097,14.5358125 C40.3314594,14.5408756 40.4249135,14.5077861 40.4958009,14.4438586 L43.5818576,11.6724494 C43.6529895,11.6088353 43.6958257,11.5195337 43.700894,11.4242917 C43.7059622,11.3290497 43.6728449,11.235714 43.6088653,11.164924 C43.5451912,11.0938253 43.4557732,11.0510189 43.3604116,11.0459835 L43.3604116,11.0459835 Z M7.61581011,12.9159034 C7.4962144,12.9115735 7.38235135,12.9671844 7.31231539,13.0641309 C7.25599558,13.1411782 7.23273651,13.2374735 7.24768653,13.3317019 C7.26263656,13.4259303 7.31456264,13.5103201 7.391971,13.5661916 L8.80406331,14.5910614 C8.88115077,14.6473397 8.97751194,14.6706017 9.07181638,14.6556981 C9.16612083,14.6407946 9.25059009,14.5889547 9.30652612,14.5116539 C9.3628184,14.434612 9.38607769,14.3383437 9.37116219,14.2441307 C9.35624668,14.1499177 9.30438482,14.0655193 9.22704145,14.0095932 L7.81486367,12.9846379 C7.75687178,12.9423822 7.68754309,12.9184425 7.61581011,12.9159034 L7.61581011,12.9159034 Z M44.8240407,12.9289673 C44.752362,12.9315096 44.6830775,12.9553849 44.6250726,12.997531 L43.2122966,14.021547 C43.1348917,14.0774099 43.0829426,14.1617693 43.0679313,14.25598 C43.0529199,14.3501907 43.0760823,14.4464951 43.1322991,14.5236077 C43.1881991,14.6009375 43.2726337,14.6528324 43.3669281,14.6678145 C43.4612225,14.6827965 43.5576063,14.6596313 43.6347619,14.6034422 L45.0476234,13.5793408 C45.1249902,13.5234833 45.1769016,13.4391412 45.1918813,13.3449599 C45.206861,13.2507786 45.1836753,13.1545152 45.12745,13.0774509 C45.0574374,12.9804933 44.9436376,12.9248015 44.8240407,12.9289673 L44.8240407,12.9289673 Z M6.24679337,14.9233778 C6.12737738,14.9315091 6.01993274,14.998733 5.96047759,15.1025144 C5.91255034,15.1850078 5.89949289,15.2831771 5.92419294,15.3753119 C5.948893,15.4674466 6.00931535,15.5459552 6.09209738,15.5934752 L9.68574496,17.6662687 C9.76831844,17.7141494 9.86658307,17.7271942 9.9588073,17.7025181 C10.0510315,17.677842 10.1296164,17.6174783 10.1771825,17.5347766 C10.2251097,17.4522832 10.2381672,17.3541139 10.2134671,17.2619791 C10.1887671,17.1698444 10.1283447,17.0913358 10.0455627,17.0438158 L6.45191512,14.9710223 C6.38983522,14.9350399 6.31839504,14.9184462 6.24679337,14.9233778 L6.24679337,14.9233778 Z M46.1834851,14.9233778 C46.111867,14.9182388 46.0403664,14.9348465 45.9783633,14.9710223 L42.3848012,17.0438158 C42.3020192,17.0913358 42.2415969,17.1698444 42.2168968,17.2619791 C42.1921967,17.3541139 42.2052542,17.4522832 42.2531814,17.5347766 C42.3007476,17.6174783 42.3793324,17.677842 42.4715566,17.7025181 C42.5637809,17.7271942 42.6620455,17.7141494 42.744619,17.6662687 L46.338352,15.5935605 C46.4211341,15.5460406 46.4815564,15.467532 46.5062565,15.3753972 C46.5309565,15.2832625 46.5178991,15.1850932 46.4699718,15.1025998 C46.4103476,14.998901 46.3029049,14.9317184 46.1834851,14.9234632 L46.1834851,14.9233778 Z M5.21152681,17.0631981 C5.06685973,17.0600301 4.93450036,17.1441526 4.87606728,17.2764031 C4.83697491,17.3634251 4.8341949,17.4624203 4.86834208,17.551495 C4.90248925,17.6405697 4.97074988,17.712384 5.05802736,17.7510554 L6.65225069,18.4614543 C6.73935713,18.5005087 6.83844852,18.503286 6.9276097,18.469172 C7.01677088,18.4350579 7.08865495,18.3668635 7.12736394,18.2796707 C7.16645098,18.1926382 7.16921867,18.0936342 7.13505482,18.0045579 C7.10089097,17.9154816 7.03261115,17.843674 6.94531839,17.8050184 L5.35118053,17.0946196 C5.30720844,17.0749098 5.25971225,17.0642524 5.21152681,17.0632835 L5.21152681,17.0631981 Z M47.225589,17.078055 C47.1773775,17.0790357 47.1298557,17.0896923 47.0858499,17.1093911 L45.4912847,17.8185946 C45.4039589,17.8571717 45.3356158,17.9289167 45.3013719,18.0179606 C45.267128,18.1070046 45.2698053,18.2060092 45.3088118,18.2930761 C45.3474947,18.3803199 45.4193636,18.4485812 45.5085337,18.4827727 C45.5977039,18.5169641 45.6968327,18.5142703 45.7840105,18.4752865 L47.3784902,17.7659977 C47.4657854,17.7273888 47.5340901,17.6556303 47.5683007,17.5665897 C47.6025113,17.4775491 47.5998093,17.3785618 47.5607922,17.2915162 C47.5023277,17.1593778 47.370173,17.0752202 47.225589,17.078055 L47.225589,17.078055 Z M4.28899174,19.299759 C4.14489884,19.3118666 4.02217264,19.4092251 3.97771949,19.5466909 C3.94794134,19.6373026 3.95551782,19.736032 3.99877374,19.8210499 C4.04202966,19.9060678 4.11740176,19.9703706 4.20822505,19.9997409 L8.15365643,21.2840942 C8.24437831,21.3138661 8.34323523,21.3062985 8.42835766,21.2630656 C8.51348008,21.2198326 8.57785168,21.1444977 8.60723189,21.0537269 C8.63700636,20.963104 8.62941805,20.8643649 8.58614507,20.779345 C8.5428721,20.6943251 8.46747985,20.6300296 8.37664086,20.6006769 L4.43120949,19.3162382 C4.385393,19.3012544 4.33702973,19.2956214 4.28899174,19.2996736 L4.28899174,19.299759 Z M48.1464148,19.3151282 C48.0984287,19.3107814 48.0500618,19.3164216 48.004368,19.3316928 L44.0579964,20.6132284 C43.9671303,20.6425292 43.8916934,20.7067894 43.8483713,20.7917953 C43.8050491,20.8768012 43.7974119,20.9755476 43.827149,21.066193 C43.8564959,21.1569553 43.9208258,21.2322989 44.0059123,21.275562 C44.0909987,21.318825 44.1898313,21.326443 44.2805535,21.2967311 L48.2267541,20.0152809 C48.3176379,19.9859957 48.3931003,19.9217474 48.4364533,19.8367437 C48.4798064,19.75174 48.4874783,19.6529846 48.4577725,19.5623163 C48.4133221,19.4247577 48.2905844,19.3272822 48.1464148,19.3150428 L48.1464148,19.3151282 Z M3.71422351,21.6473197 C3.54331211,21.6459208 3.39512794,21.7651319 3.36004662,21.9322477 C3.34000254,22.0255095 3.35797569,22.1229063 3.40999084,22.2028963 C3.46200599,22.2828863 3.54377675,22.3388779 3.63721738,22.358487 L5.34459954,22.7210295 C5.43795184,22.7410541 5.53544323,22.7230984 5.61551095,22.6711337 C5.69557868,22.6191691 5.75162463,22.5374776 5.77125278,22.4441277 C5.79129903,22.3508781 5.77333744,22.2534921 5.7213398,22.1735043 C5.66934215,22.0935165 5.58759235,22.0375169 5.49416748,22.0178884 L3.78687079,21.6553459 C3.76298634,21.6502805 3.73864017,21.6477051 3.71422351,21.6476613 L3.71422351,21.6473197 Z M48.7167387,21.6507351 C48.6924095,21.6513007 48.6681684,21.653871 48.6442623,21.6584197 L46.9367947,22.0207914 C46.8433947,22.0404011 46.7616603,22.0963709 46.7096634,22.1763255 C46.6576665,22.2562802 46.6396903,22.3536334 46.6597094,22.44686 C46.6793406,22.5402183 46.7353792,22.6219226 46.8154397,22.6739147 C46.8955001,22.7259067 46.9929902,22.7439053 47.0863627,22.7239326 L48.7936594,22.3615609 C48.8870926,22.3419294 48.9688553,22.2859371 49.0208803,22.2059565 C49.0729053,22.125976 49.0909099,22.0285913 49.0709156,21.9353216 C49.0357438,21.7682611 48.8876152,21.6490947 48.7167387,21.6503831 L48.7167387,21.6507351 Z M3.279109,24.0087981 C3.1090957,24.0251687 2.97420218,24.1590027 2.95664051,24.3287338 C2.94635556,24.4235835 2.97432599,24.5186179 3.03436332,24.5928105 C3.09440064,24.6670032 3.18155555,24.7142379 3.27654497,24.7240639 L7.40308176,25.1598662 C7.49803695,25.1701403 7.59317554,25.1421855 7.66744268,25.0821884 C7.74170982,25.0221914 7.78898137,24.9350995 7.7987958,24.8401868 C7.8090547,24.7453241 7.78105007,24.6502881 7.72097917,24.5761096 C7.66090826,24.5019311 7.57372425,24.4547266 7.4787204,24.444942 L3.35209815,24.0090543 C3.32783674,24.0065585 3.30338736,24.0064727 3.279109,24.0087981 L3.279109,24.0087981 Z M49.1548446,24.0397927 C49.1305238,24.0371681 49.1059862,24.037254 49.0816845,24.0400489 L44.9546349,24.4703866 C44.8596526,24.48007 44.772445,24.5271568 44.7122986,24.6012333 C44.6521523,24.6753098 44.6240231,24.7702723 44.6341322,24.865119 C44.6438242,24.9600256 44.6909689,25.0471626 44.7651364,25.1072531 C44.8393038,25.1673435 44.9343807,25.1954342 45.0293334,25.1853108 L49.156383,24.7549731 C49.2513652,24.7452896 49.3385728,24.6982029 49.3987192,24.6241264 C49.4588656,24.5500498 49.4869948,24.4550874 49.4768857,24.3602406 C49.4595939,24.1904358 49.3248775,24.0563502 49.1548446,24.0397073 L49.1548446,24.0397927 Z M3.20928213,26.4260326 C3.11378293,26.4258052 3.02212955,26.4636046 2.95460123,26.5310674 C2.8870729,26.5985302 2.84923675,26.6900947 2.84946338,26.7855012 C2.84928228,26.8808782 2.88713853,26.9723987 2.9546619,27.0398245 C3.02218528,27.1072503 3.11381262,27.1450264 3.20928213,27.1447991 L4.95478275,27.1447991 C5.05026014,27.1450036 5.14188722,27.1072086 5.2094081,27.0397692 C5.27692899,26.9723299 5.31478252,26.8808007 5.31460131,26.7854159 C5.31480528,26.6900163 5.27696179,26.5984651 5.20943843,26.5310072 C5.14191507,26.4635494 5.05027498,26.4257426 4.95478275,26.4259472 L3.20928213,26.4260326 Z M47.4754102,26.4260326 C47.379911,26.4258052 47.2882577,26.4636046 47.2207293,26.5310674 C47.153201,26.5985302 47.1153649,26.6900947 47.1155915,26.7855012 C47.1154104,26.8808782 47.1532666,26.9723987 47.22079,27.0398245 C47.2883134,27.1072503 47.3799407,27.1450264 47.4754102,27.1447991 L49.2209109,27.1447991 C49.3163804,27.1450037 49.4079988,27.1072059 49.4755061,27.0397641 C49.5430134,26.9723223 49.5808479,26.8807928 49.5806441,26.7854159 C49.5808708,26.6900093 49.5430346,26.5984448 49.4755063,26.530982 C49.407978,26.4635192 49.3163246,26.4257198 49.2208254,26.4259472 L47.4754102,26.4260326 Z M7.47384876,28.3851794 C7.4495819,28.3825838 7.42510106,28.3826983 7.40085961,28.3855209 L3.27363908,28.8157733 C3.17865683,28.8254567 3.09144921,28.8725435 3.03130284,28.94662 C2.97115646,29.0206965 2.94302731,29.1156589 2.95313635,29.2105057 C2.96282919,29.3053958 3.00996168,29.3925188 3.08411013,29.4526068 C3.15825859,29.5126948 3.25331326,29.5407967 3.34825212,29.5306975 L7.47547264,29.1003597 C7.5704549,29.0906763 7.65766251,29.0435895 7.71780889,28.969513 C7.77795527,28.8954365 7.80608442,28.800474 7.79597538,28.7056273 C7.7785995,28.5358133 7.64381896,28.4017707 7.4737633,28.3851794 L7.47384876,28.3851794 Z M44.9539511,28.4106239 C44.7839091,28.4270015 44.6490062,28.5608805 44.6314827,28.7306449 C44.621221,28.8254675 44.6491911,28.9204678 44.709208,28.994639 C44.7692249,29.0688102 44.8563442,29.1160418 44.9513017,29.1258897 L49.0779239,29.561692 C49.1728653,29.5719419 49.2679817,29.5439759 49.3422298,29.4839813 C49.4164779,29.4239866 49.4637373,29.3369088 49.4735525,29.2420126 C49.483788,29.1471771 49.4557838,29.0521751 49.3957333,28.9780181 C49.3356828,28.903861 49.2485345,28.8566596 49.1535626,28.8468532 L45.0271112,28.4109655 C45.0027955,28.4084417 44.9782894,28.4083273 44.9539511,28.4106239 L44.9539511,28.4106239 Z M5.41664856,30.8387022 C5.39223746,30.8388475 5.36790155,30.8414218 5.34400127,30.8463868 L3.63661911,31.2087585 C3.54317848,31.2283676 3.46140772,31.2843592 3.40939257,31.3643492 C3.35737742,31.4443393 3.33940427,31.5417361 3.35944835,31.6349978 C3.3790765,31.7283478 3.43512245,31.8100392 3.51519017,31.8620039 C3.5952579,31.9139686 3.69274929,31.9319243 3.78610159,31.9118997 L5.49356921,31.5496987 C5.58699408,31.5300702 5.66874388,31.4740706 5.72074152,31.3940828 C5.77273916,31.314095 5.79070076,31.216709 5.77065451,31.1234594 C5.73559094,30.9563915 5.58751041,30.8371705 5.41664856,30.8384359 L5.41664856,30.8387022 Z M47.0130316,30.8421176 C46.8421899,30.8406502 46.6940442,30.9598164 46.6590257,31.1268748 C46.6389258,31.2201147 46.6568421,31.3175127 46.7088108,31.3975214 C46.7607795,31.47753 46.8425169,31.5335542 46.93594,31.5531995 L48.6434077,31.9156566 C48.7367381,31.9357369 48.8342307,31.9178381 48.9143171,31.8659198 C48.9944034,31.8140015 49.050482,31.7323434 49.0701464,31.6390109 C49.0902192,31.5457157 49.072263,31.4482754 49.0202487,31.3682386 C48.9682344,31.2882018 48.8864477,31.2321632 48.7929756,31.2125154 L47.0856789,30.8500583 C47.0617945,30.8449929 47.0374483,30.8424176 47.0130316,30.8423737 L47.0130316,30.8421176 Z M8.29177174,32.2577068 C8.24378572,32.25336 8.19541877,32.2590002 8.14972493,32.2742714 L4.20335341,33.5558069 C4.11250728,33.5851088 4.03708611,33.6493553 3.99376597,33.7343413 C3.95044582,33.8193273 3.9427953,33.9180518 3.97250598,34.0086862 C4.00181864,34.0994599 4.06612028,34.174828 4.15119079,34.2181231 C4.23626131,34.2614183 4.33509137,34.2690732 4.42582504,34.239395 L8.37202562,32.9577741 C8.46288947,32.9284879 8.53833604,32.8642531 8.58168711,32.7792694 C8.62503819,32.6942856 8.63272345,32.5955521 8.60304399,32.5048948 C8.55860555,32.3673631 8.4359092,32.2698936 8.29177174,32.2576214 L8.29177174,32.2577068 Z M44.1343188,32.2704291 C43.9902259,32.2825367 43.8674997,32.3798952 43.8230466,32.517361 C43.7932721,32.6079838 43.8008604,32.7067229 43.8441334,32.7917428 C43.8874064,32.8767627 43.9627986,32.9410583 44.0536376,32.970411 L47.9989835,34.2547642 C48.0897054,34.2845362 48.1885623,34.2769686 48.2736847,34.2337356 C48.3588072,34.1905026 48.4231788,34.1151678 48.452559,34.0243969 C48.4823334,33.9337741 48.4747451,33.835035 48.4314722,33.7500151 C48.3881992,33.6649952 48.3128069,33.6006996 48.2219679,33.5713469 L44.2765366,32.2869937 C44.2307201,32.2720099 44.1823568,32.2663768 44.1343188,32.2704291 L44.1343188,32.2704291 Z M6.7859217,35.064636 C6.73774748,35.0655464 6.69025088,35.0761458 6.64626797,35.0958013 L5.05153184,35.8050901 C4.96425191,35.843715 4.8959664,35.9154802 4.86177251,36.0045191 C4.82757862,36.0935581 4.83029294,36.1925366 4.86931536,36.2795717 C4.90796179,36.3667822 4.97978994,36.4350206 5.06891703,36.469198 C5.15804412,36.5033754 5.2571275,36.500676 5.34425767,36.4616967 L6.9389938,35.7524933 C7.02627373,35.7138685 7.09455925,35.6421033 7.12875314,35.5530643 C7.16294702,35.4640254 7.1602327,35.3650468 7.12121029,35.2780118 C7.06268534,35.1458464 6.9304689,35.0616924 6.78583623,35.0645506 L6.7859217,35.064636 Z M45.638374,35.0782975 C45.4936966,35.07508 45.3613002,35.1591709 45.3028291,35.2914171 C45.263742,35.3784497 45.2609743,35.4774536 45.2951382,35.56653 C45.329302,35.6556063 45.3975818,35.7274139 45.4848746,35.7660694 L47.0788415,36.4764683 C47.165968,36.5155443 47.2650895,36.5183237 47.3542727,36.4841913 C47.4434559,36.450059 47.5153477,36.3818291 47.5540402,36.2945993 C47.5931003,36.2075762 47.5958536,36.1085936 47.5616914,36.0195376 C47.5275292,35.9304816 47.4592658,35.8586885 47.3719947,35.8200324 L45.7780278,35.1096336 C45.7340564,35.0899215 45.6865598,35.079264 45.638374,35.0782975 L45.638374,35.0782975 Z M9.89069577,35.8570893 C9.81907765,35.8519502 9.74757711,35.868558 9.68557402,35.9047338 L6.09201191,37.9775273 C6.00922988,38.0250473 5.94880753,38.1035559 5.92410748,38.1956906 C5.89940742,38.2878254 5.91246487,38.3859947 5.96039213,38.468488 C6.00795804,38.5511665 6.08652729,38.6115135 6.17873086,38.6361884 C6.27093443,38.6608632 6.36917835,38.6478337 6.45174418,38.5999801 L10.0453063,36.5273574 C10.1280767,36.4798047 10.1884854,36.4012811 10.2131831,36.3091393 C10.2378807,36.2169974 10.224834,36.1188231 10.1769261,36.0363113 C10.1173782,35.932606 10.0099947,35.8653883 9.8906103,35.8570893 L9.89069577,35.8570893 Z M42.5394972,35.8570893 C42.4200288,35.8651951 42.3125214,35.9324182 42.2530105,36.0362259 C42.2050753,36.1187453 42.1920134,36.2169404 42.2167123,36.3091028 C42.2414112,36.4012653 42.3018367,36.4798045 42.3846303,36.5273574 L45.9782779,38.5999801 C46.0608698,38.6478416 46.1591395,38.6608757 46.2513708,38.636202 C46.3436021,38.6115283 46.422202,38.5511781 46.4698009,38.468488 C46.5177281,38.3859947 46.5307856,38.2878254 46.5060855,38.1956906 C46.4813855,38.1035559 46.4209631,38.0250473 46.3381811,37.9775273 L42.744448,35.9047338 C42.6824291,35.8687553 42.6110443,35.8521606 42.5394972,35.8570893 L42.5394972,35.8570893 Z M8.9943992,38.8989112 C8.92264646,38.9014852 8.8533004,38.9254206 8.79526016,38.9676457 L7.38248412,39.9916617 C7.30507921,40.0475075 7.25313397,40.1318601 7.23813732,40.2260631 C7.22314068,40.320266 7.24632845,40.4165563 7.3025721,40.493637 C7.35847085,40.5709422 7.44288877,40.6228202 7.5371623,40.6378015 C7.63143583,40.6527828 7.72779976,40.6296335 7.80494945,40.5734715 L9.21789643,39.5493701 C9.29529012,39.4935385 9.34723554,39.4092087 9.36224757,39.3150258 C9.37725961,39.220843 9.35410165,39.1245655 9.29789392,39.0474802 C9.22781564,38.9504988 9.1139697,38.8947838 8.99431373,38.8989112 L8.9943992,38.8989112 Z M43.4270761,38.9110358 C43.3074804,38.9067058 43.1936174,38.9623167 43.1235814,39.0592632 C43.0672842,39.1363183 43.0440389,39.2326072 43.0589878,39.3268287 C43.0739367,39.4210501 43.1258477,39.505438 43.203237,39.5613239 L44.6153293,40.5863645 C44.6924456,40.6426026 44.7888145,40.6658231 44.8831136,40.6508884 C44.9774126,40.6359536 45.0618676,40.5840948 45.1177921,40.5067862 C45.1740528,40.4297638 45.1972939,40.3335288 45.1823788,40.2393506 C45.1674638,40.1451724 45.1156206,40.0608055 45.0383075,40.0048963 L43.6262152,38.9798556 C43.5682118,38.937537 43.4988538,38.913538 43.4270761,38.9109504 L43.4270761,38.9110358 Z M12.1940421,39.0350994 C12.0986724,39.0298801 12.005176,39.0629933 11.9343921,39.1270585 L8.84842088,41.8984677 C8.77728899,41.9620818 8.73445273,42.0513834 8.72938447,42.1466254 C8.72431622,42.2418674 8.75743353,42.3352031 8.82141319,42.405993 C8.885089,42.4770559 8.97447737,42.5198506 9.06981187,42.524914 C9.16514638,42.5299773 9.25857266,42.4968921 9.32943139,42.4329745 L12.4154026,39.6615653 C12.4865345,39.5979513 12.5293708,39.5086496 12.534439,39.4134076 C12.5395073,39.3181656 12.50639,39.22483 12.4424103,39.15404 C12.3787684,39.0829463 12.2893783,39.0401384 12.1940421,39.0350994 L12.1940421,39.0350994 Z M40.2273478,39.045004 C40.1320194,39.0501217 40.0426246,39.0928409 39.9788086,39.1637738 C39.9147603,39.2345241 39.8815671,39.3278523 39.8865714,39.4231142 C39.8915757,39.5183761 39.934365,39.6077206 40.0054744,39.6713845 L43.0895654,42.4449284 C43.1604045,42.5088713 43.2538135,42.5420037 43.3491539,42.537005 C43.4444943,42.5320062 43.5339187,42.4892879 43.597669,42.4182884 C43.6616907,42.3475424 43.6948674,42.254233 43.6898634,42.158992 C43.6848594,42.063751 43.6420868,41.9744244 43.5710032,41.9107631 L40.4868268,39.1371338 C40.4160842,39.0731545 40.3227259,39.0399961 40.2274332,39.045004 L40.2273478,39.045004 Z M15.1218132,41.6778343 C15.0022085,41.6734033 14.8882847,41.7289165 14.8181475,41.8258055 L12.3771132,45.1780854 C12.3207631,45.2550775 12.2974346,45.3513238 12.3122865,45.4455407 C12.3271385,45.5397576 12.3789473,45.6241825 12.456256,45.6801461 C12.533323,45.7364416 12.6296627,45.7597475 12.7239711,45.7449099 C12.8182795,45.7300724 12.9027864,45.6783138 12.9588043,45.6010801 L15.3999241,42.2487148 C15.4562743,42.1717227 15.4796028,42.0754764 15.4647508,41.9812595 C15.4498988,41.8870426 15.3980901,41.8026177 15.3207813,41.7466541 C15.2628527,41.7043277 15.1935375,41.6803527 15.1218132,41.6778343 L15.1218132,41.6778343 Z M37.2884659,41.6928619 C37.2167284,41.6953705 37.1473796,41.7192474 37.0893269,41.7614257 C37.0119466,41.8172702 36.9600183,41.9016062 36.9450224,41.9957883 C36.9300265,42.0899703 36.9531983,42.1862408 37.0094149,42.2633156 L39.4459194,45.6189254 C39.5018065,45.6962686 39.5862349,45.7481805 39.68053,45.7631788 C39.7748252,45.778177 39.8712161,45.7550256 39.9483822,45.6988453 C40.0258005,45.6430124 40.0777628,45.5586659 40.0927756,45.4644623 C40.1077884,45.3702586 40.0846145,45.2739612 40.0283797,45.19687 L37.5917897,41.8412601 C37.521748,41.7443468 37.4079583,41.6886919 37.2883804,41.6928619 L37.2884659,41.6928619 Z M11.9706303,42.2106334 C11.8752718,42.2157288 11.7858423,42.2584499 11.7220057,42.3294032 L10.5540937,43.6254541 C10.4900565,43.6962035 10.4568628,43.7895202 10.4618507,43.8847748 C10.4668386,43.9800295 10.5095972,44.0693768 10.5806741,44.1330648 C10.6514897,44.1970355 10.7449012,44.2301795 10.840242,44.2251639 C10.9355827,44.2201483 11.0249933,44.1773866 11.0886923,44.1063395 L12.2567751,42.8105447 C12.3208068,42.7397701 12.3539878,42.6464329 12.348984,42.551164 C12.3439801,42.4558951 12.3012035,42.3665398 12.2301093,42.3028486 C12.1593454,42.2388478 12.0659521,42.2056878 11.9706303,42.2107188 L11.9706303,42.2106334 Z M40.4575115,42.2123411 C40.3621951,42.2071702 40.268776,42.2403503 40.1981179,42.3044709 C40.1270223,42.3681204 40.0842338,42.4574408 40.0792137,42.552682 C40.0741936,42.6479232 40.1073554,42.7412392 40.1713666,42.8119962 L41.3391077,44.1081325 C41.4028184,44.1791676 41.4922353,44.2219134 41.5875758,44.226913 C41.6829162,44.2319125 41.7763212,44.1987537 41.8471259,44.1347725 C41.9182405,44.0710936 41.9610319,43.9817348 41.9660361,43.886459 C41.9710403,43.7911831 41.937845,43.697841 41.8737917,43.6270764 L40.7060507,42.3311109 C40.6423266,42.2599953 40.5528376,42.217215 40.457426,42.2122557 L40.4575115,42.2123411 Z M18.5306802,43.6498741 C18.3860514,43.6466799 18.2537168,43.7307744 18.1953062,43.8629937 L16.5045902,47.6489413 C16.4655301,47.7359645 16.4627768,47.834947 16.496939,47.924003 C16.5311012,48.013059 16.5993647,48.0848521 16.6866357,48.1235082 C16.7737422,48.1625626 16.8728335,48.1653399 16.9619947,48.1312259 C17.0511559,48.0971119 17.12304,48.0289175 17.161749,47.9417246 L18.8523795,44.1558625 C18.8914666,44.0688299 18.8942342,43.969826 18.8600704,43.8807496 C18.8259065,43.7916733 18.7576267,43.7198657 18.670334,43.6812102 C18.6263559,43.6615181 18.5788634,43.6508615 18.5306802,43.6498741 L18.5306802,43.6498741 Z M33.8768639,43.660291 C33.8286633,43.6612109 33.7811406,43.6718096 33.7371247,43.6914563 C33.6497901,43.7300021 33.5814249,43.8017192 33.5471493,43.8907462 C33.5128737,43.9797731 33.515512,44.0787737 33.5544809,44.1658524 L35.2398979,47.95402 C35.2785326,48.041245 35.3503432,48.1095109 35.4394622,48.1437332 C35.5285812,48.1779555 35.6276724,48.1753172 35.7148402,48.1364012 C35.8021379,48.0978389 35.8704676,48.0261296 35.9047248,47.9371247 C35.9389821,47.8481198 35.9363458,47.7491492 35.8973986,47.6620905 L34.2119816,43.8739229 C34.1535267,43.7417935 34.0214383,43.6575893 33.8768639,43.660291 L33.8768639,43.660291 Z M15.5598336,44.8204098 C15.4404127,44.8285261 15.3329616,44.8957541 15.2735178,44.9995464 L14.4008102,46.5097416 C14.352883,46.592235 14.3398255,46.6904043 14.3645256,46.7825391 C14.3892256,46.8746738 14.449648,46.9531824 14.53243,47.0007024 C14.6150035,47.0485831 14.7132681,47.0616279 14.8054924,47.0369518 C14.8977166,47.0122757 14.9763014,46.951912 15.0238675,46.8692103 L15.8966606,45.3589297 C15.9445808,45.276426 15.9576252,45.1782488 15.9329088,45.0861129 C15.9081924,44.9939769 15.8477519,44.9154746 15.7649553,44.867969 C15.7028681,44.8320113 15.631427,44.8154471 15.5598336,44.8204098 L15.5598336,44.8204098 Z M36.8704449,44.8204098 C36.7988847,44.8153164 36.727452,44.8319222 36.6654941,44.8680544 C36.582712,44.9155743 36.5222897,44.9940829 36.4975896,45.0862177 C36.4728896,45.1783524 36.485947,45.2765217 36.5338743,45.3590151 L37.4065819,46.8692103 C37.454148,46.951912 37.5327328,47.0122757 37.624957,47.0369518 C37.7171813,47.0616279 37.8154459,47.0485831 37.8980194,47.0007024 C37.9808014,46.9531824 38.0412238,46.8746738 38.0659238,46.7825391 C38.0906239,46.6904043 38.0775664,46.592235 38.0296392,46.5097416 L37.1569316,44.9996318 C37.0973281,44.8959002 36.9898817,44.8286833 36.8704449,44.8204098 L36.8704449,44.8204098 Z M22.2944079,44.8745302 C22.1235662,44.8730761 21.9754205,44.9922424 21.940402,45.1593008 L21.078036,49.2144656 C21.0579919,49.3077273 21.075965,49.4051241 21.1279802,49.4851142 C21.1799953,49.5651042 21.2617661,49.6210958 21.3552067,49.6407049 C21.4485716,49.660755 21.5460851,49.6428115 21.6261724,49.5908446 C21.7062596,49.5388776 21.7623183,49.4571712 21.7819454,49.3638031 L22.6443115,45.3087236 C22.6670444,45.2029904 22.6408025,45.0926546 22.5728925,45.0084378 C22.5049825,44.9242209 22.4026573,44.8751175 22.2944079,44.8747997 L22.2944079,44.8745302 Z M30.1232214,44.8771051 C30.0150348,44.877413 29.9127605,44.9264622 29.8448576,45.010604 C29.7769546,45.0947459 29.75067,45.2050003 29.7733178,45.3106875 L30.632607,49.36645 C30.6521597,49.4598266 30.7081477,49.5415718 30.7881854,49.593602 C30.8682232,49.6456321 30.9657135,49.6636585 31.0590893,49.6436934 C31.1525566,49.6241597 31.2343813,49.568226 31.2864619,49.4882659 C31.3385426,49.4083058 31.3565865,49.3109101 31.336602,49.2176248 L30.4770564,45.1621185 C30.442076,44.9950459 30.2940714,44.875757 30.1232214,44.8769257 L30.1232214,44.8771051 Z M26.2151392,45.2860959 C26.1196548,45.2858921 26.0280235,45.3237015 25.9605136,45.3911619 C25.8930038,45.4586222 25.8551794,45.5501737 25.855407,45.6455654 L25.855407,49.791067 C25.8551793,49.8864735 25.8930155,49.978038 25.9605438,50.0455008 C26.0280721,50.1129636 26.1197255,50.150763 26.2152247,50.1505366 C26.3106943,50.1507175 26.4023037,50.112898 26.469795,50.0454402 C26.5372863,49.9779823 26.575099,49.8864439 26.5748715,49.791067 L26.5748715,45.6456508 C26.5750991,45.550259 26.5372746,45.4587076 26.4697648,45.3912473 C26.402255,45.3237869 26.3106236,45.2859774 26.2151392,45.2861821 L26.2151392,45.2860959 Z M19.6115009,46.6257791 C19.4673535,46.6380051 19.3446219,46.7354422 19.3001432,46.8729672 L18.7605875,48.5313898 C18.7308541,48.6220465 18.7385031,48.7208025 18.7818423,48.8058105 C18.8251816,48.8908184 18.9006386,48.9550712 18.9915204,48.9843545 C19.0822658,49.0140051 19.1810952,49.0063273 19.2661614,48.9630183 C19.3512277,48.9197093 19.4155249,48.8443359 19.4448395,48.7535602 L19.9843952,47.095223 C20.0141058,47.0045885 20.0064553,46.9058641 19.9631352,46.8208781 C19.919815,46.7358921 19.8443939,46.6716456 19.7535477,46.6423437 C19.7077802,46.6274054 19.6594819,46.6217732 19.6115009,46.6257791 L19.6115009,46.6257791 Z M32.8160426,46.626633 C32.7680689,46.6222709 32.7197103,46.627852 32.6739958,46.6430268 C32.583112,46.672312 32.5076496,46.7365604 32.4642966,46.821564 C32.4209435,46.9065677 32.4132716,47.0053231 32.4429774,47.0959914 L32.9822767,48.7544141 C33.0115883,48.8452077 33.0759036,48.9205916 33.160994,48.9638887 C33.2460845,49.0071859 33.3449365,49.0148275 33.4356812,48.9851229 C33.5265545,48.9558729 33.6020203,48.8916619 33.6453896,48.8066898 C33.688759,48.7217178 33.6964583,48.6229861 33.666785,48.5323291 L33.1272294,46.873821 C33.082826,46.7363492 32.9601967,46.6389132 32.816128,46.626633 L32.8160426,46.626633 Z M23.9570052,47.5502368 C23.7869358,47.5666925 23.6520479,47.7006281 23.6345367,47.8704286 L23.4520638,49.604758 C23.4418793,49.6995834 23.4699314,49.794555 23.530015,49.8686653 C23.5900986,49.9427756 23.677262,49.9899168 23.7722247,49.9996612 C23.8671652,50.0098609 23.962261,49.9818496 24.0364759,49.9218238 C24.1106908,49.8617981 24.1579079,49.7747052 24.1676823,49.679811 L24.3501552,47.9456523 C24.3603647,47.8508039 24.3323263,47.7558004 24.2722422,47.6816575 C24.2121581,47.6075146 24.1249807,47.5603433 24.0299943,47.5505784 C24.0057357,47.5480542 23.9812864,47.5479398 23.9570052,47.5502368 L23.9570052,47.5502368 Z M28.4589148,47.5519445 C28.4345908,47.5493482 28.4100533,47.5494628 28.3857547,47.5522861 C28.2907724,47.5619695 28.2035648,47.6090563 28.1434184,47.6831328 C28.083272,47.7572093 28.0551429,47.8521717 28.0652519,47.9470185 L28.2466138,49.6815187 C28.2563049,49.7763965 28.3034436,49.8635043 28.3775981,49.9235652 C28.4517526,49.9836261 28.5468083,50.0116876 28.6417295,50.0015397 C28.7367282,49.991857 28.8239499,49.9447581 28.8840987,49.8706626 C28.9442475,49.7965671 28.9723655,49.7015824 28.9622323,49.6067219 L28.7810414,47.8723925 C28.7636655,47.7025785 28.628885,47.5685359 28.4588293,47.5519445 L28.4589148,47.5519445 Z" id="Shape" fill="#F4F2F3"></path>
                <polygon id="Path" fill="#000000" opacity="0.409" points="43.311828 12.5376344 23.7599486 23.8800154 11.3978495 43.311828 29.4825955 29.9370612"></polygon>
                <polygon id="Path" fill="#FF5150" points="28.9884367 29.6344086 23.3655914 23.7246523 43.311828 10.2580645"></polygon>
                <polygon id="Path" fill="#F1F1F1" points="29.0645161 29.8452141 23.4416468 23.9354839 9.11827957 43.311828"></polygon>
                <polygon id="Path" fill="#000000" opacity="0.243" points="9.11827957 42.7419355 29.02015 29.4225734 43.311828 10.2580645"></polygon>
            </g>
            <g id="Download-for" transform="translate(94.173404, 14.345703)" fill="#FFFFFF" fill-rule="nonzero">
                <path d="M0,14.6542969 L5.0949707,14.6542969 C9.39916992,14.6542969 11.9316406,11.9716797 11.9316406,7.40722656 L11.9316406,7.38720703 C11.9316406,2.84277344 9.37915039,0.210205078 5.0949707,0.210205078 L0,0.210205078 L0,14.6542969 Z M2.2421875,12.7124023 L2.2421875,2.14208984 L4.88476562,2.14208984 C7.92773438,2.14208984 9.6394043,4.01391602 9.6394043,7.40722656 L9.6394043,7.42724609 C9.6394043,10.8405762 7.94775391,12.7124023 4.88476562,12.7124023 L2.2421875,12.7124023 Z" id="Shape"></path>
                <path d="M18.3378906,14.864502 C21.3508301,14.864502 23.3327637,12.7824707 23.3327637,9.38916016 L23.3327637,9.36914062 C23.3327637,5.99584961 21.3308105,3.92382812 18.3278809,3.92382812 C15.3349609,3.92382812 13.3430176,6.00585938 13.3430176,9.36914062 L13.3430176,9.38916016 C13.3430176,12.7724609 15.3149414,14.864502 18.3378906,14.864502 Z M18.3479004,13.0527344 C16.65625,13.0527344 15.5551758,11.7214355 15.5551758,9.38916016 L15.5551758,9.36914062 C15.5551758,7.06689453 16.6662598,5.7355957 18.3278809,5.7355957 C20.0195312,5.7355957 21.1206055,7.06689453 21.1206055,9.36914062 L21.1206055,9.38916016 C21.1206055,11.7114258 20.0395508,13.0527344 18.3479004,13.0527344 Z" id="Shape"></path>
                <polygon id="Path" points="27.036377 14.6542969 29.2685547 14.6542969 31.4606934 6.76660156 31.5107422 6.76660156 33.7229004 14.6542969 35.9750977 14.6542969 38.8579102 4.12402344 36.7158203 4.12402344 34.7939453 12.4121094 34.7438965 12.4121094 32.541748 4.12402344 30.4597168 4.12402344 28.2675781 12.4121094 28.2275391 12.4121094 26.3056641 4.12402344 24.1435547 4.12402344"></polygon>
                <path d="M40.1791992,14.6542969 L42.3413086,14.6542969 L42.3413086,8.51831055 C42.3413086,6.87670898 43.3222656,5.77563477 44.84375,5.77563477 C46.3452148,5.77563477 47.0859375,6.66650391 47.0859375,8.24804688 L47.0859375,14.6542969 L49.2580566,14.6542969 L49.2580566,7.83764648 C49.2580566,5.4152832 47.9267578,3.92382812 45.614502,3.92382812 C44.0229492,3.92382812 42.9418945,4.64453125 42.3913574,5.71557617 L42.3413086,5.71557617 L42.3413086,4.12402344 L40.1791992,4.12402344 L40.1791992,14.6542969 Z" id="Path"></path>
                <polygon id="Path" points="51.420166 14.6542969 53.5822754 14.6542969 53.5822754 0.210205078 51.420166 0.210205078"></polygon>
                <path d="M60.3288574,14.864502 C63.3417969,14.864502 65.3237305,12.7824707 65.3237305,9.38916016 L65.3237305,9.36914062 C65.3237305,5.99584961 63.3217773,3.92382812 60.3188477,3.92382812 C57.3259277,3.92382812 55.3339844,6.00585938 55.3339844,9.36914062 L55.3339844,9.38916016 C55.3339844,12.7724609 57.3059082,14.864502 60.3288574,14.864502 Z M60.3388672,13.0527344 C58.6472168,13.0527344 57.5461426,11.7214355 57.5461426,9.38916016 L57.5461426,9.36914062 C57.5461426,7.06689453 58.6572266,5.7355957 60.3188477,5.7355957 C62.010498,5.7355957 63.1115723,7.06689453 63.1115723,9.36914062 L63.1115723,9.38916016 C63.1115723,11.7114258 62.0305176,13.0527344 60.3388672,13.0527344 Z" id="Shape"></path>
                <path d="M70.0883789,14.8444824 C71.4797363,14.8444824 72.7009277,14.1237793 73.3115234,12.9926758 L73.3515625,12.9926758 L73.3515625,14.6542969 L75.5236816,14.6542969 L75.5236816,7.3972168 C75.5236816,5.28515625 73.8920898,3.92382812 71.3195801,3.92382812 C68.7270508,3.92382812 67.1555176,5.31518555 67.0053711,7.12695312 L66.9953613,7.23706055 L69.0373535,7.23706055 L69.057373,7.14697266 C69.2375488,6.30615234 70.0083008,5.71557617 71.2595215,5.71557617 C72.6008301,5.71557617 73.3515625,6.41625977 73.3515625,7.57739258 L73.3515625,8.36816406 L70.4887695,8.53833008 C67.9963379,8.68847656 66.5749512,9.80957031 66.5749512,11.6413574 L66.5749512,11.661377 C66.5749512,13.5532227 67.9863281,14.8444824 70.0883789,14.8444824 Z M68.7570801,11.6113281 L68.7570801,11.5913086 C68.7570801,10.7004395 69.4777832,10.1298828 70.7790527,10.0498047 L73.3515625,9.88964844 L73.3515625,10.7104492 C73.3515625,12.0817871 72.2004395,13.112793 70.6789551,13.112793 C69.5178223,13.112793 68.7570801,12.5322266 68.7570801,11.6113281 Z" id="Shape"></path>
                <path d="M81.5495605,14.864502 C83.0610352,14.864502 84.222168,14.1037598 84.8527832,12.8725586 L84.8928223,12.8725586 L84.8928223,14.6542969 L87.0649414,14.6542969 L87.0649414,0.210205078 L84.8928223,0.210205078 L84.8928223,5.91577148 L84.8527832,5.91577148 C84.222168,4.67456055 83.0209961,3.92382812 81.529541,3.92382812 C78.8869629,3.92382812 77.1452637,6.02587891 77.1452637,9.37915039 L77.1452637,9.38916016 C77.1452637,12.7424316 78.8669434,14.864502 81.5495605,14.864502 Z M82.1201172,13.0026855 C80.4084473,13.0026855 79.3574219,11.6313477 79.3574219,9.38916016 L79.3574219,9.37915039 C79.3574219,7.15698242 80.418457,5.77563477 82.1201172,5.77563477 C83.7416992,5.77563477 84.902832,7.19702148 84.902832,9.37915039 L84.902832,9.38916016 C84.902832,11.5812988 83.751709,13.0026855 82.1201172,13.0026855 Z" id="Shape"></path>
                <path d="M94.0617676,14.6542969 L96.2338867,14.6542969 L96.2338867,5.84570312 L98.3359375,5.84570312 L98.3359375,4.12402344 L96.1938477,4.12402344 L96.1938477,3.04296875 C96.1938477,2.11206055 96.6542969,1.64160156 97.6252441,1.64160156 C97.8955078,1.64160156 98.1657715,1.66162109 98.3759766,1.69165039 L98.3759766,0.0900878906 C98.0856934,0.0400390625 97.6052246,0 97.1647949,0 C95.0227051,0 94.0617676,0.9609375 94.0617676,3.00292969 L94.0617676,4.12402344 L92.6103516,4.12402344 L92.6103516,5.84570312 L94.0617676,5.84570312 L94.0617676,14.6542969 Z" id="Path"></path>
                <path d="M103.651123,14.864502 C106.664062,14.864502 108.645996,12.7824707 108.645996,9.38916016 L108.645996,9.36914062 C108.645996,5.99584961 106.644043,3.92382812 103.641113,3.92382812 C100.648193,3.92382812 98.65625,6.00585938 98.65625,9.36914062 L98.65625,9.38916016 C98.65625,12.7724609 100.628174,14.864502 103.651123,14.864502 Z M103.661133,13.0527344 C101.969482,13.0527344 100.868408,11.7214355 100.868408,9.38916016 L100.868408,9.36914062 C100.868408,7.06689453 101.979492,5.7355957 103.641113,5.7355957 C105.332764,5.7355957 106.433838,7.06689453 106.433838,9.36914062 L106.433838,9.38916016 C106.433838,11.7114258 105.352783,13.0527344 103.661133,13.0527344 Z" id="Shape"></path>
                <path d="M110.317627,14.6542969 L112.479736,14.6542969 L112.479736,8.37817383 C112.479736,6.80664062 113.340576,5.89575195 114.731934,5.89575195 C115.152344,5.89575195 115.532715,5.94580078 115.702881,6.01586914 L115.702881,4.00390625 C115.532715,3.97387695 115.262451,3.92382812 114.952148,3.92382812 C113.750977,3.92382812 112.870117,4.69458008 112.529785,5.92578125 L112.479736,5.92578125 L112.479736,4.12402344 L110.317627,4.12402344 L110.317627,14.6542969 Z" id="Path"></path>
            </g>
            <g id="Safari" transform="translate(92.842105, 38.000000)" fill="#FFFFFF" fill-rule="nonzero">
                <path d="M12.9141645,34.04 C20.9314235,34.04 25.76,30.1412458 25.76,24.0081179 L25.76,23.9853182 C25.76,18.8553784 22.7763042,16.0738111 15.9434129,14.6602277 L12.3903095,13.9306363 C8.42723254,13.1098459 6.62790451,11.741862 6.62790451,9.41628935 L6.62790451,9.39348962 C6.62790451,6.77152043 9.01941645,4.97034159 12.8686118,4.94754186 C16.5583731,4.94754186 19.0865429,6.65752177 19.4737401,9.53028801 L19.5192927,9.8038848 L25.1450398,9.8038848 L25.1222635,9.41628935 C24.7806189,3.78475553 20.0887003,0 12.9141645,0 C5.83073386,0 0.751618037,3.92155392 0.728841733,9.71268587 L0.728841733,9.7354856 C0.728841733,14.637428 3.91752431,17.6469926 10.3859947,18.9921768 L13.9163218,19.7217683 C18.1527144,20.6109578 19.8609372,21.9333423 19.8609372,24.3957133 L19.8609372,24.4185131 C19.8609372,27.2456798 17.2644385,29.0924581 13.1191512,29.0924581 C8.99664014,29.0924581 6.10404951,27.3368788 5.67129973,24.509712 L5.62574713,24.2361152 L0,24.2361152 L0.0227763042,24.5781112 C0.409973475,30.4832418 5.37520778,34.04 12.9141645,34.04 Z" id="Path"></path>
                <path d="M36.6058988,34.04 C39.794704,34.04 42.4824112,32.4592727 43.8718192,29.9526909 L44.0084822,29.9526909 L44.0084822,33.6335273 L49.68,33.6335273 L49.68,17.1713818 C49.68,12.3614545 45.7851023,9.2 39.7491496,9.2 C33.6220883,9.2 29.909408,12.3840364 29.5677503,16.6294182 L29.5449731,16.9004 L34.8065016,16.9004 L34.852056,16.6971636 C35.2164909,14.9357818 36.8564478,13.6937818 39.544155,13.6937818 C42.4140797,13.6937818 44.0084822,15.1616 44.0084822,17.5778545 L44.0084822,19.2263273 L37.6992034,19.6102182 C31.8454682,19.9715273 28.52,22.5232727 28.52,26.7686545 L28.52,26.8138182 C28.52,31.0817818 31.7771367,34.04 36.6058988,34.04 Z M34.1687406,26.588 L34.1687406,26.5654182 C34.1687406,24.6685455 35.6948116,23.4717091 38.4964047,23.2910545 L44.0084822,22.9523273 L44.0084822,24.7588727 C44.0084822,27.6041818 41.5485468,29.7494545 38.2914101,29.7494545 C35.8086975,29.7494545 34.1687406,28.5526182 34.1687406,26.588 Z" id="Shape"></path>
                <path d="M55.7419802,34.04 L61.4122772,34.04 L61.4122772,14.4032787 L66.1489109,14.4032787 L66.1489109,10.0596721 L61.2984158,10.0596721 L61.2984158,7.93311475 C61.2984158,5.98754098 62.3231683,4.9695082 64.5320792,4.9695082 C65.1469307,4.9695082 65.7845545,5.0147541 66.24,5.08262295 L66.24,1.14622951 C65.5340594,1.0104918 64.3271287,0.92 63.2112871,0.92 C57.9736634,0.92 55.7419802,3.09180328 55.7419802,7.7747541 L55.7419802,10.0596721 L52.44,10.0596721 L52.44,14.4032787 L55.7419802,14.4032787 L55.7419802,34.04 Z" id="Path"></path>
                <path d="M75.2458988,34.04 C78.434704,34.04 81.1224112,32.4592727 82.5118192,29.9526909 L82.6484822,29.9526909 L82.6484822,33.6335273 L88.32,33.6335273 L88.32,17.1713818 C88.32,12.3614545 84.4251023,9.2 78.3891496,9.2 C72.2620883,9.2 68.549408,12.3840364 68.2077503,16.6294182 L68.1849731,16.9004 L73.4465016,16.9004 L73.492056,16.6971636 C73.8564909,14.9357818 75.4964478,13.6937818 78.184155,13.6937818 C81.0540797,13.6937818 82.6484822,15.1616 82.6484822,17.5778545 L82.6484822,19.2263273 L76.3392034,19.6102182 C70.4854682,19.9715273 67.16,22.5232727 67.16,26.7686545 L67.16,26.8138182 C67.16,31.0817818 70.4171367,34.04 75.2458988,34.04 Z M72.8087406,26.588 L72.8087406,26.5654182 C72.8087406,24.6685455 74.3348116,23.4717091 77.1364047,23.2910545 L82.6484822,22.9523273 L82.6484822,24.7588727 C82.6484822,27.6041818 80.1885468,29.7494545 76.9314101,29.7494545 C74.4486975,29.7494545 72.8087406,28.5526182 72.8087406,26.588 Z" id="Shape"></path>
                <path d="M92.92,34.04 L98.4879167,34.04 L98.4879167,19.921146 C98.4879167,16.3168207 100.388611,14.2736044 103.541528,14.2736044 C104.480694,14.2736044 105.330417,14.4113494 105.8,14.5950092 L105.8,9.42957486 C105.375139,9.31478743 104.726667,9.2 104.033472,9.2 C101.305417,9.2 99.3376389,10.9677264 98.5997222,13.9062847 L98.4879167,13.9062847 L98.4879167,9.7050647 L92.92,9.7050647 L92.92,34.04 Z" id="Path"></path>
                <path d="M111.791625,6.08872727 C113.605054,6.08872727 115,4.70593939 115,3.05551515 C115,1.36048485 113.605054,0 111.791625,0 C109.978195,0 108.56,1.36048485 108.56,3.05551515 C108.56,4.70593939 109.978195,6.08872727 111.791625,6.08872727 Z M108.885487,33.12 L114.674513,33.12 L114.674513,9.47878788 L108.885487,9.47878788 L108.885487,33.12 Z" id="Shape"></path>
            </g>
        </g>
    </g>
</svg>