<?xml version="1.0" encoding="UTF-8"?>
<svg viewBox="0 0 313 87" version="1.1" xmlns="http://www.w3.org/2000/svg" xmlns:xlink="http://www.w3.org/1999/xlink">
    <title>wordpress_download</title>
    <g id="Page-1" stroke="none" stroke-width="1" fill="none" fill-rule="evenodd">
        <g id="wordpress_download" transform="translate(0.657895, 0.000000)">
            <rect id="Rectangle" stroke="#464342" stroke-width="4" fill="#FFFFFF" x="2" y="2" width="308" height="83" rx="20"></rect>
            <g id="Group-7" transform="translate(24.500000, 14.000000)" fill-rule="nonzero">
                <g id="Wordpress-Logo" fill="#207196">
                    <path d="M4.26420299,29.9982861 C4.26420299,40.1847756 10.1840411,48.9878965 18.7682715,53.1595485 L6.49228333,19.5248394 C5.06435316,22.7254401 4.26420299,26.2673533 4.26420299,29.9982861 Z" id="Path"></path>
                    <path d="M47.3724159,28.6996336 C47.3724159,25.5191101 46.2299738,23.3164935 45.2501081,21.6020959 C43.9455793,19.4822366 42.7228284,17.6870404 42.7228284,15.5671811 C42.7228284,13.2014984 44.5170452,10.9993716 47.0443249,10.9993716 C47.1584222,10.9993716 47.2666433,11.0135725 47.3778024,11.0199385 C42.7992198,6.82527116 36.6991765,4.26420299 29.9992655,4.26420299 C21.008594,4.26420299 13.098664,8.87706383 8.49706595,15.863932 C9.10085124,15.8820505 9.66986868,15.8947824 10.1531907,15.8947824 C12.8450056,15.8947824 17.0117607,15.5681605 17.0117607,15.5681605 C18.3990467,15.4863826 18.5626025,17.5239743 17.1767855,17.6880198 C17.1767855,17.6880198 15.7826438,17.8520653 14.2313123,17.9333535 L23.602961,45.8088421 L29.2348625,28.9180344 L25.2252973,17.9323741 C23.8394803,17.8510859 22.5266268,17.6870404 22.5266268,17.6870404 C21.1398304,17.6057522 21.3024068,15.4854032 22.6892032,15.5671811 C22.6892032,15.5671811 26.9392052,15.893803 29.467954,15.893803 C32.1592792,15.893803 36.3265239,15.5671811 36.3265239,15.5671811 C37.7147894,15.4854032 37.8778555,17.5229949 36.4915488,17.6870404 C36.4915488,17.6870404 35.094469,17.8510859 33.5460756,17.9323741 L42.8462298,45.5968072 L45.4131742,37.0189428 C46.5257453,33.4594008 47.3724159,30.9027398 47.3724159,28.6996336 Z" id="Path"></path>
                    <path d="M30.4507578,32.2493818 L22.7293576,54.6863957 C25.0348087,55.3641238 27.4729651,55.7348176 29.9992655,55.7348176 C32.9961559,55.7348176 35.8701347,55.2167277 38.5453002,54.2760371 C38.4762542,54.1658573 38.4135742,54.0488219 38.3621569,53.921503 L30.4507578,32.2493818 Z" id="Path"></path>
                    <path d="M52.5807373,17.6512932 C52.6914068,18.4710309 52.7540869,19.3510002 52.7540869,20.2975671 C52.7540869,22.9090731 52.2663576,25.8447526 50.7972937,29.5154537 L42.9363324,52.2433423 C50.5872175,47.781795 55.7333487,39.4928465 55.7333487,29.9987758 C55.7338383,25.5244966 54.5909065,21.3170975 52.5807373,17.6512932 Z" id="Path"></path>
                    <path d="M29.9992655,0 C13.458095,0 0,13.4571156 0,29.9982861 C0,46.5414154 13.458095,59.9980412 29.9992655,59.9980412 C46.5399463,59.9980412 60,46.5414154 60,29.9982861 C60,13.4571156 46.5399463,0 29.9992655,0 Z M29.9992655,58.6229974 C14.2166216,58.6229974 1.37553356,45.7819093 1.37553356,29.9982861 C1.37553356,14.2156423 14.216132,1.37553356 29.9992655,1.37553356 C45.7814196,1.37553356 58.6215283,14.2156423 58.6215283,29.9982861 C58.6215283,45.7819093 45.7814196,58.6229974 29.9992655,58.6229974 Z" id="Shape"></path>
                </g>
                <g id="Group-4" transform="translate(81.674137, 1.811035)">
                    <g id="WordPress_logo" transform="translate(0.167969, 32.188965)">
                        <path d="M81.7500753,4.79166667 L72.4283458,4.79166667 L72.4283458,5.7753494 C75.3440997,5.7753494 75.8128831,6.39696709 75.8128831,10.0751989 L75.8128831,16.7062239 C75.8128831,20.3840195 75.3445382,21.0575477 72.4283458,21.0575477 C70.1896749,20.746957 68.6789557,19.5551959 66.5959611,17.275931 L64.2007367,14.6860754 C67.429159,14.1154958 69.1473005,12.0957836 69.1473005,9.81608251 C69.1473005,6.9675467 66.7003301,4.79166667 62.1173036,4.79166667 L52.9521277,4.79166667 L52.9521277,5.7753494 C55.8678815,5.7753494 56.3366649,6.39696709 56.3366649,10.0751989 L56.3366649,16.7062239 C56.3366649,20.3840195 55.8678815,21.0575477 52.9521277,21.0575477 L52.9521277,22.0416667 L63.3149158,22.0416667 L63.3149158,21.0575477 C60.399162,21.0575477 59.9303786,20.3840195 59.9303786,16.7062239 L59.9303786,14.841807 L60.8153224,14.841807 L66.5959611,22.0416667 L81.7500753,22.0416667 C89.1966711,22.0416667 92.4255319,18.1051908 92.4255319,13.3904933 C92.4255319,8.67666818 89.1971096,4.79166667 81.7500753,4.79166667 Z M59.9308171,13.2347617 L59.9308171,6.34592901 L62.0655577,6.34592901 C64.4085976,6.34592901 65.4505334,7.95166566 65.4505334,9.81651873 C65.4505334,11.6298975 64.4085976,13.2351979 62.0655577,13.2351979 L59.9308171,13.2351979 L59.9308171,13.2347617 Z M81.9066288,20.43593 L81.5417758,20.43593 C79.6675193,20.43593 79.4070353,19.9700439 79.4070353,17.586958 L79.4070353,6.34592901 C79.4070353,6.34592901 81.6983293,6.34592901 81.9066288,6.34592901 C87.3224146,6.34592901 88.3112888,10.2824048 88.3112888,13.339019 C88.3112888,16.4985817 87.321976,20.43593 81.9066288,20.43593 Z" id="Shape" fill="#00749A"></path>
                        <path d="M23.9138156,15.3337637 L27.5483714,4.90652894 C28.6022772,1.89116563 28.1281083,1.02262393 24.757029,1.02262393 L24.757029,0 L34.6595745,0 L34.6595745,1.02262393 C31.3412792,1.02262393 30.5512933,1.78916147 29.2343546,5.52027545 L23.2289542,23 L22.5445364,23 L17.1712134,7.00213327 L11.6936531,23 L11.0087918,23 L5.16218697,5.52027545 C3.89803223,1.78916147 3.0552624,1.02262393 0,1.02262393 L0,0 L11.6936531,0 L11.6936531,1.02262393 C8.58560672,1.02262393 7.74239333,1.7379442 8.84908318,4.90652894 L12.3780709,15.3337637 L17.6981664,0 L18.6992882,0 L23.9138156,15.3337637 Z" id="Path" fill="#00749A"></path>
                        <path d="M41.8803191,23 C36.3205586,23 31.7712766,18.8922021 31.7712766,13.8704212 C31.7712766,8.90031881 36.3209842,4.79166667 41.8803191,4.79166667 C47.4405054,4.79166667 51.9893617,8.90031881 51.9893617,13.8704212 C51.9893617,18.8922021 47.4405054,23 41.8803191,23 Z M41.8803191,6.36508397 C37.2305852,6.36508397 35.6127128,10.5741034 35.6127128,13.8708483 C35.6127128,17.2188446 37.2305852,21.3774668 41.8803191,21.3774668 C46.581556,21.3774668 48.1990028,17.2188446 48.1990028,13.8708483 C48.1990028,10.5741034 46.581556,6.36508397 41.8803191,6.36508397 Z" id="Shape" fill="#00749A"></path>
                        <path d="M105.402825,21.0236204 L105.402825,22.0416667 L93.3882979,22.0416667 L93.3882979,21.0236204 C96.9037643,21.0236204 97.5333408,20.1586025 97.5333408,15.0675138 L97.5333408,6.92357208 C97.5333408,1.83248332 96.9037643,1.01847494 93.3882979,1.01847494 L93.3882979,0 L104.248381,0 C109.652135,0 112.643617,2.69792983 112.643617,6.31274431 C112.643617,9.82511117 109.652135,12.5736218 104.248381,12.5736218 L101.257782,12.5736218 L101.257782,15.0670851 C101.257782,20.1586025 101.887359,21.0236204 105.402825,21.0236204 Z M104.248381,1.83248332 L101.257782,1.83248332 L101.257782,10.690129 L104.248381,10.690129 C107.186846,10.690129 108.550707,8.70504593 108.550707,6.31274431 C108.550707,3.86943321 107.186846,1.83248332 104.248381,1.83248332 Z" id="Shape" fill="#464342"></path>
                        <path d="M147.499537,17.1725462 L147.244207,18.1047546 C146.785128,19.8143123 146.222886,20.43593 142.59883,20.43593 L141.883991,20.43593 C139.230104,20.43593 138.770596,19.8143123 138.770596,16.1365167 L138.770596,13.753867 C142.752286,13.753867 143.058768,14.115932 143.058768,16.8100449 L144.028507,16.8100449 L144.028507,9.09107998 L143.058768,9.09107998 C143.058768,11.7847566 142.752286,12.1472579 138.770596,12.1472579 L138.770596,6.34592901 L141.577509,6.34592901 C145.202425,6.34592901 145.763377,6.9675467 146.222886,8.67710441 L146.478646,9.66078714 L147.294929,9.66078714 L146.938154,4.79166667 L131.930411,4.79166667 L131.930411,5.7753494 C134.788476,5.7753494 135.248414,6.39696709 135.248414,10.0751989 L135.248414,16.7062239 C135.248414,20.0708114 134.858111,20.9183926 132.604414,21.0392263 C130.462477,20.7072607 128.991964,19.5216067 126.979841,17.275931 L124.631577,14.6860754 C127.796554,14.1154958 129.481132,12.0957836 129.481132,9.81608251 C129.481132,6.9675467 127.082145,4.79166667 122.590224,4.79166667 L113.606383,4.79166667 L113.606383,5.7753494 C116.464448,5.7753494 116.923957,6.39696709 116.923957,10.0751989 L116.923957,16.7062239 C116.923957,20.3840195 116.464878,21.0575477 113.606383,21.0575477 L113.606383,22.0416667 L123.764572,22.0416667 L123.764572,21.0575477 C120.906506,21.0575477 120.446568,20.3840195 120.446568,16.7062239 L120.446568,14.841807 L121.314433,14.841807 L126.980271,22.0416667 L147.959475,22.0416667 L148.265957,17.1729824 L147.499537,17.1729824 L147.499537,17.1725462 Z M120.446138,13.2347617 L120.446138,6.34592901 L122.538643,6.34592901 C124.835755,6.34592901 125.857076,7.95166566 125.857076,9.81651873 C125.857076,11.6298975 124.835755,13.2351979 122.538643,13.2351979 L120.446138,13.2351979 L120.446138,13.2347617 Z" id="Shape" fill="#464342"></path>
                        <path d="M158.451169,23 C156.424276,23 154.650424,21.9352276 153.890446,21.2753507 C153.636978,21.5294781 153.181247,22.2901518 153.080115,23 L152.117021,23 L152.117021,16.0014602 L153.130468,16.0014602 C153.536273,19.3486808 155.86656,21.3266033 158.856547,21.3266033 C160.478061,21.3266033 161.795755,20.4138802 161.795755,18.8925328 C161.795755,17.5740602 160.630398,16.5592591 158.552727,15.5957106 L155.664297,14.2264125 C153.636978,13.2620098 152.117021,11.5881859 152.117021,9.35699025 C152.117021,6.92249269 154.397383,4.84334635 157.53928,4.84334635 C159.211573,4.84334635 160.629972,5.45197074 161.491935,6.16181898 C161.744976,5.95894418 161.998445,5.40071816 162.150782,4.79166667 L163.113449,4.79166667 L163.113449,10.7771138 L162.049224,10.7771138 C161.694197,8.39301464 160.37693,6.41509215 157.691617,6.41509215 C156.272792,6.41509215 154.954671,7.22659133 154.954671,8.49509269 C154.954671,9.81356532 156.018897,10.5234136 158.451595,11.6394385 L161.23804,13.0087366 C163.670738,14.1751599 164.632979,16.0527128 164.632979,17.5740602 C164.632979,20.7688043 161.846108,23 158.451169,23 Z" id="Path" fill="#464342"></path>
                        <path d="M174.818616,23 C172.791297,23 171.017445,21.9352276 170.257894,21.2753507 C170.004426,21.5294781 169.548695,22.2901518 169.447563,23 L168.484469,23 L168.484469,16.0014602 L169.497916,16.0014602 C169.903294,19.3486808 172.234008,21.3266033 175.223995,21.3266033 C176.845509,21.3266033 178.163203,20.4138802 178.163203,18.8925328 C178.163203,17.5740602 176.997846,16.5592591 174.919748,15.5957106 L172.031319,14.2264125 C170.004426,13.2620098 168.484043,11.5881859 168.484043,9.35699025 C168.484043,6.92249269 170.764404,4.84334635 173.906301,4.84334635 C175.578595,4.84334635 176.996993,5.45197074 177.858956,6.16181898 C178.111998,5.95894418 178.365466,5.40071816 178.516949,4.79166667 L179.480044,4.79166667 L179.480044,10.7771138 L178.416245,10.7771138 C178.061219,8.39301464 176.743951,6.41509215 174.058638,6.41509215 C172.639813,6.41509215 171.321693,7.22659133 171.321693,8.49509269 C171.321693,9.81356532 172.385918,10.5234136 174.818616,11.6394385 L177.605061,13.0087366 C180.037759,14.1751599 181,16.0527128 181,17.5740602 C181,20.7688043 178.213129,23 174.818616,23 Z" id="Path" fill="#464342"></path>
                    </g>
                    <g id="Download-for" fill="#464342">
                        <path d="M16.4399414,11.6396484 C16.4399414,13.9713542 16.0151367,15.9183757 15.1655273,17.4807129 C14.315918,19.0430501 13.0863444,20.2183431 11.4768066,21.0065918 C9.86726888,21.7948405 7.91552734,22.1889648 5.62158203,22.1889648 L0,22.1889648 L0,1.48681641 L6.24462891,1.48681641 C8.34977214,1.48681641 10.1622721,1.87150065 11.6821289,2.64086914 C13.2019857,3.41023763 14.3749186,4.54777018 15.2009277,6.0534668 C16.0269368,7.55916341 16.4399414,9.42122396 16.4399414,11.6396484 Z M13.9052734,11.7246094 C13.9052734,9.86490885 13.59611,8.33089193 12.9777832,7.12255859 C12.3594564,5.91422526 11.4532064,5.01505534 10.2590332,4.42504883 C9.06486003,3.83504232 7.60400391,3.54003906 5.87646484,3.54003906 L2.40722656,3.54003906 L2.40722656,20.121582 L5.33837891,20.121582 C8.18929036,20.121582 10.329834,19.4182943 11.7600098,18.0117188 C13.1901855,16.6051432 13.9052734,14.5094401 13.9052734,11.7246094 Z" id="Shape"></path>
                        <path d="M34.0693359,14.4008789 C34.0693359,15.675293 33.9041341,16.8128255 33.5737305,17.8134766 C33.2433268,18.8141276 32.7666016,19.6590169 32.1435547,20.3481445 C31.5205078,21.0372721 30.7676595,21.5635579 29.8850098,21.927002 C29.00236,22.290446 28.004069,22.472168 26.8901367,22.472168 C25.8517253,22.472168 24.9006348,22.290446 24.0368652,21.927002 C23.1730957,21.5635579 22.4273275,21.0372721 21.7995605,20.3481445 C21.1717936,19.6590169 20.6856283,18.8141276 20.3410645,17.8134766 C19.9965007,16.8128255 19.8242188,15.675293 19.8242188,14.4008789 C19.8242188,12.7016602 20.1121419,11.2549642 20.6879883,10.060791 C21.2638346,8.86661784 22.0874837,7.95564779 23.1589355,7.32788086 C24.2303874,6.70011393 25.5071615,6.38623047 26.9892578,6.38623047 C28.4052734,6.38623047 29.6442871,6.70247396 30.7062988,7.33496094 C31.7683105,7.96744792 32.5943197,8.88077799 33.1843262,10.0749512 C33.7743327,11.2691243 34.0693359,12.7111003 34.0693359,14.4008789 Z M22.2597656,14.4008789 C22.2597656,15.6469727 22.4249674,16.7278646 22.7553711,17.6435547 C23.0857747,18.5592448 23.5955404,19.2672526 24.284668,19.7675781 C24.9737956,20.2679036 25.8611654,20.5180664 26.9467773,20.5180664 C28.0229492,20.5180664 28.907959,20.2679036 29.6018066,19.7675781 C30.2956543,19.2672526 30.8077799,18.5592448 31.1381836,17.6435547 C31.4685872,16.7278646 31.6337891,15.6469727 31.6337891,14.4008789 C31.6337891,13.1642253 31.4685872,12.0951335 31.1381836,11.1936035 C30.8077799,10.2920736 30.2980143,9.59586589 29.6088867,9.10498047 C28.9197591,8.61409505 28.0276693,8.36865234 26.9326172,8.36865234 C25.3183594,8.36865234 24.1359863,8.90201823 23.385498,9.96875 C22.6350098,11.0354818 22.2597656,12.5128581 22.2597656,14.4008789 Z" id="Shape"></path>
                        <path d="M50.7641602,22.1606445 L48.0029297,13.1264648 C47.8802083,12.7394206 47.7645671,12.3594564 47.6560059,11.9865723 C47.5474447,11.6136882 47.4483236,11.2549642 47.3586426,10.9104004 C47.2689616,10.5658366 47.1887207,10.244873 47.1179199,9.94750977 C47.0471191,9.65014648 46.9881185,9.39290365 46.940918,9.17578125 L46.8417969,9.17578125 C46.8040365,9.39290365 46.7521159,9.65014648 46.6860352,9.94750977 C46.6199544,10.244873 46.5420736,10.5681966 46.4523926,10.9174805 C46.3627116,11.2667643 46.2659505,11.6325684 46.1621094,12.0148926 C46.0582682,12.3972168 45.9402669,12.781901 45.8081055,13.1689453 L42.9194336,22.1606445 L40.2714844,22.1606445 L35.9951172,6.64111328 L38.4306641,6.64111328 L40.6679688,15.2080078 C40.8190104,15.7744141 40.962972,16.3337402 41.0998535,16.8859863 C41.236735,17.4382324 41.3547363,17.9574382 41.4538574,18.4436035 C41.5529785,18.9297689 41.6261393,19.3522135 41.6733398,19.7109375 L41.7866211,19.7109375 C41.8432617,19.4749349 41.9069824,19.1917318 41.9777832,18.8613281 C42.048584,18.5309245 42.1288249,18.1792806 42.2185059,17.8063965 C42.3081868,17.4335124 42.4049479,17.0606283 42.5087891,16.6877441 C42.6126302,16.31486 42.7164714,15.9632161 42.8203125,15.6328125 L45.6806641,6.64111328 L48.215332,6.64111328 L50.9765625,15.6186523 C51.1181641,16.0717773 51.2574056,16.5437826 51.3942871,17.034668 C51.5311686,17.5255534 51.65625,17.9999186 51.7695312,18.4577637 C51.8828125,18.9156087 51.9630534,19.3238932 52.0102539,19.6826172 L52.1235352,19.6826172 C52.1612956,19.3616536 52.2320964,18.9651693 52.3359375,18.4931641 C52.4397786,18.0211589 52.56014,17.5019531 52.6970215,16.9355469 C52.833903,16.3691406 52.9778646,15.7932943 53.1289062,15.2080078 L55.3945312,6.64111328 L57.7875977,6.64111328 L53.4970703,22.1606445 L50.7641602,22.1606445 Z" id="Path"></path>
                        <path d="M67.9545898,6.38623047 C69.7954102,6.38623047 71.1878255,6.83699544 72.1318359,7.73852539 C73.0758464,8.64005534 73.5478516,10.0867513 73.5478516,12.0786133 L73.5478516,22.1889648 L71.2255859,22.1889648 L71.2255859,12.234375 C71.2255859,10.9410807 70.9305827,9.97347005 70.3405762,9.33154297 C69.7505697,8.68961589 68.8466797,8.36865234 67.6289062,8.36865234 C65.9108073,8.36865234 64.702474,8.85481771 64.0039062,9.82714844 C63.3053385,10.7994792 62.9560547,12.2107747 62.9560547,14.0610352 L62.9560547,22.1889648 L60.6054688,22.1889648 L60.6054688,6.66943359 L62.5029297,6.66943359 L62.8569336,8.90673828 L62.984375,8.90673828 C63.3147786,8.35921224 63.7348633,7.89900716 64.2446289,7.52612305 C64.7543945,7.15323893 65.3255208,6.87003581 65.9580078,6.67651367 C66.5904948,6.48299154 67.2560221,6.38623047 67.9545898,6.38623047 Z" id="Path"></path>
                        <polygon id="Path" points="80.7553711 22.1889648 78.390625 22.1889648 78.390625 0.155761719 80.7553711 0.155761719"></polygon>
                        <path d="M99.0927734,14.4008789 C99.0927734,15.675293 98.9275716,16.8128255 98.597168,17.8134766 C98.2667643,18.8141276 97.7900391,19.6590169 97.1669922,20.3481445 C96.5439453,21.0372721 95.791097,21.5635579 94.9084473,21.927002 C94.0257975,22.290446 93.0275065,22.472168 91.9135742,22.472168 C90.8751628,22.472168 89.9240723,22.290446 89.0603027,21.927002 C88.1965332,21.5635579 87.450765,21.0372721 86.822998,20.3481445 C86.1952311,19.6590169 85.7090658,18.8141276 85.364502,17.8134766 C85.0199382,16.8128255 84.8476562,15.675293 84.8476562,14.4008789 C84.8476562,12.7016602 85.1355794,11.2549642 85.7114258,10.060791 C86.2872721,8.86661784 87.1109212,7.95564779 88.182373,7.32788086 C89.2538249,6.70011393 90.530599,6.38623047 92.0126953,6.38623047 C93.4287109,6.38623047 94.6677246,6.70247396 95.7297363,7.33496094 C96.791748,7.96744792 97.6177572,8.88077799 98.2077637,10.0749512 C98.7977702,11.2691243 99.0927734,12.7111003 99.0927734,14.4008789 Z M87.2832031,14.4008789 C87.2832031,15.6469727 87.4484049,16.7278646 87.7788086,17.6435547 C88.1092122,18.5592448 88.6189779,19.2672526 89.3081055,19.7675781 C89.9972331,20.2679036 90.8846029,20.5180664 91.9702148,20.5180664 C93.0463867,20.5180664 93.9313965,20.2679036 94.6252441,19.7675781 C95.3190918,19.2672526 95.8312174,18.5592448 96.1616211,17.6435547 C96.4920247,16.7278646 96.6572266,15.6469727 96.6572266,14.4008789 C96.6572266,13.1642253 96.4920247,12.0951335 96.1616211,11.1936035 C95.8312174,10.2920736 95.3214518,9.59586589 94.6323242,9.10498047 C93.9431966,8.61409505 93.0511068,8.36865234 91.9560547,8.36865234 C90.3417969,8.36865234 89.1594238,8.90201823 88.4089355,9.96875 C87.6584473,11.0354818 87.2832031,12.5128581 87.2832031,14.4008789 Z" id="Shape"></path>
                        <path d="M108.962402,6.41455078 C110.812663,6.41455078 112.186198,6.82991536 113.083008,7.66064453 C113.979818,8.4913737 114.428223,9.81770833 114.428223,11.6396484 L114.428223,22.1889648 L112.714844,22.1889648 L112.261719,19.8950195 L112.148438,19.8950195 C111.714193,20.4614258 111.261068,20.935791 110.789062,21.3181152 C110.317057,21.7004395 109.771891,21.9883626 109.153564,22.1818848 C108.535238,22.3754069 107.777669,22.472168 106.880859,22.472168 C105.936849,22.472168 105.09904,22.3069661 104.367432,21.9765625 C103.635824,21.6461589 103.059977,21.1458333 102.639893,20.4755859 C102.219808,19.8053385 102.009766,18.9557292 102.009766,17.9267578 C102.009766,16.3785807 102.623372,15.1891276 103.850586,14.3583984 C105.077799,13.5276693 106.94694,13.0745443 109.458008,12.9990234 L112.134277,12.8857422 L112.134277,11.9370117 C112.134277,10.5965169 111.846354,9.65722656 111.270508,9.11914062 C110.694661,8.58105469 109.882812,8.31201172 108.834961,8.31201172 C108.023112,8.31201172 107.249023,8.43001302 106.512695,8.66601562 C105.776367,8.90201823 105.077799,9.1805013 104.416992,9.50146484 L103.694824,7.71728516 C104.393392,7.3585612 105.195801,7.05175781 106.102051,6.796875 C107.008301,6.54199219 107.961751,6.41455078 108.962402,6.41455078 Z M112.105957,14.5424805 L109.741211,14.6416016 C107.80599,14.7171224 106.441895,15.0333659 105.648926,15.590332 C104.855957,16.1472982 104.459473,16.9355469 104.459473,17.9550781 C104.459473,18.8424479 104.728516,19.4985352 105.266602,19.9233398 C105.804688,20.3481445 106.517415,20.5605469 107.404785,20.5605469 C108.78304,20.5605469 109.911133,20.1782227 110.789062,19.4135742 C111.666992,18.6489258 112.105957,17.5019531 112.105957,15.9726562 L112.105957,14.5424805 Z" id="Shape"></path>
                        <path d="M124.793457,22.472168 C122.829915,22.472168 121.274658,21.8019206 120.127686,20.4614258 C118.980713,19.120931 118.407227,17.129069 118.407227,14.4858398 C118.407227,11.8142904 118.992513,9.7964681 120.163086,8.43237305 C121.333659,7.06827799 122.891276,6.38623047 124.835938,6.38623047 C125.657227,6.38623047 126.374674,6.49479167 126.988281,6.71191406 C127.601888,6.92903646 128.130534,7.21931966 128.574219,7.58276367 C129.017904,7.94620768 129.390788,8.35921224 129.692871,8.82177734 L129.862793,8.82177734 C129.825033,8.52913411 129.787272,8.12792969 129.749512,7.61816406 C129.711751,7.10839844 129.692871,6.69303385 129.692871,6.37207031 L129.692871,0.155761719 L132.043457,0.155761719 L132.043457,22.1889648 L130.145996,22.1889648 L129.791992,19.9799805 L129.692871,19.9799805 C129.400228,20.4425456 129.029704,20.8626302 128.581299,21.2402344 C128.132894,21.6178385 127.599528,21.9175618 126.981201,22.1394043 C126.362874,22.3612467 125.633626,22.472168 124.793457,22.472168 Z M125.161621,20.5180664 C126.823079,20.5180664 127.998372,20.0460612 128.6875,19.1020508 C129.376628,18.1580404 129.721191,16.7561849 129.721191,14.8964844 L129.721191,14.4716797 C129.721191,12.4986979 129.393148,10.9835612 128.737061,9.92626953 C128.080973,8.86897786 126.88916,8.34033203 125.161621,8.34033203 C123.717285,8.34033203 122.636393,8.89493815 121.918945,10.0041504 C121.201497,11.1133626 120.842773,12.6261393 120.842773,14.5424805 C120.842773,16.4493815 121.199137,17.9220378 121.911865,18.9604492 C122.624593,19.9988607 123.707845,20.5180664 125.161621,20.5180664 Z" id="Shape"></path>
                        <path d="M151.457031,8.51025391 L147.591309,8.51025391 L147.591309,22.1889648 L145.240723,22.1889648 L145.240723,8.51025391 L142.493652,8.51025391 L142.493652,7.37744141 L145.240723,6.59863281 L145.240723,5.56494141 C145.240723,4.26220703 145.434245,3.20255534 145.821289,2.38598633 C146.208333,1.56941732 146.77002,0.967610677 147.506348,0.580566406 C148.242676,0.193522135 149.139486,0 150.196777,0 C150.791504,0 151.33667,0.0519205729 151.832275,0.155761719 C152.327881,0.259602865 152.764486,0.377604167 153.14209,0.509765625 L152.533203,2.36474609 C152.21224,2.26090495 151.851156,2.16414388 151.449951,2.07446289 C151.048747,1.9847819 150.640462,1.93994141 150.225098,1.93994141 C149.328288,1.93994141 148.66512,2.23022461 148.235596,2.81079102 C147.806071,3.39135742 147.591309,4.29996745 147.591309,5.53662109 L147.591309,6.66943359 L151.457031,6.66943359 L151.457031,8.51025391 Z" id="Path"></path>
                        <path d="M167.68457,14.4008789 C167.68457,15.675293 167.519368,16.8128255 167.188965,17.8134766 C166.858561,18.8141276 166.381836,19.6590169 165.758789,20.3481445 C165.135742,21.0372721 164.382894,21.5635579 163.500244,21.927002 C162.617594,22.290446 161.619303,22.472168 160.505371,22.472168 C159.46696,22.472168 158.515869,22.290446 157.6521,21.927002 C156.78833,21.5635579 156.042562,21.0372721 155.414795,20.3481445 C154.787028,19.6590169 154.300863,18.8141276 153.956299,17.8134766 C153.611735,16.8128255 153.439453,15.675293 153.439453,14.4008789 C153.439453,12.7016602 153.727376,11.2549642 154.303223,10.060791 C154.879069,8.86661784 155.702718,7.95564779 156.77417,7.32788086 C157.845622,6.70011393 159.122396,6.38623047 160.604492,6.38623047 C162.020508,6.38623047 163.259521,6.70247396 164.321533,7.33496094 C165.383545,7.96744792 166.209554,8.88077799 166.799561,10.0749512 C167.389567,11.2691243 167.68457,12.7111003 167.68457,14.4008789 Z M155.875,14.4008789 C155.875,15.6469727 156.040202,16.7278646 156.370605,17.6435547 C156.701009,18.5592448 157.210775,19.2672526 157.899902,19.7675781 C158.58903,20.2679036 159.4764,20.5180664 160.562012,20.5180664 C161.638184,20.5180664 162.523193,20.2679036 163.217041,19.7675781 C163.910889,19.2672526 164.423014,18.5592448 164.753418,17.6435547 C165.083822,16.7278646 165.249023,15.6469727 165.249023,14.4008789 C165.249023,13.1642253 165.083822,12.0951335 164.753418,11.1936035 C164.423014,10.2920736 163.913249,9.59586589 163.224121,9.10498047 C162.534993,8.61409505 161.642904,8.36865234 160.547852,8.36865234 C158.933594,8.36865234 157.751221,8.90201823 157.000732,9.96875 C156.250244,11.0354818 155.875,12.5128581 155.875,14.4008789 Z" id="Shape"></path>
                        <path d="M178.800293,6.38623047 C179.111816,6.38623047 179.4375,6.40275065 179.777344,6.43579102 C180.117188,6.46883138 180.419271,6.51367188 180.683594,6.5703125 L180.38623,8.75097656 C180.131348,8.68489583 179.848145,8.63297526 179.536621,8.59521484 C179.225098,8.55745443 178.932454,8.53857422 178.658691,8.53857422 C178.035645,8.53857422 177.447998,8.6636556 176.895752,8.91381836 C176.343506,9.16398112 175.859701,9.52270508 175.444336,9.98999023 C175.028971,10.4572754 174.703288,11.0189616 174.467285,11.6750488 C174.231283,12.3311361 174.113281,13.0603841 174.113281,13.862793 L174.113281,22.1889648 L171.748535,22.1889648 L171.748535,6.66943359 L173.702637,6.66943359 L173.95752,9.52978516 L174.056641,9.52978516 C174.377604,8.9539388 174.764648,8.42765299 175.217773,7.95092773 C175.670898,7.47420247 176.197184,7.09423828 176.796631,6.81103516 C177.396077,6.52783203 178.063965,6.38623047 178.800293,6.38623047 Z" id="Path"></path>
                    </g>
                </g>
            </g>
        </g>
    </g>
</svg>